STARTFONT 2.1
COMMENT
COMMENT Converted from OpenType font "JF-Dot-Izumi16B.ttf" by "otf2bdf 3.0".
COMMENT
FONT -FreeType-JF Dot Izumi Gothic 16-Bold-R-Normal--17-120-100-100-P-163-ISO10646-1
SIZE 12 100 100
FONTBOUNDINGBOX 16 16 0 -2
STARTPROPERTIES 19
FOUNDRY "FreeType"
FAMILY_NAME "JF Dot Izumi Gothic 16"
WEIGHT_NAME "Bold"
SLANT "R"
SETWIDTH_NAME "Normal"
ADD_STYLE_NAME ""
PIXEL_SIZE 17
POINT_SIZE 120
RESOLUTION_X 100
RESOLUTION_Y 100
SPACING "P"
AVERAGE_WIDTH 163
CHARSET_REGISTRY "ISO10646"
CHARSET_ENCODING "1"
FONT_ASCENT 13
FONT_DESCENT 2
COPYRIGHT "-FreeType-JF Dot Izumi Gothic 16-Bold-R-Normal--17-120-100-100-P-163-ISO10646-1"
_OTF_FONTFILE "JF-Dot-Izumi16B.ttf"
_OTF_PSNAME "JF-Dot-Izumi-16-Bold"
ENDPROPERTIES
CHARS 11081
STARTCHAR 0020
ENCODING 32
SWIDTH 480 0
DWIDTH 8 0
BBX 8 16 0 -2
BITMAP
00
00
00
00
00
00
00
00
00
00
00
00
00
00
00
00
ENDCHAR
STARTCHAR 0021
ENCODING 33
SWIDTH 480 0
DWIDTH 8 0
BBX 8 16 0 -2
BITMAP
00
00
30
30
30
30
30
30
30
30
00
00
30
30
00
00
ENDCHAR
STARTCHAR 0022
ENCODING 34
SWIDTH 480 0
DWIDTH 8 0
BBX 8 16 0 -2
BITMAP
00
00
36
36
6C
6C
00
00
00
00
00
00
00
00
00
00
ENDCHAR
STARTCHAR 0023
ENCODING 35
SWIDTH 480 0
DWIDTH 8 0
BBX 8 16 0 -2
BITMAP
00
00
6C
6C
FE
6C
6C
6C
6C
6C
FE
6C
6C
6C
00
00
ENDCHAR
STARTCHAR 0024
ENCODING 36
SWIDTH 480 0
DWIDTH 8 0
BBX 8 16 0 -2
BITMAP
34
3C
76
D4
D4
74
3C
34
36
35
D5
D5
76
3C
34
00
ENDCHAR
STARTCHAR 0025
ENCODING 37
SWIDTH 480 0
DWIDTH 8 0
BBX 8 16 0 -2
BITMAP
00
73
DB
DA
76
0C
0C
18
18
30
36
6B
6B
CE
00
00
ENDCHAR
STARTCHAR 0026
ENCODING 38
SWIDTH 480 0
DWIDTH 8 0
BBX 8 16 0 -2
BITMAP
00
00
38
6C
6C
6C
68
30
6B
DA
CC
CE
6D
3B
00
00
ENDCHAR
STARTCHAR 0027
ENCODING 39
SWIDTH 480 0
DWIDTH 8 0
BBX 8 16 0 -2
BITMAP
00
00
18
18
30
30
00
00
00
00
00
00
00
00
00
00
ENDCHAR
STARTCHAR 0028
ENCODING 40
SWIDTH 480 0
DWIDTH 8 0
BBX 8 16 0 -2
BITMAP
00
18
30
30
30
60
60
60
60
60
60
30
30
30
18
00
ENDCHAR
STARTCHAR 0029
ENCODING 41
SWIDTH 480 0
DWIDTH 8 0
BBX 8 16 0 -2
BITMAP
00
30
18
18
18
0C
0C
0C
0C
0C
0C
18
18
18
30
00
ENDCHAR
STARTCHAR 002A
ENCODING 42
SWIDTH 480 0
DWIDTH 8 0
BBX 8 16 0 -2
BITMAP
00
00
00
00
00
C6
6C
38
FE
38
6C
C6
00
00
00
00
ENDCHAR
STARTCHAR 002B
ENCODING 43
SWIDTH 480 0
DWIDTH 8 0
BBX 8 16 0 -2
BITMAP
00
00
00
18
18
18
18
FF
18
18
18
18
00
00
00
00
ENDCHAR
STARTCHAR 002C
ENCODING 44
SWIDTH 480 0
DWIDTH 8 0
BBX 8 16 0 -2
BITMAP
00
00
00
00
00
00
00
00
00
00
00
00
38
38
18
30
ENDCHAR
STARTCHAR 002D
ENCODING 45
SWIDTH 480 0
DWIDTH 8 0
BBX 8 16 0 -2
BITMAP
00
00
00
00
00
00
00
FE
00
00
00
00
00
00
00
00
ENDCHAR
STARTCHAR 002E
ENCODING 46
SWIDTH 480 0
DWIDTH 8 0
BBX 8 16 0 -2
BITMAP
00
00
00
00
00
00
00
00
00
00
00
00
38
38
00
00
ENDCHAR
STARTCHAR 002F
ENCODING 47
SWIDTH 480 0
DWIDTH 8 0
BBX 8 16 0 -2
BITMAP
00
00
03
06
06
0C
0C
18
18
30
30
60
60
C0
00
00
ENDCHAR
STARTCHAR 0030
ENCODING 48
SWIDTH 480 0
DWIDTH 8 0
BBX 8 16 0 -2
BITMAP
00
38
6C
6C
C6
C6
C6
C6
C6
C6
C6
6C
6C
38
00
00
ENDCHAR
STARTCHAR 0031
ENCODING 49
SWIDTH 480 0
DWIDTH 8 0
BBX 8 16 0 -2
BITMAP
00
38
18
18
18
18
18
18
18
18
18
18
18
18
00
00
ENDCHAR
STARTCHAR 0032
ENCODING 50
SWIDTH 480 0
DWIDTH 8 0
BBX 8 16 0 -2
BITMAP
00
38
6C
C6
C6
06
0C
0C
18
30
60
C0
C0
FE
00
00
ENDCHAR
STARTCHAR 0033
ENCODING 51
SWIDTH 480 0
DWIDTH 8 0
BBX 8 16 0 -2
BITMAP
00
38
6C
C6
C6
06
0C
3C
0C
06
C6
C6
6C
38
00
00
ENDCHAR
STARTCHAR 0034
ENCODING 52
SWIDTH 480 0
DWIDTH 8 0
BBX 8 16 0 -2
BITMAP
00
06
0E
0E
1A
1A
36
36
66
66
FF
06
06
06
00
00
ENDCHAR
STARTCHAR 0035
ENCODING 53
SWIDTH 480 0
DWIDTH 8 0
BBX 8 16 0 -2
BITMAP
00
7C
60
60
60
C0
F8
CC
06
06
C6
C6
6C
38
00
00
ENDCHAR
STARTCHAR 0036
ENCODING 54
SWIDTH 480 0
DWIDTH 8 0
BBX 8 16 0 -2
BITMAP
00
18
18
30
30
60
78
6C
C6
C6
C6
C6
6C
38
00
00
ENDCHAR
STARTCHAR 0037
ENCODING 55
SWIDTH 480 0
DWIDTH 8 0
BBX 8 16 0 -2
BITMAP
00
FE
06
06
06
0C
0C
0C
18
18
18
30
30
30
00
00
ENDCHAR
STARTCHAR 0038
ENCODING 56
SWIDTH 480 0
DWIDTH 8 0
BBX 8 16 0 -2
BITMAP
00
38
6C
C6
C6
C6
6C
38
6C
C6
C6
C6
6C
38
00
00
ENDCHAR
STARTCHAR 0039
ENCODING 57
SWIDTH 480 0
DWIDTH 8 0
BBX 8 16 0 -2
BITMAP
00
38
6C
C6
C6
C6
C6
6C
3C
0C
18
18
30
30
00
00
ENDCHAR
STARTCHAR 003A
ENCODING 58
SWIDTH 480 0
DWIDTH 8 0
BBX 8 16 0 -2
BITMAP
00
00
00
00
38
38
00
00
00
00
38
38
00
00
00
00
ENDCHAR
STARTCHAR 003B
ENCODING 59
SWIDTH 480 0
DWIDTH 8 0
BBX 8 16 0 -2
BITMAP
00
00
00
00
38
38
00
00
00
00
38
38
18
30
00
00
ENDCHAR
STARTCHAR 003C
ENCODING 60
SWIDTH 480 0
DWIDTH 8 0
BBX 8 16 0 -2
BITMAP
00
00
06
0C
18
30
60
C0
60
30
18
0C
06
00
00
00
ENDCHAR
STARTCHAR 003D
ENCODING 61
SWIDTH 480 0
DWIDTH 8 0
BBX 8 16 0 -2
BITMAP
00
00
00
00
00
00
FE
00
FE
00
00
00
00
00
00
00
ENDCHAR
STARTCHAR 003E
ENCODING 62
SWIDTH 480 0
DWIDTH 8 0
BBX 8 16 0 -2
BITMAP
00
00
C0
60
30
18
0C
06
0C
18
30
60
C0
00
00
00
ENDCHAR
STARTCHAR 003F
ENCODING 63
SWIDTH 480 0
DWIDTH 8 0
BBX 8 16 0 -2
BITMAP
00
7C
C6
C6
C6
C6
06
0C
18
18
00
00
18
18
00
00
ENDCHAR
STARTCHAR 0040
ENCODING 64
SWIDTH 480 0
DWIDTH 8 0
BBX 8 16 0 -2
BITMAP
00
3C
66
C3
DB
D5
D5
D5
D5
D5
D5
DA
60
3F
00
00
ENDCHAR
STARTCHAR 0041
ENCODING 65
SWIDTH 480 0
DWIDTH 8 0
BBX 8 16 0 -2
BITMAP
00
18
18
34
34
34
66
66
7E
66
C3
C3
C3
C3
00
00
ENDCHAR
STARTCHAR 0042
ENCODING 66
SWIDTH 480 0
DWIDTH 8 0
BBX 8 16 0 -2
BITMAP
00
F8
CC
C6
C6
CC
F8
CC
C6
C6
C6
C6
CC
F8
00
00
ENDCHAR
STARTCHAR 0043
ENCODING 67
SWIDTH 480 0
DWIDTH 8 0
BBX 8 16 0 -2
BITMAP
00
3C
66
60
C0
C0
C0
C0
C0
C0
C3
63
66
3C
00
00
ENDCHAR
STARTCHAR 0044
ENCODING 68
SWIDTH 480 0
DWIDTH 8 0
BBX 8 16 0 -2
BITMAP
00
F8
CC
CC
C6
C6
C6
C6
C6
C6
C6
CC
CC
F8
00
00
ENDCHAR
STARTCHAR 0045
ENCODING 69
SWIDTH 480 0
DWIDTH 8 0
BBX 8 16 0 -2
BITMAP
00
FE
C0
C0
C0
C0
C0
FC
C0
C0
C0
C0
C0
FE
00
00
ENDCHAR
STARTCHAR 0046
ENCODING 70
SWIDTH 480 0
DWIDTH 8 0
BBX 8 16 0 -2
BITMAP
00
FE
C0
C0
C0
C0
C0
FC
C0
C0
C0
C0
C0
C0
00
00
ENDCHAR
STARTCHAR 0047
ENCODING 71
SWIDTH 480 0
DWIDTH 8 0
BBX 8 16 0 -2
BITMAP
00
3C
66
60
C0
C0
C0
C0
CF
C3
C3
63
66
3C
00
00
ENDCHAR
STARTCHAR 0048
ENCODING 72
SWIDTH 480 0
DWIDTH 8 0
BBX 8 16 0 -2
BITMAP
00
C6
C6
C6
C6
C6
C6
FE
C6
C6
C6
C6
C6
C6
00
00
ENDCHAR
STARTCHAR 0049
ENCODING 73
SWIDTH 480 0
DWIDTH 8 0
BBX 8 16 0 -2
BITMAP
00
18
18
18
18
18
18
18
18
18
18
18
18
18
00
00
ENDCHAR
STARTCHAR 004A
ENCODING 74
SWIDTH 480 0
DWIDTH 8 0
BBX 8 16 0 -2
BITMAP
00
06
06
06
06
06
06
06
06
06
C6
C6
6C
38
00
00
ENDCHAR
STARTCHAR 004B
ENCODING 75
SWIDTH 480 0
DWIDTH 8 0
BBX 8 16 0 -2
BITMAP
00
C3
C6
CC
D8
D0
F8
D8
CC
CC
C6
C6
C3
C3
00
00
ENDCHAR
STARTCHAR 004C
ENCODING 76
SWIDTH 480 0
DWIDTH 8 0
BBX 8 16 0 -2
BITMAP
00
60
60
60
60
60
60
60
60
60
60
60
60
7F
00
00
ENDCHAR
STARTCHAR 004D
ENCODING 77
SWIDTH 480 0
DWIDTH 8 0
BBX 8 16 0 -2
BITMAP
00
66
66
66
76
76
76
6A
6A
6A
66
66
66
66
00
00
ENDCHAR
STARTCHAR 004E
ENCODING 78
SWIDTH 480 0
DWIDTH 8 0
BBX 8 16 0 -2
BITMAP
00
C6
E6
E6
E6
D6
D6
D6
DA
DA
DA
CE
CE
C6
00
00
ENDCHAR
STARTCHAR 004F
ENCODING 79
SWIDTH 480 0
DWIDTH 8 0
BBX 8 16 0 -2
BITMAP
00
7C
C6
C6
C6
C6
C6
C6
C6
C6
C6
C6
C6
7C
00
00
ENDCHAR
STARTCHAR 0050
ENCODING 80
SWIDTH 480 0
DWIDTH 8 0
BBX 8 16 0 -2
BITMAP
00
7C
66
63
63
63
66
7C
60
60
60
60
60
60
00
00
ENDCHAR
STARTCHAR 0051
ENCODING 81
SWIDTH 480 0
DWIDTH 8 0
BBX 8 16 0 -2
BITMAP
00
38
6C
C6
C6
C6
C6
C6
C6
C6
C6
C6
6C
3B
00
00
ENDCHAR
STARTCHAR 0052
ENCODING 82
SWIDTH 480 0
DWIDTH 8 0
BBX 8 16 0 -2
BITMAP
00
7E
63
63
63
63
66
7C
6C
6C
66
66
63
63
00
00
ENDCHAR
STARTCHAR 0053
ENCODING 83
SWIDTH 480 0
DWIDTH 8 0
BBX 8 16 0 -2
BITMAP
00
38
6C
C6
C0
60
38
0C
06
03
C3
C3
66
3C
00
00
ENDCHAR
STARTCHAR 0054
ENCODING 84
SWIDTH 480 0
DWIDTH 8 0
BBX 8 16 0 -2
BITMAP
00
FF
18
18
18
18
18
18
18
18
18
18
18
18
00
00
ENDCHAR
STARTCHAR 0055
ENCODING 85
SWIDTH 480 0
DWIDTH 8 0
BBX 8 16 0 -2
BITMAP
00
C6
C6
C6
C6
C6
C6
C6
C6
C6
C6
C6
C6
7C
00
00
ENDCHAR
STARTCHAR 0056
ENCODING 86
SWIDTH 480 0
DWIDTH 8 0
BBX 8 16 0 -2
BITMAP
00
C3
C3
C3
C3
66
66
66
34
34
34
18
18
18
00
00
ENDCHAR
STARTCHAR 0057
ENCODING 87
SWIDTH 480 0
DWIDTH 8 0
BBX 8 16 0 -2
BITMAP
00
D3
D3
D3
D3
6A
6A
6A
6A
6A
34
34
34
34
00
00
ENDCHAR
STARTCHAR 0058
ENCODING 88
SWIDTH 480 0
DWIDTH 8 0
BBX 8 16 0 -2
BITMAP
00
C3
C3
66
66
34
34
18
34
34
66
66
C3
C3
00
00
ENDCHAR
STARTCHAR 0059
ENCODING 89
SWIDTH 480 0
DWIDTH 8 0
BBX 8 16 0 -2
BITMAP
00
C3
C3
66
66
34
34
18
18
18
18
18
18
18
00
00
ENDCHAR
STARTCHAR 005A
ENCODING 90
SWIDTH 480 0
DWIDTH 8 0
BBX 8 16 0 -2
BITMAP
00
FF
03
06
06
0C
18
18
30
60
60
C0
C0
FF
00
00
ENDCHAR
STARTCHAR 005B
ENCODING 91
SWIDTH 480 0
DWIDTH 8 0
BBX 8 16 0 -2
BITMAP
00
3C
30
30
30
30
30
30
30
30
30
30
30
3C
00
00
ENDCHAR
STARTCHAR 005C
ENCODING 92
SWIDTH 480 0
DWIDTH 8 0
BBX 8 16 0 -2
BITMAP
00
C3
C3
66
66
FF
34
18
18
FF
18
18
18
18
00
00
ENDCHAR
STARTCHAR 005D
ENCODING 93
SWIDTH 480 0
DWIDTH 8 0
BBX 8 16 0 -2
BITMAP
00
78
18
18
18
18
18
18
18
18
18
18
18
78
00
00
ENDCHAR
STARTCHAR 005E
ENCODING 94
SWIDTH 480 0
DWIDTH 8 0
BBX 8 16 0 -2
BITMAP
00
00
30
68
CC
00
00
00
00
00
00
00
00
00
00
00
ENDCHAR
STARTCHAR 005F
ENCODING 95
SWIDTH 480 0
DWIDTH 8 0
BBX 8 16 0 -2
BITMAP
00
00
00
00
00
00
00
00
00
00
00
00
00
00
FF
00
ENDCHAR
STARTCHAR 0060
ENCODING 96
SWIDTH 480 0
DWIDTH 8 0
BBX 8 16 0 -2
BITMAP
00
00
70
70
60
30
00
00
00
00
00
00
00
00
00
00
ENDCHAR
STARTCHAR 0061
ENCODING 97
SWIDTH 480 0
DWIDTH 8 0
BBX 8 16 0 -2
BITMAP
00
00
00
00
00
3C
66
06
3E
66
C6
C6
CE
7A
00
00
ENDCHAR
STARTCHAR 0062
ENCODING 98
SWIDTH 480 0
DWIDTH 8 0
BBX 8 16 0 -2
BITMAP
00
00
C0
C0
C0
D8
EC
C6
C6
C6
C6
C6
EC
D8
00
00
ENDCHAR
STARTCHAR 0063
ENCODING 99
SWIDTH 480 0
DWIDTH 8 0
BBX 8 16 0 -2
BITMAP
00
00
00
00
00
3C
66
C0
C0
C0
C0
C0
66
3C
00
00
ENDCHAR
STARTCHAR 0064
ENCODING 100
SWIDTH 480 0
DWIDTH 8 0
BBX 8 16 0 -2
BITMAP
00
00
06
06
06
3A
6E
C6
C6
C6
C6
C6
6E
3A
00
00
ENDCHAR
STARTCHAR 0065
ENCODING 101
SWIDTH 480 0
DWIDTH 8 0
BBX 8 16 0 -2
BITMAP
00
00
00
00
00
38
6C
C6
C6
FE
C0
C0
66
3C
00
00
ENDCHAR
STARTCHAR 0066
ENCODING 102
SWIDTH 480 0
DWIDTH 8 0
BBX 8 16 0 -2
BITMAP
00
1C
30
30
30
7C
30
30
30
30
30
30
30
30
00
00
ENDCHAR
STARTCHAR 0067
ENCODING 103
SWIDTH 480 0
DWIDTH 8 0
BBX 8 16 0 -2
BITMAP
00
00
00
00
00
3A
6E
C6
C6
C6
C6
6E
3A
06
C6
7C
ENDCHAR
STARTCHAR 0068
ENCODING 104
SWIDTH 480 0
DWIDTH 8 0
BBX 8 16 0 -2
BITMAP
00
00
C0
C0
C0
C0
D8
EC
C6
C6
C6
C6
C6
C6
00
00
ENDCHAR
STARTCHAR 0069
ENCODING 105
SWIDTH 480 0
DWIDTH 8 0
BBX 8 16 0 -2
BITMAP
00
00
18
18
00
00
18
18
18
18
18
18
18
18
00
00
ENDCHAR
STARTCHAR 006A
ENCODING 106
SWIDTH 480 0
DWIDTH 8 0
BBX 8 16 0 -2
BITMAP
00
00
0C
0C
00
00
0C
0C
0C
0C
0C
0C
0C
0C
6C
38
ENDCHAR
STARTCHAR 006B
ENCODING 107
SWIDTH 480 0
DWIDTH 8 0
BBX 8 16 0 -2
BITMAP
00
60
60
60
60
63
66
6C
68
70
68
6C
66
63
00
00
ENDCHAR
STARTCHAR 006C
ENCODING 108
SWIDTH 480 0
DWIDTH 8 0
BBX 8 16 0 -2
BITMAP
00
18
18
18
18
18
18
18
18
18
18
18
18
1C
00
00
ENDCHAR
STARTCHAR 006D
ENCODING 109
SWIDTH 480 0
DWIDTH 8 0
BBX 8 16 0 -2
BITMAP
00
00
00
00
00
D6
EB
DB
DB
DB
DB
DB
DB
DB
00
00
ENDCHAR
STARTCHAR 006E
ENCODING 110
SWIDTH 480 0
DWIDTH 8 0
BBX 8 16 0 -2
BITMAP
00
00
00
00
00
DC
E6
C6
C6
C6
C6
C6
C6
C6
00
00
ENDCHAR
STARTCHAR 006F
ENCODING 111
SWIDTH 480 0
DWIDTH 8 0
BBX 8 16 0 -2
BITMAP
00
00
00
00
00
3C
66
C3
C3
C3
C3
C3
66
3C
00
00
ENDCHAR
STARTCHAR 0070
ENCODING 112
SWIDTH 480 0
DWIDTH 8 0
BBX 8 16 0 -2
BITMAP
00
00
00
00
00
D8
EC
C6
C6
C6
C6
C6
EC
D8
C0
C0
ENDCHAR
STARTCHAR 0071
ENCODING 113
SWIDTH 480 0
DWIDTH 8 0
BBX 8 16 0 -2
BITMAP
00
00
00
00
00
3A
6E
C6
C6
C6
C6
C6
6E
3A
06
06
ENDCHAR
STARTCHAR 0072
ENCODING 114
SWIDTH 480 0
DWIDTH 8 0
BBX 8 16 0 -2
BITMAP
00
00
00
00
00
6E
70
60
60
60
60
60
60
60
00
00
ENDCHAR
STARTCHAR 0073
ENCODING 115
SWIDTH 480 0
DWIDTH 8 0
BBX 8 16 0 -2
BITMAP
00
00
00
00
00
78
CC
C0
70
1C
06
06
C6
7C
00
00
ENDCHAR
STARTCHAR 0074
ENCODING 116
SWIDTH 480 0
DWIDTH 8 0
BBX 8 16 0 -2
BITMAP
00
00
00
30
30
7C
30
30
30
30
30
30
30
1C
00
00
ENDCHAR
STARTCHAR 0075
ENCODING 117
SWIDTH 480 0
DWIDTH 8 0
BBX 8 16 0 -2
BITMAP
00
00
00
00
00
C6
C6
C6
C6
C6
C6
C6
CE
7A
00
00
ENDCHAR
STARTCHAR 0076
ENCODING 118
SWIDTH 480 0
DWIDTH 8 0
BBX 8 16 0 -2
BITMAP
00
00
00
00
00
C3
C3
C3
66
66
34
34
18
18
00
00
ENDCHAR
STARTCHAR 0077
ENCODING 119
SWIDTH 480 0
DWIDTH 8 0
BBX 8 16 0 -2
BITMAP
00
00
00
00
00
D3
D3
D3
6A
6A
6A
34
34
34
00
00
ENDCHAR
STARTCHAR 0078
ENCODING 120
SWIDTH 480 0
DWIDTH 8 0
BBX 8 16 0 -2
BITMAP
00
00
00
00
00
00
C3
66
34
18
18
34
66
C3
00
00
ENDCHAR
STARTCHAR 0079
ENCODING 121
SWIDTH 480 0
DWIDTH 8 0
BBX 8 16 0 -2
BITMAP
00
00
00
00
00
C3
C3
66
66
34
34
18
18
30
30
60
ENDCHAR
STARTCHAR 007A
ENCODING 122
SWIDTH 480 0
DWIDTH 8 0
BBX 8 16 0 -2
BITMAP
00
00
00
00
00
00
FE
06
0C
18
30
60
C0
FE
00
00
ENDCHAR
STARTCHAR 007B
ENCODING 123
SWIDTH 480 0
DWIDTH 8 0
BBX 8 16 0 -2
BITMAP
00
1C
30
30
30
30
30
60
30
30
30
30
30
1C
00
00
ENDCHAR
STARTCHAR 007C
ENCODING 124
SWIDTH 480 0
DWIDTH 8 0
BBX 8 16 0 -2
BITMAP
00
00
30
30
30
30
30
30
30
30
30
30
30
30
00
00
ENDCHAR
STARTCHAR 007D
ENCODING 125
SWIDTH 480 0
DWIDTH 8 0
BBX 8 16 0 -2
BITMAP
00
70
18
18
18
18
18
0C
18
18
18
18
18
70
00
00
ENDCHAR
STARTCHAR 007E
ENCODING 126
SWIDTH 480 0
DWIDTH 8 0
BBX 8 16 0 -2
BITMAP
00
00
FE
00
00
00
00
00
00
00
00
00
00
00
00
00
ENDCHAR
STARTCHAR 00A0
ENCODING 160
SWIDTH 960 0
DWIDTH 16 0
BBX 16 16 0 -2
BITMAP
0000
0000
0000
0000
0000
0000
0000
0000
0000
0000
0000
0000
0000
0000
0000
AAAA
ENDCHAR
STARTCHAR 00A1
ENCODING 161
SWIDTH 960 0
DWIDTH 16 0
BBX 16 16 0 -2
BITMAP
0000
03C0
03C0
0000
0000
0180
0180
0180
0180
0180
0180
0180
0180
0180
0000
0000
ENDCHAR
STARTCHAR 00A4
ENCODING 164
SWIDTH 960 0
DWIDTH 16 0
BBX 16 16 0 -2
BITMAP
0000
0000
600C
3018
1BD0
0C60
1830
1830
1830
1830
0C60
1BD0
3018
600C
0000
0000
ENDCHAR
STARTCHAR 00A6
ENCODING 166
SWIDTH 960 0
DWIDTH 16 0
BBX 16 16 0 -2
BITMAP
0000
0180
0180
0180
0180
0180
0180
0000
0000
0180
0180
0180
0180
0180
0180
0000
ENDCHAR
STARTCHAR 00A7
ENCODING 167
SWIDTH 960 0
DWIDTH 16 0
BBX 16 16 0 -2
BITMAP
0000
07E0
0C30
0C00
0780
06E0
0C30
0C30
0760
01E0
0030
0C30
0C30
07E0
0000
0000
ENDCHAR
STARTCHAR 00A8
ENCODING 168
SWIDTH 960 0
DWIDTH 16 0
BBX 16 16 0 -2
BITMAP
0EE0
0EE0
0000
0000
0000
0000
0000
0000
0000
0000
0000
0000
0000
0000
0000
0000
ENDCHAR
STARTCHAR 00A9
ENCODING 169
SWIDTH 960 0
DWIDTH 16 0
BBX 16 16 0 -2
BITMAP
07E0
1C38
300C
63C6
6666
CC03
CC03
CC03
CC03
CC03
6636
63E6
300C
1C38
07E0
0000
ENDCHAR
STARTCHAR 00AA
ENCODING 170
SWIDTH 960 0
DWIDTH 16 0
BBX 16 16 0 -2
BITMAP
03C0
0660
0060
07E0
0C60
0CE0
07A0
0000
0000
0000
0000
0000
0000
0000
0000
0000
ENDCHAR
STARTCHAR 00AB
ENCODING 171
SWIDTH 960 0
DWIDTH 16 0
BBX 16 16 0 -2
BITMAP
0000
0000
0000
0000
0000
0000
0066
00CC
0198
0330
0198
00CC
0066
0000
0000
0000
ENDCHAR
STARTCHAR 00AD
ENCODING 173
SWIDTH 960 0
DWIDTH 16 0
BBX 16 16 0 -2
BITMAP
0000
0000
0000
0000
0000
0000
0000
FF00
0000
0000
0000
0000
0000
0000
0000
0000
ENDCHAR
STARTCHAR 00AE
ENCODING 174
SWIDTH 960 0
DWIDTH 16 0
BBX 16 16 0 -2
BITMAP
07E0
1C38
300C
67E6
6636
C633
C633
C7E3
C6C3
C663
6636
6636
300C
1C38
07E0
0000
ENDCHAR
STARTCHAR 00AF
ENCODING 175
SWIDTH 960 0
DWIDTH 16 0
BBX 16 16 0 -2
BITMAP
0000
0000
1FF0
0000
0000
0000
0000
0000
0000
0000
0000
0000
0000
0000
0000
0000
ENDCHAR
STARTCHAR 00B0
ENCODING 176
SWIDTH 960 0
DWIDTH 16 0
BBX 16 16 0 -2
BITMAP
0000
7000
D800
D800
7000
0000
0000
0000
0000
0000
0000
0000
0000
0000
0000
0000
ENDCHAR
STARTCHAR 00B1
ENCODING 177
SWIDTH 960 0
DWIDTH 16 0
BBX 16 16 0 -2
BITMAP
0000
0000
0300
0300
0300
0300
7FFC
0300
0300
0300
0300
0000
0000
7FFC
0000
0000
ENDCHAR
STARTCHAR 00B2
ENCODING 178
SWIDTH 960 0
DWIDTH 16 0
BBX 16 16 0 -2
BITMAP
0780
0CC0
00C0
0180
0300
0600
0FC0
0000
0000
0000
0000
0000
0000
0000
0000
0000
ENDCHAR
STARTCHAR 00B3
ENCODING 179
SWIDTH 960 0
DWIDTH 16 0
BBX 16 16 0 -2
BITMAP
03C0
0660
0060
03C0
0060
0660
03C0
0000
0000
0000
0000
0000
0000
0000
0000
0000
ENDCHAR
STARTCHAR 00B4
ENCODING 180
SWIDTH 960 0
DWIDTH 16 0
BBX 16 16 0 -2
BITMAP
01C0
0700
0000
0000
0000
0000
0000
0000
0000
0000
0000
0000
0000
0000
0000
0000
ENDCHAR
STARTCHAR 00B6
ENCODING 182
SWIDTH 960 0
DWIDTH 16 0
BBX 16 16 0 -2
BITMAP
0000
0FE0
1F60
3F60
3F60
3F60
1F60
0F60
0360
0360
0360
0360
0360
0360
0360
0000
ENDCHAR
STARTCHAR 00B7
ENCODING 183
SWIDTH 960 0
DWIDTH 16 0
BBX 16 16 0 -2
BITMAP
0000
0000
0000
0000
0000
0380
07C0
07C0
0380
0000
0000
0000
0000
0000
0000
0000
ENDCHAR
STARTCHAR 00B8
ENCODING 184
SWIDTH 960 0
DWIDTH 16 0
BBX 16 16 0 -2
BITMAP
0000
0000
0000
0000
0000
0000
0000
0000
0000
0000
0000
0180
01C0
0060
0360
01C0
ENDCHAR
STARTCHAR 00B9
ENCODING 185
SWIDTH 960 0
DWIDTH 16 0
BBX 16 16 0 -2
BITMAP
0180
0380
0180
0180
0180
0180
0180
0000
0000
0000
0000
0000
0000
0000
0000
0000
ENDCHAR
STARTCHAR 00BA
ENCODING 186
SWIDTH 960 0
DWIDTH 16 0
BBX 16 16 0 -2
BITMAP
0780
0CC0
1860
1860
1860
0CC0
0780
0000
0000
0000
0000
0000
0000
0000
0000
0000
ENDCHAR
STARTCHAR 00BB
ENCODING 187
SWIDTH 960 0
DWIDTH 16 0
BBX 16 16 0 -2
BITMAP
0000
0000
0000
0000
0000
0000
0330
0198
00CC
0066
00CC
0198
0330
0000
0000
0000
ENDCHAR
STARTCHAR 00BC
ENCODING 188
SWIDTH 960 0
DWIDTH 16 0
BBX 16 16 0 -2
BITMAP
0180
0380
0180
0180
0180
0180
0000
3FFC
00C0
01C0
0340
06C0
0FF0
00C0
00C0
0000
ENDCHAR
STARTCHAR 00BD
ENCODING 189
SWIDTH 960 0
DWIDTH 16 0
BBX 16 16 0 -2
BITMAP
0180
0380
0180
0180
0180
0180
0000
3FFC
0000
03C0
0660
00C0
0180
0300
07E0
0000
ENDCHAR
STARTCHAR 00BE
ENCODING 190
SWIDTH 960 0
DWIDTH 16 0
BBX 16 16 0 -2
BITMAP
03C0
0660
01C0
0060
0660
03C0
0000
3FFC
00C0
01C0
0340
06C0
0FF0
00C0
00C0
0000
ENDCHAR
STARTCHAR 00BF
ENCODING 191
SWIDTH 960 0
DWIDTH 16 0
BBX 16 16 0 -2
BITMAP
0000
03C0
03C0
0000
0000
0180
0180
0180
0700
0C00
1830
1830
0C60
07C0
0000
0000
ENDCHAR
STARTCHAR 00C0
ENCODING 192
SWIDTH 960 0
DWIDTH 16 0
BBX 16 16 0 -2
BITMAP
0380
0180
00C0
0180
0340
0340
0660
0660
0FF0
0C30
1818
1818
300C
300C
0000
0000
ENDCHAR
STARTCHAR 00C1
ENCODING 193
SWIDTH 960 0
DWIDTH 16 0
BBX 16 16 0 -2
BITMAP
01C0
0180
0300
0180
0340
0340
0660
0660
0FF0
0C30
1818
1818
300C
300C
0000
0000
ENDCHAR
STARTCHAR 00C2
ENCODING 194
SWIDTH 960 0
DWIDTH 16 0
BBX 16 16 0 -2
BITMAP
0180
0340
0660
0180
0340
0340
0660
0660
0FF0
0C30
1818
1818
300C
300C
0000
0000
ENDCHAR
STARTCHAR 00C3
ENCODING 195
SWIDTH 960 0
DWIDTH 16 0
BBX 16 16 0 -2
BITMAP
07B0
0CE0
0000
0180
0340
0340
0660
0660
0FF0
0C30
1818
1818
300C
300C
0000
0000
ENDCHAR
STARTCHAR 00C4
ENCODING 196
SWIDTH 960 0
DWIDTH 16 0
BBX 16 16 0 -2
BITMAP
0760
0760
0000
0180
0340
0340
0660
0660
0FF0
0C30
1818
1818
300C
300C
0000
0000
ENDCHAR
STARTCHAR 00C5
ENCODING 197
SWIDTH 960 0
DWIDTH 16 0
BBX 16 16 0 -2
BITMAP
03C0
0660
03C0
0180
0340
0340
0660
0660
0FF0
0C30
1818
1818
300C
300C
0000
0000
ENDCHAR
STARTCHAR 00C6
ENCODING 198
SWIDTH 960 0
DWIDTH 16 0
BBX 16 16 0 -2
BITMAP
0000
03F8
0380
0680
0680
0D80
0D80
19F0
1980
1F80
3180
3180
6180
61FC
0000
0000
ENDCHAR
STARTCHAR 00C7
ENCODING 199
SWIDTH 960 0
DWIDTH 16 0
BBX 16 16 0 -2
BITMAP
0000
03E0
0E38
180C
1800
3000
3000
3000
3000
3000
180C
180C
0E38
03E0
00C0
07C0
ENDCHAR
STARTCHAR 00C8
ENCODING 200
SWIDTH 960 0
DWIDTH 16 0
BBX 16 16 0 -2
BITMAP
0700
0300
0180
1FF0
1800
1800
1800
1800
1FC0
1800
1800
1800
1800
1FF8
0000
0000
ENDCHAR
STARTCHAR 00C9
ENCODING 201
SWIDTH 960 0
DWIDTH 16 0
BBX 16 16 0 -2
BITMAP
01C0
0180
0300
1FF0
1800
1800
1800
1800
1FC0
1800
1800
1800
1800
1FF8
0000
0000
ENDCHAR
STARTCHAR 00CA
ENCODING 202
SWIDTH 960 0
DWIDTH 16 0
BBX 16 16 0 -2
BITMAP
0300
0680
0000
1FF0
1800
1800
1800
1800
1FC0
1800
1800
1800
1800
1FF8
0000
0000
ENDCHAR
STARTCHAR 00CB
ENCODING 203
SWIDTH 960 0
DWIDTH 16 0
BBX 16 16 0 -2
BITMAP
0EE0
0EE0
0000
1FF0
1800
1800
1800
1800
1FC0
1800
1800
1800
1800
1FF8
0000
0000
ENDCHAR
STARTCHAR 00CC
ENCODING 204
SWIDTH 960 0
DWIDTH 16 0
BBX 16 16 0 -2
BITMAP
0700
0300
0180
0300
0300
0300
0300
0300
0300
0300
0300
0300
0300
0300
0000
0000
ENDCHAR
STARTCHAR 00CD
ENCODING 205
SWIDTH 960 0
DWIDTH 16 0
BBX 16 16 0 -2
BITMAP
0380
0300
0600
0300
0300
0300
0300
0300
0300
0300
0300
0300
0300
0300
0000
0000
ENDCHAR
STARTCHAR 00CE
ENCODING 206
SWIDTH 960 0
DWIDTH 16 0
BBX 16 16 0 -2
BITMAP
0300
0680
0CC0
0300
0300
0300
0300
0300
0300
0300
0300
0300
0300
0300
0000
0000
ENDCHAR
STARTCHAR 00CF
ENCODING 207
SWIDTH 960 0
DWIDTH 16 0
BBX 16 16 0 -2
BITMAP
0EC0
0EC0
0000
0300
0300
0300
0300
0300
0300
0300
0300
0300
0300
0300
0000
0000
ENDCHAR
STARTCHAR 00D0
ENCODING 208
SWIDTH 960 0
DWIDTH 16 0
BBX 16 16 0 -2
BITMAP
0000
1FC0
1870
1818
1818
180C
180C
7E0C
180C
180C
1818
1818
1870
1FC0
0000
0000
ENDCHAR
STARTCHAR 00D1
ENCODING 209
SWIDTH 960 0
DWIDTH 16 0
BBX 16 16 0 -2
BITMAP
0760
0DC0
3018
3818
3818
3418
3618
3318
3198
30D8
3068
3038
3038
3018
0000
0000
ENDCHAR
STARTCHAR 00D2
ENCODING 210
SWIDTH 960 0
DWIDTH 16 0
BBX 16 16 0 -2
BITMAP
0380
0180
00C0
03C0
0E70
1818
1818
300C
300C
300C
1818
1818
0E70
03C0
0000
0000
ENDCHAR
STARTCHAR 00D3
ENCODING 211
SWIDTH 960 0
DWIDTH 16 0
BBX 16 16 0 -2
BITMAP
01C0
0180
0300
03C0
0E70
1818
1818
300C
300C
300C
1818
1818
0E70
03C0
0000
0000
ENDCHAR
STARTCHAR 00D4
ENCODING 212
SWIDTH 960 0
DWIDTH 16 0
BBX 16 16 0 -2
BITMAP
0180
0340
0660
03C0
0E70
1818
1818
300C
300C
300C
1818
1818
0E70
03C0
0000
0000
ENDCHAR
STARTCHAR 00D5
ENCODING 213
SWIDTH 960 0
DWIDTH 16 0
BBX 16 16 0 -2
BITMAP
03B0
06E0
0000
03C0
0E70
1818
1818
300C
300C
300C
1818
1818
0E70
03C0
0000
0000
ENDCHAR
STARTCHAR 00D6
ENCODING 214
SWIDTH 960 0
DWIDTH 16 0
BBX 16 16 0 -2
BITMAP
0760
0760
0000
03C0
0E70
1818
1818
300C
300C
300C
1818
1818
0E70
03C0
0000
0000
ENDCHAR
STARTCHAR 00D7
ENCODING 215
SWIDTH 960 0
DWIDTH 16 0
BBX 16 16 0 -2
BITMAP
0000
0000
0000
3018
1830
0C60
06C0
0380
0380
06C0
0C60
1830
3018
0000
0000
0000
ENDCHAR
STARTCHAR 00D8
ENCODING 216
SWIDTH 960 0
DWIDTH 16 0
BBX 16 16 0 -2
BITMAP
0000
07C6
1C74
3018
3034
606C
60CC
618C
630C
660C
3418
1818
3470
67C0
0000
0000
ENDCHAR
STARTCHAR 00D9
ENCODING 217
SWIDTH 960 0
DWIDTH 16 0
BBX 16 16 0 -2
BITMAP
0380
0180
00C0
1818
1818
1818
1818
1818
1818
1818
1818
1818
0C30
07E0
0000
0000
ENDCHAR
STARTCHAR 00DA
ENCODING 218
SWIDTH 960 0
DWIDTH 16 0
BBX 16 16 0 -2
BITMAP
01C0
0180
0300
1818
1818
1818
1818
1818
1818
1818
1818
1818
0C30
07E0
0000
0000
ENDCHAR
STARTCHAR 00DB
ENCODING 219
SWIDTH 960 0
DWIDTH 16 0
BBX 16 16 0 -2
BITMAP
0180
0340
0660
1818
1818
1818
1818
1818
1818
1818
1818
1818
0C30
07E0
0000
0000
ENDCHAR
STARTCHAR 00DC
ENCODING 220
SWIDTH 960 0
DWIDTH 16 0
BBX 16 16 0 -2
BITMAP
0760
0760
0000
1818
1818
1818
1818
1818
1818
1818
1818
1818
0C30
07E0
0000
0000
ENDCHAR
STARTCHAR 00DD
ENCODING 221
SWIDTH 960 0
DWIDTH 16 0
BBX 16 16 0 -2
BITMAP
01C0
0180
0300
1818
0C30
0660
0660
0340
0340
0180
0180
0180
0180
0180
0000
0000
ENDCHAR
STARTCHAR 00DE
ENCODING 222
SWIDTH 960 0
DWIDTH 16 0
BBX 16 16 0 -2
BITMAP
0000
0C00
0C00
0C00
0FF0
0C18
0C0C
0C0C
0C0C
0C18
0FF0
0C00
0C00
0C00
0000
0000
ENDCHAR
STARTCHAR 00DF
ENCODING 223
SWIDTH 960 0
DWIDTH 16 0
BBX 16 16 0 -2
BITMAP
0000
03C0
0660
0C30
0C30
0C60
0DC0
0C60
0C30
0C30
0C30
0C30
1B60
19C0
0000
0000
ENDCHAR
STARTCHAR 00E0
ENCODING 224
SWIDTH 960 0
DWIDTH 16 0
BBX 16 16 0 -2
BITMAP
0000
0380
0180
00C0
0000
07E0
0C30
0030
03F0
0630
0C30
0C30
0C70
07D8
0000
0000
ENDCHAR
STARTCHAR 00E1
ENCODING 225
SWIDTH 960 0
DWIDTH 16 0
BBX 16 16 0 -2
BITMAP
0000
01C0
0180
0300
0000
07E0
0C30
0030
03F0
0630
0C30
0C30
0C70
07D8
0000
0000
ENDCHAR
STARTCHAR 00E2
ENCODING 226
SWIDTH 960 0
DWIDTH 16 0
BBX 16 16 0 -2
BITMAP
0000
0180
0340
0660
0000
07E0
0C30
0030
03F0
0630
0C30
0C30
0C70
07D8
0000
0000
ENDCHAR
STARTCHAR 00E3
ENCODING 227
SWIDTH 960 0
DWIDTH 16 0
BBX 16 16 0 -2
BITMAP
0000
0000
0798
0CF0
0000
07E0
0C30
0030
03F0
0630
0C30
0C30
0C70
07D8
0000
0000
ENDCHAR
STARTCHAR 00E4
ENCODING 228
SWIDTH 960 0
DWIDTH 16 0
BBX 16 16 0 -2
BITMAP
0000
0000
0E70
0E70
0000
07E0
0C30
0030
03F0
0630
0C30
0C30
0C70
07D8
0000
0000
ENDCHAR
STARTCHAR 00E5
ENCODING 229
SWIDTH 960 0
DWIDTH 16 0
BBX 16 16 0 -2
BITMAP
0000
03C0
0660
03C0
0000
07E0
0C30
0030
03F0
0630
0C30
0C30
0C70
07D8
0000
0000
ENDCHAR
STARTCHAR 00E6
ENCODING 230
SWIDTH 960 0
DWIDTH 16 0
BBX 16 16 0 -2
BITMAP
0000
0000
0000
0000
0000
0000
1F78
31CC
0186
1FFE
3180
6180
63C6
3EBC
0000
0000
ENDCHAR
STARTCHAR 00E7
ENCODING 231
SWIDTH 960 0
DWIDTH 16 0
BBX 16 16 0 -2
BITMAP
0000
0000
0000
0000
0000
0000
03E0
0630
0C00
0C00
0C00
0C00
0630
03E0
00C0
03C0
ENDCHAR
STARTCHAR 00E8
ENCODING 232
SWIDTH 960 0
DWIDTH 16 0
BBX 16 16 0 -2
BITMAP
0000
0000
0380
0180
00C0
0000
03C0
0660
0C30
0FF0
0C00
0C00
0630
03E0
0000
0000
ENDCHAR
STARTCHAR 00E9
ENCODING 233
SWIDTH 960 0
DWIDTH 16 0
BBX 16 16 0 -2
BITMAP
0000
0000
01C0
0180
0300
0000
03C0
0660
0C30
0FF0
0C00
0C00
0630
03E0
0000
0000
ENDCHAR
STARTCHAR 00EA
ENCODING 234
SWIDTH 960 0
DWIDTH 16 0
BBX 16 16 0 -2
BITMAP
0000
0000
0300
0680
0CC0
0000
0780
0CC0
1860
1FE0
1800
1800
0C60
07C0
0000
0000
ENDCHAR
STARTCHAR 00EB
ENCODING 235
SWIDTH 960 0
DWIDTH 16 0
BBX 16 16 0 -2
BITMAP
0000
0000
0000
0760
0760
0000
03C0
0660
0C30
0FF0
0C00
0C00
0630
03E0
0000
0000
ENDCHAR
STARTCHAR 00EC
ENCODING 236
SWIDTH 960 0
DWIDTH 16 0
BBX 16 16 0 -2
BITMAP
0000
0000
0700
0300
0180
0000
0180
0180
0180
0180
0180
0180
0180
0180
0000
0000
ENDCHAR
STARTCHAR 00ED
ENCODING 237
SWIDTH 960 0
DWIDTH 16 0
BBX 16 16 0 -2
BITMAP
0000
0000
01C0
0180
0300
0000
0180
0180
0180
0180
0180
0180
0180
0180
0000
0000
ENDCHAR
STARTCHAR 00EE
ENCODING 238
SWIDTH 960 0
DWIDTH 16 0
BBX 16 16 0 -2
BITMAP
0000
0000
0180
0340
0660
0000
0180
0180
0180
0180
0180
0180
0180
0180
0000
0000
ENDCHAR
STARTCHAR 00EF
ENCODING 239
SWIDTH 960 0
DWIDTH 16 0
BBX 16 16 0 -2
BITMAP
0000
0000
0000
0760
0760
0000
0180
0180
0180
0180
0180
0180
0180
0180
0000
0000
ENDCHAR
STARTCHAR 00F0
ENCODING 240
SWIDTH 960 0
DWIDTH 16 0
BBX 16 16 0 -2
BITMAP
0000
1E3C
03E0
0000
03C0
0EC0
0060
0FA0
18E0
3060
3060
3060
18C0
0F80
0000
0000
ENDCHAR
STARTCHAR 00F1
ENCODING 241
SWIDTH 960 0
DWIDTH 16 0
BBX 16 16 0 -2
BITMAP
0000
0000
0000
0760
0DC0
0000
0DC0
0E60
0C30
0C30
0C30
0C30
0C30
0C30
0000
0000
ENDCHAR
STARTCHAR 00F2
ENCODING 242
SWIDTH 960 0
DWIDTH 16 0
BBX 16 16 0 -2
BITMAP
0000
0000
0700
0300
0180
0000
07C0
0C60
1830
1830
1830
1830
0C60
07C0
0000
0000
ENDCHAR
STARTCHAR 00F3
ENCODING 243
SWIDTH 960 0
DWIDTH 16 0
BBX 16 16 0 -2
BITMAP
0000
0000
01C0
0180
0300
0000
07C0
0C60
1830
1830
1830
1830
0C60
07C0
0000
0000
ENDCHAR
STARTCHAR 00F4
ENCODING 244
SWIDTH 960 0
DWIDTH 16 0
BBX 16 16 0 -2
BITMAP
0000
0000
0300
0680
0CC0
0000
07C0
0C60
1830
1830
1830
1830
0C60
07C0
0000
0000
ENDCHAR
STARTCHAR 00F5
ENCODING 245
SWIDTH 960 0
DWIDTH 16 0
BBX 16 16 0 -2
BITMAP
0000
0000
0000
0760
0DC0
0000
07C0
0C60
1830
1830
1830
1830
0C60
07C0
0000
0000
ENDCHAR
STARTCHAR 00F6
ENCODING 246
SWIDTH 960 0
DWIDTH 16 0
BBX 16 16 0 -2
BITMAP
0000
0000
0000
0EE0
0EE0
0000
07C0
0C60
1830
1830
1830
1830
0C60
07C0
0000
0000
ENDCHAR
STARTCHAR 00F7
ENCODING 247
SWIDTH 960 0
DWIDTH 16 0
BBX 16 16 0 -2
BITMAP
0000
0000
0000
0380
0380
0000
0000
7FFC
0000
0000
0380
0380
0000
0000
0000
0000
ENDCHAR
STARTCHAR 00F8
ENCODING 248
SWIDTH 960 0
DWIDTH 16 0
BBX 16 16 0 -2
BITMAP
0000
0000
0000
0000
0000
0000
07D0
0C60
18D0
19B0
1B30
1A30
0C60
1BC0
0000
0000
ENDCHAR
STARTCHAR 00F9
ENCODING 249
SWIDTH 960 0
DWIDTH 16 0
BBX 16 16 0 -2
BITMAP
0000
0000
0700
0300
0180
0000
0C30
0C30
0C30
0C30
0C30
0C30
0670
03D0
0000
0000
ENDCHAR
STARTCHAR 00FA
ENCODING 250
SWIDTH 960 0
DWIDTH 16 0
BBX 16 16 0 -2
BITMAP
0000
0000
01C0
0180
0300
0000
0C30
0C30
0C30
0C30
0C30
0C30
0670
03D0
0000
0000
ENDCHAR
STARTCHAR 00FB
ENCODING 251
SWIDTH 960 0
DWIDTH 16 0
BBX 16 16 0 -2
BITMAP
0000
0000
0180
0340
0660
0000
0C30
0C30
0C30
0C30
0C30
0C30
0670
03D0
0000
0000
ENDCHAR
STARTCHAR 00FC
ENCODING 252
SWIDTH 960 0
DWIDTH 16 0
BBX 16 16 0 -2
BITMAP
0000
0000
0000
0760
0760
0000
0C30
0C30
0C30
0C30
0C30
0C30
0670
03D0
0000
0000
ENDCHAR
STARTCHAR 00FD
ENCODING 253
SWIDTH 960 0
DWIDTH 16 0
BBX 16 16 0 -2
BITMAP
0000
0000
00E0
00C0
0180
0000
0C30
0C30
0660
0660
0340
0340
0180
0180
0300
0E00
ENDCHAR
STARTCHAR 00FE
ENCODING 254
SWIDTH 960 0
DWIDTH 16 0
BBX 16 16 0 -2
BITMAP
0000
0C00
0C00
0C00
0C00
0C00
0DE0
0E30
0C18
0C18
0C18
0E30
0DE0
0C00
0C00
0C00
ENDCHAR
STARTCHAR 00FF
ENCODING 255
SWIDTH 960 0
DWIDTH 16 0
BBX 16 16 0 -2
BITMAP
0000
0000
0000
0760
0760
0000
0C30
0C30
0660
0660
0340
0340
0180
0180
0300
0E00
ENDCHAR
STARTCHAR 0100
ENCODING 256
SWIDTH 960 0
DWIDTH 16 0
BBX 16 16 0 -2
BITMAP
0000
07E0
0000
0180
0340
0340
0660
0660
0FF0
0C30
1818
1818
300C
300C
0000
0000
ENDCHAR
STARTCHAR 0101
ENCODING 257
SWIDTH 960 0
DWIDTH 16 0
BBX 16 16 0 -2
BITMAP
0000
0000
0000
07E0
0000
03E0
0630
0030
03F0
0630
0C30
0C30
0C70
07D0
0000
0000
ENDCHAR
STARTCHAR 0102
ENCODING 258
SWIDTH 960 0
DWIDTH 16 0
BBX 16 16 0 -2
BITMAP
0660
03C0
0000
0180
0340
0340
0660
0660
0FF0
0C30
1818
1818
300C
300C
0000
0000
ENDCHAR
STARTCHAR 0103
ENCODING 259
SWIDTH 960 0
DWIDTH 16 0
BBX 16 16 0 -2
BITMAP
0000
0000
0CC0
0780
0000
0FC0
1860
0060
07E0
0C60
1860
1860
18E0
0FB0
0000
0000
ENDCHAR
STARTCHAR 0104
ENCODING 260
SWIDTH 960 0
DWIDTH 16 0
BBX 16 16 0 -2
BITMAP
0000
0000
0180
0340
0340
0660
0660
0C30
0C30
1FF8
1818
300C
300C
600E
000C
000F
ENDCHAR
STARTCHAR 0105
ENCODING 261
SWIDTH 960 0
DWIDTH 16 0
BBX 16 16 0 -2
BITMAP
0000
0000
0000
0000
0000
07C0
0C60
0060
07E0
0C60
1860
1860
18E0
0FB0
0030
003C
ENDCHAR
STARTCHAR 0106
ENCODING 262
SWIDTH 960 0
DWIDTH 16 0
BBX 16 16 0 -2
BITMAP
00E0
00C0
0180
03E0
0630
0C18
1800
1800
1800
1800
1800
0C18
0630
03E0
0000
0000
ENDCHAR
STARTCHAR 0107
ENCODING 263
SWIDTH 960 0
DWIDTH 16 0
BBX 16 16 0 -2
BITMAP
0000
0000
00E0
00C0
0180
0000
03E0
0630
0C00
0C00
0C00
0C00
0630
03E0
0000
0000
ENDCHAR
STARTCHAR 0108
ENCODING 264
SWIDTH 960 0
DWIDTH 16 0
BBX 16 16 0 -2
BITMAP
0180
0340
0660
07C0
0C60
1830
3000
3000
3000
3000
3000
1818
0C70
07C0
0000
0000
ENDCHAR
STARTCHAR 0109
ENCODING 265
SWIDTH 960 0
DWIDTH 16 0
BBX 16 16 0 -2
BITMAP
0000
0000
0180
0340
0660
0000
03E0
0630
0C00
0C00
0C00
0C00
0630
03E0
0000
0000
ENDCHAR
STARTCHAR 010C
ENCODING 268
SWIDTH 960 0
DWIDTH 16 0
BBX 16 16 0 -2
BITMAP
0660
0340
0180
03E0
0630
0C18
1800
1800
1800
1800
1800
0C18
0630
03E0
0000
0000
ENDCHAR
STARTCHAR 010D
ENCODING 269
SWIDTH 960 0
DWIDTH 16 0
BBX 16 16 0 -2
BITMAP
0000
0000
0660
0340
0180
0000
03E0
0630
0C00
0C00
0C00
0C00
0630
03E0
0000
0000
ENDCHAR
STARTCHAR 010E
ENCODING 270
SWIDTH 960 0
DWIDTH 16 0
BBX 16 16 0 -2
BITMAP
0CC0
0680
0300
1FC0
1860
1830
1830
1818
1818
1818
1830
1830
1860
1FC0
0000
0000
ENDCHAR
STARTCHAR 010F
ENCODING 271
SWIDTH 960 0
DWIDTH 16 0
BBX 16 16 0 -2
BITMAP
0660
0340
01B0
0030
0030
0030
07D0
0C70
1830
1830
1830
1830
0C70
07D0
0000
0000
ENDCHAR
STARTCHAR 0111
ENCODING 273
SWIDTH 960 0
DWIDTH 16 0
BBX 16 16 0 -2
BITMAP
0000
0060
0060
03FC
0060
0060
0FA0
18E0
3060
3060
3060
3060
18E0
0FA0
0000
0000
ENDCHAR
STARTCHAR 0112
ENCODING 274
SWIDTH 960 0
DWIDTH 16 0
BBX 16 16 0 -2
BITMAP
0000
0FC0
0000
0000
1FF0
1800
1800
1800
1FC0
1800
1800
1800
1800
1FF8
0000
0000
ENDCHAR
STARTCHAR 0113
ENCODING 275
SWIDTH 960 0
DWIDTH 16 0
BBX 16 16 0 -2
BITMAP
0000
0000
0000
07E0
0000
0000
03C0
0660
0C30
0FF0
0C00
0C00
0630
03E0
0000
0000
ENDCHAR
STARTCHAR 0118
ENCODING 280
SWIDTH 960 0
DWIDTH 16 0
BBX 16 16 0 -2
BITMAP
0000
1FF0
1800
1800
1800
1800
1800
1FC0
1800
1800
1800
1800
1800
1FF8
0030
003C
ENDCHAR
STARTCHAR 0119
ENCODING 281
SWIDTH 960 0
DWIDTH 16 0
BBX 16 16 0 -2
BITMAP
0000
0000
0000
0000
0000
0000
03C0
0660
0C30
0FF0
0C00
0C00
0630
03E0
0060
0078
ENDCHAR
STARTCHAR 011A
ENCODING 282
SWIDTH 960 0
DWIDTH 16 0
BBX 16 16 0 -2
BITMAP
0CC0
0680
0300
1FF0
1800
1800
1800
1800
1FC0
1800
1800
1800
1800
1FF8
0000
0000
ENDCHAR
STARTCHAR 011B
ENCODING 283
SWIDTH 960 0
DWIDTH 16 0
BBX 16 16 0 -2
BITMAP
0000
0000
0660
0340
0180
0000
03C0
0660
0C30
0FF0
0C00
0C00
0630
03E0
0000
0000
ENDCHAR
STARTCHAR 011C
ENCODING 284
SWIDTH 960 0
DWIDTH 16 0
BBX 16 16 0 -2
BITMAP
0180
0340
0660
07E0
0C30
1800
3000
3000
307C
300C
180C
1818
0E70
03C0
0000
0000
ENDCHAR
STARTCHAR 011D
ENCODING 285
SWIDTH 960 0
DWIDTH 16 0
BBX 16 16 0 -2
BITMAP
0000
0180
0340
0660
0000
03D0
0670
0C30
0C30
0C30
0670
03D0
0030
0C30
0660
03C0
ENDCHAR
STARTCHAR 0124
ENCODING 292
SWIDTH 960 0
DWIDTH 16 0
BBX 16 16 0 -2
BITMAP
0180
0340
0660
1818
1818
1818
1818
1FF8
1818
1818
1818
1818
1818
1818
0000
0000
ENDCHAR
STARTCHAR 0125
ENCODING 293
SWIDTH 960 0
DWIDTH 16 0
BBX 16 16 0 -2
BITMAP
00C0
01A0
0D30
0C00
0C00
0C00
0DC0
0E60
0C30
0C30
0C30
0C30
0C30
0C30
0000
0000
ENDCHAR
STARTCHAR 0127
ENCODING 295
SWIDTH 960 0
DWIDTH 16 0
BBX 16 16 0 -2
BITMAP
0000
0600
0600
0600
1F80
0600
06E0
0730
0618
0618
0618
0618
0618
0618
0000
0000
ENDCHAR
STARTCHAR 012A
ENCODING 298
SWIDTH 960 0
DWIDTH 16 0
BBX 16 16 0 -2
BITMAP
0000
0FC0
0000
0000
0300
0300
0300
0300
0300
0300
0300
0300
0300
0300
0000
0000
ENDCHAR
STARTCHAR 012B
ENCODING 299
SWIDTH 960 0
DWIDTH 16 0
BBX 16 16 0 -2
BITMAP
0000
0000
0000
07E0
0000
0000
0180
0180
0180
0180
0180
0180
0180
0180
0000
0000
ENDCHAR
STARTCHAR 0134
ENCODING 308
SWIDTH 960 0
DWIDTH 16 0
BBX 16 16 0 -2
BITMAP
0060
00D0
0198
0030
0030
0030
0030
0030
0030
0030
0030
1830
0C60
07C0
0000
0000
ENDCHAR
STARTCHAR 0135
ENCODING 309
SWIDTH 960 0
DWIDTH 16 0
BBX 16 16 0 -2
BITMAP
0000
0000
0180
0340
0660
0000
00C0
00C0
00C0
00C0
00C0
00C0
00C0
00C0
0CC0
0780
ENDCHAR
STARTCHAR 0139
ENCODING 313
SWIDTH 960 0
DWIDTH 16 0
BBX 16 16 0 -2
BITMAP
0070
0060
0CC0
0C00
0C00
0C00
0C00
0C00
0C00
0C00
0C00
0C00
0C00
0FFC
0000
0000
ENDCHAR
STARTCHAR 013A
ENCODING 314
SWIDTH 960 0
DWIDTH 16 0
BBX 16 16 0 -2
BITMAP
0380
0300
0600
0300
0300
0300
0300
0300
0300
0300
0300
0300
0300
0300
0000
0000
ENDCHAR
STARTCHAR 013D
ENCODING 317
SWIDTH 960 0
DWIDTH 16 0
BBX 16 16 0 -2
BITMAP
0330
0DA0
0CC0
0C00
0C00
0C00
0C00
0C00
0C00
0C00
0C00
0C00
0C00
0FFC
0000
0000
ENDCHAR
STARTCHAR 013E
ENCODING 318
SWIDTH 960 0
DWIDTH 16 0
BBX 16 16 0 -2
BITMAP
0660
0340
0180
0000
0180
0180
0180
0180
0180
0180
0180
0180
0180
0180
0000
0000
ENDCHAR
STARTCHAR 0141
ENCODING 321
SWIDTH 960 0
DWIDTH 16 0
BBX 16 16 0 -2
BITMAP
0000
0C00
0C00
0C00
0D80
0D00
0E00
0C00
1C00
3400
0C00
0C00
0C00
0FFC
0000
0000
ENDCHAR
STARTCHAR 0142
ENCODING 322
SWIDTH 960 0
DWIDTH 16 0
BBX 16 16 0 -2
BITMAP
0000
0000
0180
0180
0180
01A0
01C0
0180
0380
0680
0180
0180
0180
0180
0000
0000
ENDCHAR
STARTCHAR 0143
ENCODING 323
SWIDTH 960 0
DWIDTH 16 0
BBX 16 16 0 -2
BITMAP
01C0
3998
3D18
3418
3618
3618
3318
3198
30D8
30D8
3068
3038
3038
3018
0000
0000
ENDCHAR
STARTCHAR 0144
ENCODING 324
SWIDTH 960 0
DWIDTH 16 0
BBX 16 16 0 -2
BITMAP
0000
0000
01C0
0180
0300
0000
0DC0
0E60
0C30
0C30
0C30
0C30
0C30
0C30
0000
0000
ENDCHAR
STARTCHAR 0147
ENCODING 327
SWIDTH 960 0
DWIDTH 16 0
BBX 16 16 0 -2
BITMAP
0660
3B58
3D98
3418
3618
3618
3318
3198
30D8
30D8
3068
3038
3038
3018
0000
0000
ENDCHAR
STARTCHAR 0148
ENCODING 328
SWIDTH 960 0
DWIDTH 16 0
BBX 16 16 0 -2
BITMAP
0000
0000
0660
0340
0180
0000
0DC0
0E60
0C30
0C30
0C30
0C30
0C30
0C30
0000
0000
ENDCHAR
STARTCHAR 014B
ENCODING 331
SWIDTH 960 0
DWIDTH 16 0
BBX 16 16 0 -2
BITMAP
0000
0000
0000
0000
0000
0000
0DC0
0E60
0C30
0C30
0C30
0C30
0C30
0C30
01B0
00E0
ENDCHAR
STARTCHAR 014C
ENCODING 332
SWIDTH 960 0
DWIDTH 16 0
BBX 16 16 0 -2
BITMAP
0000
07E0
0000
03C0
0E70
1818
1818
300C
300C
300C
1818
1818
0E70
03C0
0000
0000
ENDCHAR
STARTCHAR 014D
ENCODING 333
SWIDTH 960 0
DWIDTH 16 0
BBX 16 16 0 -2
BITMAP
0000
0000
0000
0FE0
0000
0000
07C0
0C60
1830
1830
1830
1830
0C60
07C0
0000
0000
ENDCHAR
STARTCHAR 0150
ENCODING 336
SWIDTH 960 0
DWIDTH 16 0
BBX 16 16 0 -2
BITMAP
03B0
0360
06C0
07C0
1C70
3018
3018
600C
600C
600C
3018
3018
1C70
07C0
0000
0000
ENDCHAR
STARTCHAR 0151
ENCODING 337
SWIDTH 960 0
DWIDTH 16 0
BBX 16 16 0 -2
BITMAP
0000
0000
03B0
0360
06C0
0000
07C0
0C60
1830
1830
1830
1830
0C60
07C0
0000
0000
ENDCHAR
STARTCHAR 0152
ENCODING 338
SWIDTH 960 0
DWIDTH 16 0
BBX 16 16 0 -2
BITMAP
0000
1F7E
31C0
30C0
60C0
60C0
60C0
60F8
60C0
60C0
60C0
30C0
31C0
1F7E
0000
0000
ENDCHAR
STARTCHAR 0153
ENCODING 339
SWIDTH 960 0
DWIDTH 16 0
BBX 16 16 0 -2
BITMAP
0000
0000
0000
0000
0000
0000
1E78
33CC
6186
61FE
6180
6180
33C6
1E7C
0000
0000
ENDCHAR
STARTCHAR 0154
ENCODING 340
SWIDTH 960 0
DWIDTH 16 0
BBX 16 16 0 -2
BITMAP
01C0
0180
0300
1FE0
1830
1818
1818
1830
1FE0
1860
1830
1830
1818
1818
0000
0000
ENDCHAR
STARTCHAR 0155
ENCODING 341
SWIDTH 960 0
DWIDTH 16 0
BBX 16 16 0 -2
BITMAP
0000
0000
01C0
0180
0300
0000
06E0
0700
0600
0600
0600
0600
0600
0600
0000
0000
ENDCHAR
STARTCHAR 0158
ENCODING 344
SWIDTH 960 0
DWIDTH 16 0
BBX 16 16 0 -2
BITMAP
0CC0
0680
0300
1FE0
1830
1818
1818
1830
1FE0
1860
1830
1830
1818
1818
0000
0000
ENDCHAR
STARTCHAR 0159
ENCODING 345
SWIDTH 960 0
DWIDTH 16 0
BBX 16 16 0 -2
BITMAP
0000
0000
0660
0340
0180
0000
06E0
0700
0600
0600
0600
0600
0600
0600
0000
0000
ENDCHAR
STARTCHAR 015A
ENCODING 346
SWIDTH 960 0
DWIDTH 16 0
BBX 16 16 0 -2
BITMAP
01C0
0180
0300
0FC0
1870
3018
3000
1C00
07C0
0070
0018
3018
1C30
07E0
0000
0000
ENDCHAR
STARTCHAR 015B
ENCODING 347
SWIDTH 960 0
DWIDTH 16 0
BBX 16 16 0 -2
BITMAP
0000
0000
01C0
0180
0300
0000
0780
0CE0
0C00
0700
01C0
0060
0C60
07C0
0000
0000
ENDCHAR
STARTCHAR 015C
ENCODING 348
SWIDTH 960 0
DWIDTH 16 0
BBX 16 16 0 -2
BITMAP
0300
0680
0CC0
0FC0
1870
3018
3000
1C00
07C0
0070
0018
3018
1C30
07E0
0000
0000
ENDCHAR
STARTCHAR 015D
ENCODING 349
SWIDTH 960 0
DWIDTH 16 0
BBX 16 16 0 -2
BITMAP
0000
0000
00C0
01A0
0330
0000
03C0
0670
0600
0380
00E0
0C30
0630
03E0
0000
0000
ENDCHAR
STARTCHAR 015E
ENCODING 350
SWIDTH 960 0
DWIDTH 16 0
BBX 16 16 0 -2
BITMAP
0000
0FC0
1870
3018
3000
1800
0F00
01E0
0030
0018
0018
3018
1C30
07E0
0180
0780
ENDCHAR
STARTCHAR 015F
ENCODING 351
SWIDTH 960 0
DWIDTH 16 0
BBX 16 16 0 -2
BITMAP
0000
0000
0000
0000
0000
0000
0780
0CE0
0C00
0700
01C0
0060
0C60
07C0
0180
0F80
ENDCHAR
STARTCHAR 0160
ENCODING 352
SWIDTH 960 0
DWIDTH 16 0
BBX 16 16 0 -2
BITMAP
0CC0
0680
0300
0FC0
1870
3018
3000
1C00
07C0
0070
0018
3018
1C30
07E0
0000
0000
ENDCHAR
STARTCHAR 0161
ENCODING 353
SWIDTH 960 0
DWIDTH 16 0
BBX 16 16 0 -2
BITMAP
0000
0000
0660
0340
0180
0000
0780
0CE0
0C00
0700
01C0
0060
0C60
07C0
0000
0000
ENDCHAR
STARTCHAR 0162
ENCODING 354
SWIDTH 960 0
DWIDTH 16 0
BBX 16 16 0 -2
BITMAP
0000
3FFC
0180
0180
0180
0180
0180
0180
0180
0180
0180
0180
0180
0180
0180
0780
ENDCHAR
STARTCHAR 0163
ENCODING 355
SWIDTH 960 0
DWIDTH 16 0
BBX 16 16 0 -2
BITMAP
0000
0000
0000
0180
0180
0180
07E0
0180
0180
0180
0180
0180
0180
00E0
00C0
07C0
ENDCHAR
STARTCHAR 0164
ENCODING 356
SWIDTH 960 0
DWIDTH 16 0
BBX 16 16 0 -2
BITMAP
0660
0340
0180
3FFC
0180
0180
0180
0180
0180
0180
0180
0180
0180
0180
0000
0000
ENDCHAR
STARTCHAR 0165
ENCODING 357
SWIDTH 960 0
DWIDTH 16 0
BBX 16 16 0 -2
BITMAP
0660
0340
0180
0180
0180
07E0
0180
0180
0180
0180
0180
0180
0180
00E0
0000
0000
ENDCHAR
STARTCHAR 016A
ENCODING 362
SWIDTH 960 0
DWIDTH 16 0
BBX 16 16 0 -2
BITMAP
0000
07E0
0000
1818
1818
1818
1818
1818
1818
1818
1818
1818
0C30
07E0
0000
0000
ENDCHAR
STARTCHAR 016B
ENCODING 363
SWIDTH 960 0
DWIDTH 16 0
BBX 16 16 0 -2
BITMAP
0000
0000
0000
07E0
0000
0000
0C30
0C30
0C30
0C30
0C30
0C30
0670
03D0
0000
0000
ENDCHAR
STARTCHAR 016C
ENCODING 364
SWIDTH 960 0
DWIDTH 16 0
BBX 16 16 0 -2
BITMAP
0660
03C0
0000
1818
1818
1818
1818
1818
1818
1818
1818
1818
0C30
07E0
0000
0000
ENDCHAR
STARTCHAR 016D
ENCODING 365
SWIDTH 960 0
DWIDTH 16 0
BBX 16 16 0 -2
BITMAP
0000
0000
0000
0660
03C0
0000
0C30
0C30
0C30
0C30
0C30
0C30
0670
03D0
0000
0000
ENDCHAR
STARTCHAR 016E
ENCODING 366
SWIDTH 960 0
DWIDTH 16 0
BBX 16 16 0 -2
BITMAP
03C0
0660
03C0
1818
1818
1818
1818
1818
1818
1818
1818
1818
0C30
07E0
0000
0000
ENDCHAR
STARTCHAR 016F
ENCODING 367
SWIDTH 960 0
DWIDTH 16 0
BBX 16 16 0 -2
BITMAP
0000
0000
03C0
0660
03C0
0000
0C30
0C30
0C30
0C30
0C30
0C30
0670
03D0
0000
0000
ENDCHAR
STARTCHAR 0170
ENCODING 368
SWIDTH 960 0
DWIDTH 16 0
BBX 16 16 0 -2
BITMAP
03B0
0360
06C0
1818
1818
1818
1818
1818
1818
1818
1818
1818
0C30
07E0
0000
0000
ENDCHAR
STARTCHAR 0171
ENCODING 369
SWIDTH 960 0
DWIDTH 16 0
BBX 16 16 0 -2
BITMAP
0000
0000
0760
06C0
0D80
0000
0C30
0C30
0C30
0C30
0C30
0C30
0670
03D0
0000
0000
ENDCHAR
STARTCHAR 0179
ENCODING 377
SWIDTH 960 0
DWIDTH 16 0
BBX 16 16 0 -2
BITMAP
00E0
00C0
0180
1FF8
0030
0060
00C0
0180
0300
0600
0C00
1800
3000
3FFC
0000
0000
ENDCHAR
STARTCHAR 017A
ENCODING 378
SWIDTH 960 0
DWIDTH 16 0
BBX 16 16 0 -2
BITMAP
0000
0000
01C0
0180
0300
0000
1FF0
0060
00C0
0180
0300
0600
0C00
1FF0
0000
0000
ENDCHAR
STARTCHAR 017B
ENCODING 379
SWIDTH 960 0
DWIDTH 16 0
BBX 16 16 0 -2
BITMAP
01C0
01C0
0000
1FF8
0030
0060
00C0
0180
0300
0600
0C00
1800
3000
3FFC
0000
0000
ENDCHAR
STARTCHAR 017C
ENCODING 380
SWIDTH 960 0
DWIDTH 16 0
BBX 16 16 0 -2
BITMAP
0000
0000
0000
0380
0380
0000
1FF0
0060
00C0
0180
0300
0600
0C00
1FF0
0000
0000
ENDCHAR
STARTCHAR 017D
ENCODING 381
SWIDTH 960 0
DWIDTH 16 0
BBX 16 16 0 -2
BITMAP
0660
0340
0180
1FF8
0030
0060
00C0
0180
0300
0600
0C00
1800
3000
3FFC
0000
0000
ENDCHAR
STARTCHAR 017E
ENCODING 382
SWIDTH 960 0
DWIDTH 16 0
BBX 16 16 0 -2
BITMAP
0000
0000
0660
0340
0180
0000
1FF0
0060
00C0
0180
0300
0600
0C00
1FF0
0000
0000
ENDCHAR
STARTCHAR 0193
ENCODING 403
SWIDTH 960 0
DWIDTH 16 0
BBX 16 16 0 -2
BITMAP
0000
07EF
1C3B
3000
3000
6000
6000
6000
607C
600C
300C
3018
1C70
07C0
0000
0000
ENDCHAR
STARTCHAR 01C2
ENCODING 450
SWIDTH 960 0
DWIDTH 16 0
BBX 16 16 0 -2
BITMAP
0000
0180
0180
0180
0180
0FF0
0180
0180
0180
0FF0
0180
0180
0180
0180
0000
0000
ENDCHAR
STARTCHAR 01CD
ENCODING 461
SWIDTH 960 0
DWIDTH 16 0
BBX 16 16 0 -2
BITMAP
0660
0340
0180
0180
0340
0340
0660
0660
0C30
0FF0
1818
1818
300C
300C
0000
0000
ENDCHAR
STARTCHAR 01CE
ENCODING 462
SWIDTH 960 0
DWIDTH 16 0
BBX 16 16 0 -2
BITMAP
0000
0660
0340
0180
0000
07E0
0C30
0030
03F0
0630
0C30
0C30
0C70
07D8
0000
0000
ENDCHAR
STARTCHAR 01D0
ENCODING 464
SWIDTH 960 0
DWIDTH 16 0
BBX 16 16 0 -2
BITMAP
0000
0000
0660
0340
0180
0000
0180
0180
0180
0180
0180
0180
0180
0180
0000
0000
ENDCHAR
STARTCHAR 01D1
ENCODING 465
SWIDTH 960 0
DWIDTH 16 0
BBX 16 16 0 -2
BITMAP
0660
0340
0180
03C0
0E70
1818
1818
300C
300C
300C
1818
1818
0E70
03C0
0000
0000
ENDCHAR
STARTCHAR 01D2
ENCODING 466
SWIDTH 960 0
DWIDTH 16 0
BBX 16 16 0 -2
BITMAP
0000
0000
0CC0
0680
0300
0000
07C0
0C60
1830
1830
1830
1830
0C60
07C0
0000
0000
ENDCHAR
STARTCHAR 01D4
ENCODING 468
SWIDTH 960 0
DWIDTH 16 0
BBX 16 16 0 -2
BITMAP
0000
0000
0660
0340
0180
0000
0C30
0C30
0C30
0C30
0C30
0C30
0670
03D0
0000
0000
ENDCHAR
STARTCHAR 01D6
ENCODING 470
SWIDTH 960 0
DWIDTH 16 0
BBX 16 16 0 -2
BITMAP
0000
07E0
0000
0760
0760
0000
0C30
0C30
0C30
0C30
0C30
0C30
0670
03D0
0000
0000
ENDCHAR
STARTCHAR 01D8
ENCODING 472
SWIDTH 960 0
DWIDTH 16 0
BBX 16 16 0 -2
BITMAP
00E0
00C0
0180
0760
0760
0000
0C30
0C30
0C30
0C30
0C30
0C30
0670
03D0
0000
0000
ENDCHAR
STARTCHAR 01DA
ENCODING 474
SWIDTH 960 0
DWIDTH 16 0
BBX 16 16 0 -2
BITMAP
0660
0340
0180
0760
0760
0000
0C30
0C30
0C30
0C30
0C30
0C30
0670
03D0
0000
0000
ENDCHAR
STARTCHAR 01DC
ENCODING 476
SWIDTH 960 0
DWIDTH 16 0
BBX 16 16 0 -2
BITMAP
0700
0300
0180
0760
0760
0000
0C30
0C30
0C30
0C30
0C30
0C30
0670
03D0
0000
0000
ENDCHAR
STARTCHAR 01F8
ENCODING 504
SWIDTH 960 0
DWIDTH 16 0
BBX 16 16 0 -2
BITMAP
0380
3998
3CD8
3418
3618
3618
3318
3198
30D8
30D8
3068
3038
3038
3018
0000
0000
ENDCHAR
STARTCHAR 01F9
ENCODING 505
SWIDTH 960 0
DWIDTH 16 0
BBX 16 16 0 -2
BITMAP
0000
0000
0380
0180
00C0
0000
0DC0
0E60
0C30
0C30
0C30
0C30
0C30
0C30
0000
0000
ENDCHAR
STARTCHAR 01FD
ENCODING 509
SWIDTH 960 0
DWIDTH 16 0
BBX 16 16 0 -2
BITMAP
0000
01C0
0180
0300
0000
0000
1F78
31CC
0186
1FFE
3180
6180
63C6
3EBC
0000
0000
ENDCHAR
STARTCHAR 0250
ENCODING 592
SWIDTH 960 0
DWIDTH 16 0
BBX 16 16 0 -2
BITMAP
0000
0000
0000
0000
0000
0000
0DE0
0E30
0C30
0C30
0C60
0FC0
0C00
0C30
07E0
0000
ENDCHAR
STARTCHAR 0251
ENCODING 593
SWIDTH 960 0
DWIDTH 16 0
BBX 16 16 0 -2
BITMAP
0000
0000
0000
0000
0000
0000
07D0
0C70
1830
1830
1830
1830
0C70
07D0
0000
0000
ENDCHAR
STARTCHAR 0252
ENCODING 594
SWIDTH 960 0
DWIDTH 16 0
BBX 16 16 0 -2
BITMAP
0000
0000
0000
0000
0000
0000
0DE0
0E30
0C18
0C18
0C18
0C18
0E30
0DE0
0000
0000
ENDCHAR
STARTCHAR 0253
ENCODING 595
SWIDTH 960 0
DWIDTH 16 0
BBX 16 16 0 -2
BITMAP
0000
03E0
0630
0C00
0C00
0C00
0DC0
0E60
0C30
0C30
0C30
0C30
0E60
0DC0
0000
0000
ENDCHAR
STARTCHAR 0254
ENCODING 596
SWIDTH 960 0
DWIDTH 16 0
BBX 16 16 0 -2
BITMAP
0000
0000
0000
0000
0000
0000
07C0
0C60
0030
0030
0030
0C30
0660
03C0
0000
0000
ENDCHAR
STARTCHAR 0255
ENCODING 597
SWIDTH 960 0
DWIDTH 16 0
BBX 16 16 0 -2
BITMAP
0000
0000
0000
0000
0000
0000
07E0
0C30
1800
1800
1860
18D0
0DB0
07E0
0300
0600
ENDCHAR
STARTCHAR 0256
ENCODING 598
SWIDTH 960 0
DWIDTH 16 0
BBX 16 16 0 -2
BITMAP
0000
0000
0030
0030
0030
0030
07D0
0C70
1830
1830
1830
1830
0C70
07D0
0036
001C
ENDCHAR
STARTCHAR 0257
ENCODING 599
SWIDTH 960 0
DWIDTH 16 0
BBX 16 16 0 -2
BITMAP
0000
0038
006C
0060
0060
0060
07A0
0CE0
1860
1860
1860
1860
0CE0
07A0
0000
0000
ENDCHAR
STARTCHAR 0258
ENCODING 600
SWIDTH 960 0
DWIDTH 16 0
BBX 16 16 0 -2
BITMAP
0000
0000
0000
0000
0000
0000
03C0
0660
0C30
0FF0
0030
0030
0C60
07C0
0000
0000
ENDCHAR
STARTCHAR 0259
ENCODING 601
SWIDTH 960 0
DWIDTH 16 0
BBX 16 16 0 -2
BITMAP
0000
0000
0000
0000
0000
0000
07C0
0C60
0030
0030
0FF0
0C30
0660
03C0
0000
0000
ENDCHAR
STARTCHAR 025A
ENCODING 602
SWIDTH 960 0
DWIDTH 16 0
BBX 16 16 0 -2
BITMAP
0000
0000
0000
0000
0000
0000
0FC0
186C
00FC
03B4
0E37
1830
0C60
07C0
0000
0000
ENDCHAR
STARTCHAR 025C
ENCODING 604
SWIDTH 960 0
DWIDTH 16 0
BBX 16 16 0 -2
BITMAP
0000
0000
0000
0000
0000
0000
07E0
0C30
0030
03E0
0030
0C30
0660
03C0
0000
0000
ENDCHAR
STARTCHAR 025E
ENCODING 606
SWIDTH 960 0
DWIDTH 16 0
BBX 16 16 0 -2
BITMAP
0000
0000
0000
0000
0000
0000
03E0
0630
0C30
0DE0
0C30
0C30
0660
03C0
0000
0000
ENDCHAR
STARTCHAR 025F
ENCODING 607
SWIDTH 960 0
DWIDTH 16 0
BBX 16 16 0 -2
BITMAP
0000
0000
0000
0000
0000
0000
0180
0180
0180
0180
0180
0180
07E0
0180
1980
0F00
ENDCHAR
STARTCHAR 0260
ENCODING 608
SWIDTH 960 0
DWIDTH 16 0
BBX 16 16 0 -2
BITMAP
0000
0000
0000
001C
0036
03D0
0670
0C30
0C30
0C30
0670
03D0
0030
0C30
0660
03C0
ENDCHAR
STARTCHAR 0261
ENCODING 609
SWIDTH 960 0
DWIDTH 16 0
BBX 16 16 0 -2
BITMAP
0000
0000
0000
0000
0000
03D0
0670
0C30
0C30
0C30
0670
03D0
0030
0C30
0660
03C0
ENDCHAR
STARTCHAR 0264
ENCODING 612
SWIDTH 960 0
DWIDTH 16 0
BBX 16 16 0 -2
BITMAP
0000
0000
0000
0000
0000
3CF0
1860
0CC0
0CC0
0680
0300
0680
0680
0300
0000
0000
ENDCHAR
STARTCHAR 0265
ENCODING 613
SWIDTH 960 0
DWIDTH 16 0
BBX 16 16 0 -2
BITMAP
0000
0000
0000
0000
0000
0C30
0C30
0C30
0C30
0C30
0C30
0670
03D0
0030
0030
0030
ENDCHAR
STARTCHAR 0266
ENCODING 614
SWIDTH 960 0
DWIDTH 16 0
BBX 16 16 0 -2
BITMAP
0000
03E0
0630
0C00
0C00
0C00
0DC0
0E60
0C30
0C30
0C30
0C30
0C30
0C30
0000
0000
ENDCHAR
STARTCHAR 0267
ENCODING 615
SWIDTH 960 0
DWIDTH 16 0
BBX 16 16 0 -2
BITMAP
0000
03E0
0630
0C00
0C00
0C00
0DC0
0E60
0C30
0C30
0C30
0C30
0C30
0C30
0360
01C0
ENDCHAR
STARTCHAR 0268
ENCODING 616
SWIDTH 960 0
DWIDTH 16 0
BBX 16 16 0 -2
BITMAP
0000
0000
03C0
03C0
0000
0000
0180
0180
0180
07E0
0180
0180
0180
0180
0000
0000
ENDCHAR
STARTCHAR 026C
ENCODING 620
SWIDTH 960 0
DWIDTH 16 0
BBX 16 16 0 -2
BITMAP
0000
0180
0180
0180
0180
0E80
1B80
1980
1980
0FFC
0180
0180
0180
0180
0000
0000
ENDCHAR
STARTCHAR 026D
ENCODING 621
SWIDTH 960 0
DWIDTH 16 0
BBX 16 16 0 -2
BITMAP
0000
0180
0180
0180
0180
0180
0180
0180
0180
0180
0180
0180
0180
0180
01B0
00E0
ENDCHAR
STARTCHAR 026E
ENCODING 622
SWIDTH 960 0
DWIDTH 16 0
BBX 16 16 0 -2
BITMAP
0000
0C00
0C00
0C00
0C00
0C00
0FF8
0C30
0CE0
0D80
0DE0
0C30
0C18
0018
0630
03E0
ENDCHAR
STARTCHAR 026F
ENCODING 623
SWIDTH 960 0
DWIDTH 16 0
BBX 16 16 0 -2
BITMAP
0000
0000
0000
0000
0000
0000
318C
318C
318C
318C
318C
318C
339C
1EF4
0000
0000
ENDCHAR
STARTCHAR 0270
ENCODING 624
SWIDTH 960 0
DWIDTH 16 0
BBX 16 16 0 -2
BITMAP
0000
0000
0000
0000
0000
0000
318C
318C
318C
318C
318C
318C
339C
1EF4
000C
000E
ENDCHAR
STARTCHAR 0271
ENCODING 625
SWIDTH 960 0
DWIDTH 16 0
BBX 16 16 0 -2
BITMAP
0000
0000
0000
0000
0000
0000
3778
39CC
318C
318C
318C
318C
318C
318C
0034
0038
ENDCHAR
STARTCHAR 0272
ENCODING 626
SWIDTH 960 0
DWIDTH 16 0
BBX 16 16 0 -2
BITMAP
0000
0000
0000
0000
0000
0000
06E0
0730
0618
0618
0618
0618
0618
0618
6C00
3800
ENDCHAR
STARTCHAR 0273
ENCODING 627
SWIDTH 960 0
DWIDTH 16 0
BBX 16 16 0 -2
BITMAP
0000
0000
0000
0000
0000
0000
1B80
1CC0
1860
1860
1860
1860
1860
1860
006C
0038
ENDCHAR
STARTCHAR 0275
ENCODING 629
SWIDTH 960 0
DWIDTH 16 0
BBX 16 16 0 -2
BITMAP
0000
0000
0000
0000
0000
0000
03E0
0630
0C18
0FF8
0C18
0C18
0630
03E0
0000
0000
ENDCHAR
STARTCHAR 0279
ENCODING 633
SWIDTH 960 0
DWIDTH 16 0
BBX 16 16 0 -2
BITMAP
0000
0000
0000
0000
0000
0000
00C0
00C0
00C0
00C0
00C0
00C0
1BC0
0EC0
0000
0000
ENDCHAR
STARTCHAR 027A
ENCODING 634
SWIDTH 960 0
DWIDTH 16 0
BBX 16 16 0 -2
BITMAP
0000
00C0
00C0
00C0
00C0
00C0
00C0
00C0
00C0
00C0
00C0
00C0
1BC0
0EC0
0000
0000
ENDCHAR
STARTCHAR 027B
ENCODING 635
SWIDTH 960 0
DWIDTH 16 0
BBX 16 16 0 -2
BITMAP
0000
0000
0000
0000
0000
0000
00C0
00C0
00C0
00C0
00C0
00C0
1BC0
0EC0
00D8
0070
ENDCHAR
STARTCHAR 027D
ENCODING 637
SWIDTH 960 0
DWIDTH 16 0
BBX 16 16 0 -2
BITMAP
0000
0000
0000
0000
0000
0000
06E0
07B0
0600
0600
0600
0600
0600
0600
06C0
0380
ENDCHAR
STARTCHAR 027E
ENCODING 638
SWIDTH 960 0
DWIDTH 16 0
BBX 16 16 0 -2
BITMAP
0000
0000
0000
0000
0000
0000
01C0
0360
0360
0300
0300
0300
0300
0FC0
0000
0000
ENDCHAR
STARTCHAR 0281
ENCODING 641
SWIDTH 960 0
DWIDTH 16 0
BBX 16 16 0 -2
BITMAP
0000
0000
0000
0000
0000
0C38
0C68
0CC0
0DC0
0E60
0C30
0C30
0E60
0DC0
0000
0000
ENDCHAR
STARTCHAR 0282
ENCODING 642
SWIDTH 960 0
DWIDTH 16 0
BBX 16 16 0 -2
BITMAP
0000
0000
0000
0000
0000
0000
03C0
0670
0600
0380
00E0
0030
0630
07E0
0600
03C0
ENDCHAR
STARTCHAR 0283
ENCODING 643
SWIDTH 960 0
DWIDTH 16 0
BBX 16 16 0 -2
BITMAP
00E0
01B0
0180
0180
0180
0180
0180
0180
0180
0180
0180
0180
0180
0180
0D80
0700
ENDCHAR
STARTCHAR 0284
ENCODING 644
SWIDTH 960 0
DWIDTH 16 0
BBX 16 16 0 -2
BITMAP
0000
0000
0000
00E0
01B0
0300
0300
0300
0300
0300
0300
1FE0
0300
0300
3600
1C00
ENDCHAR
STARTCHAR 0288
ENCODING 648
SWIDTH 960 0
DWIDTH 16 0
BBX 16 16 0 -2
BITMAP
0000
0000
0000
0180
0180
07E0
0180
0180
0180
0180
0180
0180
0180
0180
0180
00F0
ENDCHAR
STARTCHAR 0289
ENCODING 649
SWIDTH 960 0
DWIDTH 16 0
BBX 16 16 0 -2
BITMAP
0000
0000
0000
0000
0000
0000
0C30
0C30
0C30
3FFC
0C30
0C30
0660
03C0
0000
0000
ENDCHAR
STARTCHAR 028A
ENCODING 650
SWIDTH 960 0
DWIDTH 16 0
BBX 16 16 0 -2
BITMAP
0000
0000
0000
0000
0000
0000
3EF8
0C60
1830
1830
1830
1830
0C60
07C0
0000
0000
ENDCHAR
STARTCHAR 028B
ENCODING 651
SWIDTH 960 0
DWIDTH 16 0
BBX 16 16 0 -2
BITMAP
0000
0000
0000
0000
0000
0000
38F0
0C30
0C30
0C30
0C30
0C60
0660
03C0
0000
0000
ENDCHAR
STARTCHAR 028C
ENCODING 652
SWIDTH 960 0
DWIDTH 16 0
BBX 16 16 0 -2
BITMAP
0000
0000
0000
0000
0000
0000
0180
0180
0340
0340
0660
0660
0C30
0C30
0000
0000
ENDCHAR
STARTCHAR 028D
ENCODING 653
SWIDTH 960 0
DWIDTH 16 0
BBX 16 16 0 -2
BITMAP
0000
0000
0000
0000
0000
0000
0660
0660
0D50
0D50
0D50
1998
1998
1998
0000
0000
ENDCHAR
STARTCHAR 028E
ENCODING 654
SWIDTH 960 0
DWIDTH 16 0
BBX 16 16 0 -2
BITMAP
0000
0000
0000
0000
0070
00C0
0180
0180
0340
0340
0660
0660
0C30
0C30
0000
0000
ENDCHAR
STARTCHAR 0290
ENCODING 656
SWIDTH 960 0
DWIDTH 16 0
BBX 16 16 0 -2
BITMAP
0000
0000
0000
0000
0000
0000
1FF0
0060
00C0
0180
0300
0600
0C00
1FF0
0036
001C
ENDCHAR
STARTCHAR 0291
ENCODING 657
SWIDTH 960 0
DWIDTH 16 0
BBX 16 16 0 -2
BITMAP
0000
0000
0000
0000
0000
0000
0FE0
0060
00C0
0180
0360
06D0
0DB0
1FE0
0300
0600
ENDCHAR
STARTCHAR 0292
ENCODING 658
SWIDTH 960 0
DWIDTH 16 0
BBX 16 16 0 -2
BITMAP
0000
0000
0000
0000
0000
0000
1FE0
00C0
0180
0300
0FC0
0060
0030
0030
1860
0FC0
ENDCHAR
STARTCHAR 0294
ENCODING 660
SWIDTH 960 0
DWIDTH 16 0
BBX 16 16 0 -2
BITMAP
0000
07E0
0C30
1818
1818
1818
0070
01C0
0180
0180
0180
0180
0180
0180
0000
0000
ENDCHAR
STARTCHAR 0295
ENCODING 661
SWIDTH 960 0
DWIDTH 16 0
BBX 16 16 0 -2
BITMAP
0000
07E0
0C30
1818
1818
1818
0E00
0380
0180
0180
0180
0180
0180
0180
0000
0000
ENDCHAR
STARTCHAR 0298
ENCODING 664
SWIDTH 960 0
DWIDTH 16 0
BBX 16 16 0 -2
BITMAP
0000
0000
0000
0000
07C0
0C60
1830
3018
3398
3398
3018
1830
0C60
07C0
0000
0000
ENDCHAR
STARTCHAR 029D
ENCODING 669
SWIDTH 960 0
DWIDTH 16 0
BBX 16 16 0 -2
BITMAP
0000
0000
03C0
03C0
0000
0000
0180
0180
0180
0180
0180
0180
0180
07E0
0DB0
0700
ENDCHAR
STARTCHAR 02A1
ENCODING 673
SWIDTH 960 0
DWIDTH 16 0
BBX 16 16 0 -2
BITMAP
0000
07E0
0C30
1818
1818
1818
0070
01C0
0180
0FF0
0180
0180
0180
0180
0000
0000
ENDCHAR
STARTCHAR 02A2
ENCODING 674
SWIDTH 960 0
DWIDTH 16 0
BBX 16 16 0 -2
BITMAP
0000
07E0
0C30
1818
1818
1818
0E00
0380
0180
0FF0
0180
0180
0180
0180
0000
0000
ENDCHAR
STARTCHAR 02C7
ENCODING 711
SWIDTH 960 0
DWIDTH 16 0
BBX 16 16 0 -2
BITMAP
0C30
0660
0340
0180
0000
0000
0000
0000
0000
0000
0000
0000
0000
0000
0000
0000
ENDCHAR
STARTCHAR 02C8
ENCODING 712
SWIDTH 960 0
DWIDTH 16 0
BBX 16 16 0 -2
BITMAP
0180
0180
0180
0180
0180
0000
0000
0000
0000
0000
0000
0000
0000
0000
0000
0000
ENDCHAR
STARTCHAR 02CC
ENCODING 716
SWIDTH 960 0
DWIDTH 16 0
BBX 16 16 0 -2
BITMAP
0000
0000
0000
0000
0000
0000
0000
0000
0000
0000
0000
0180
0180
0180
0180
0180
ENDCHAR
STARTCHAR 02D0
ENCODING 720
SWIDTH 960 0
DWIDTH 16 0
BBX 16 16 0 -2
BITMAP
0000
0000
0000
0000
0000
07E0
03C0
0180
0180
0000
0180
0180
03C0
07E0
0000
0000
ENDCHAR
STARTCHAR 02D1
ENCODING 721
SWIDTH 960 0
DWIDTH 16 0
BBX 16 16 0 -2
BITMAP
0000
0000
0000
0000
0000
07E0
03C0
0180
0180
0000
0000
0000
0000
0000
0000
0000
ENDCHAR
STARTCHAR 02D8
ENCODING 728
SWIDTH 960 0
DWIDTH 16 0
BBX 16 16 0 -2
BITMAP
0C30
0C30
0660
03C0
0000
0000
0000
0000
0000
0000
0000
0000
0000
0000
0000
0000
ENDCHAR
STARTCHAR 02D9
ENCODING 729
SWIDTH 960 0
DWIDTH 16 0
BBX 16 16 0 -2
BITMAP
0000
0380
0380
0000
0000
0000
0000
0000
0000
0000
0000
0000
0000
0000
0000
0000
ENDCHAR
STARTCHAR 02DB
ENCODING 731
SWIDTH 960 0
DWIDTH 16 0
BBX 16 16 0 -2
BITMAP
0000
0000
0000
0000
0000
0000
0000
0000
0000
0000
0060
00C0
00C0
0070
0070
0000
ENDCHAR
STARTCHAR 02DD
ENCODING 733
SWIDTH 960 0
DWIDTH 16 0
BBX 16 16 0 -2
BITMAP
03B0
0360
06C0
0000
0000
0000
0000
0000
0000
0000
0000
0000
0000
0000
0000
0000
ENDCHAR
STARTCHAR 02DE
ENCODING 734
SWIDTH 960 0
DWIDTH 16 0
BBX 16 16 0 -2
BITMAP
0000
0000
0000
0000
0000
0300
0680
00C0
00D8
00D0
00E0
0000
0000
0000
0000
0000
ENDCHAR
STARTCHAR 02E5
ENCODING 741
SWIDTH 960 0
DWIDTH 16 0
BBX 16 16 0 -2
BITMAP
FF80
0180
0180
0180
0180
0180
0180
0180
0180
0180
0180
0180
0180
0180
0180
0180
ENDCHAR
STARTCHAR 02E6
ENCODING 742
SWIDTH 960 0
DWIDTH 16 0
BBX 16 16 0 -2
BITMAP
0180
0180
0180
0180
FF80
0180
0180
0180
0180
0180
0180
0180
0180
0180
0180
0180
ENDCHAR
STARTCHAR 02E7
ENCODING 743
SWIDTH 960 0
DWIDTH 16 0
BBX 16 16 0 -2
BITMAP
0180
0180
0180
0180
0180
0180
0180
0180
FF80
0180
0180
0180
0180
0180
0180
0180
ENDCHAR
STARTCHAR 02E8
ENCODING 744
SWIDTH 960 0
DWIDTH 16 0
BBX 16 16 0 -2
BITMAP
0180
0180
0180
0180
0180
0180
0180
0180
0180
0180
0180
FF80
0180
0180
0180
0180
ENDCHAR
STARTCHAR 02E9
ENCODING 745
SWIDTH 960 0
DWIDTH 16 0
BBX 16 16 0 -2
BITMAP
0180
0180
0180
0180
0180
0180
0180
0180
0180
0180
0180
0180
0180
0180
0180
FF80
ENDCHAR
STARTCHAR 0300
ENCODING 768
SWIDTH 960 0
DWIDTH 16 0
BBX 16 16 0 -2
BITMAP
0700
0300
0180
00C0
0000
0000
0000
0000
0000
0000
0000
0000
0000
0000
0000
0000
ENDCHAR
STARTCHAR 0301
ENCODING 769
SWIDTH 960 0
DWIDTH 16 0
BBX 16 16 0 -2
BITMAP
00E0
00C0
0180
0300
0000
0000
0000
0000
0000
0000
0000
0000
0000
0000
0000
0000
ENDCHAR
STARTCHAR 0302
ENCODING 770
SWIDTH 960 0
DWIDTH 16 0
BBX 16 16 0 -2
BITMAP
0180
0340
0660
0C30
0000
0000
0000
0000
0000
0000
0000
0000
0000
0000
0000
0000
ENDCHAR
STARTCHAR 0303
ENCODING 771
SWIDTH 960 0
DWIDTH 16 0
BBX 16 16 0 -2
BITMAP
0730
0DB0
0CE0
0000
0000
0000
0000
0000
0000
0000
0000
0000
0000
0000
0000
0000
ENDCHAR
STARTCHAR 0304
ENCODING 772
SWIDTH 960 0
DWIDTH 16 0
BBX 16 16 0 -2
BITMAP
0000
0FE0
0000
0000
0000
0000
0000
0000
0000
0000
0000
0000
0000
0000
0000
0000
ENDCHAR
STARTCHAR 0306
ENCODING 774
SWIDTH 960 0
DWIDTH 16 0
BBX 16 16 0 -2
BITMAP
0C30
0C30
0660
03C0
0000
0000
0000
0000
0000
0000
0000
0000
0000
0000
0000
0000
ENDCHAR
STARTCHAR 0308
ENCODING 776
SWIDTH 960 0
DWIDTH 16 0
BBX 16 16 0 -2
BITMAP
0000
0EE0
0EE0
0000
0000
0000
0000
0000
0000
0000
0000
0000
0000
0000
0000
0000
ENDCHAR
STARTCHAR 030B
ENCODING 779
SWIDTH 960 0
DWIDTH 16 0
BBX 16 16 0 -2
BITMAP
0760
06C0
0D80
1B00
0000
0000
0000
0000
0000
0000
0000
0000
0000
0000
0000
0000
ENDCHAR
STARTCHAR 030C
ENCODING 780
SWIDTH 960 0
DWIDTH 16 0
BBX 16 16 0 -2
BITMAP
0C30
0660
0340
0180
0000
0000
0000
0000
0000
0000
0000
0000
0000
0000
0000
0000
ENDCHAR
STARTCHAR 030F
ENCODING 783
SWIDTH 960 0
DWIDTH 16 0
BBX 16 16 0 -2
BITMAP
0EC0
06C0
0360
01B0
0000
0000
0000
0000
0000
0000
0000
0000
0000
0000
0000
0000
ENDCHAR
STARTCHAR 0318
ENCODING 792
SWIDTH 960 0
DWIDTH 16 0
BBX 16 16 0 -2
BITMAP
0000
0000
0000
0000
0000
0000
0000
0000
0000
0000
0180
0180
0F80
0180
0180
0000
ENDCHAR
STARTCHAR 0319
ENCODING 793
SWIDTH 960 0
DWIDTH 16 0
BBX 16 16 0 -2
BITMAP
0000
0000
0000
0000
0000
0000
0000
0000
0000
0000
0180
0180
01F0
0180
0180
0000
ENDCHAR
STARTCHAR 031A
ENCODING 794
SWIDTH 960 0
DWIDTH 16 0
BBX 16 16 0 -2
BITMAP
0000
00F8
0018
0018
0018
0000
0000
0000
0000
0000
0000
0000
0000
0000
0000
0000
ENDCHAR
STARTCHAR 031C
ENCODING 796
SWIDTH 960 0
DWIDTH 16 0
BBX 16 16 0 -2
BITMAP
0000
0000
0000
0000
0000
0000
0000
0000
0000
0000
0000
0000
03C0
0600
0600
03C0
ENDCHAR
STARTCHAR 031D
ENCODING 797
SWIDTH 960 0
DWIDTH 16 0
BBX 16 16 0 -2
BITMAP
0000
0000
0000
0000
0000
0000
0000
0000
0000
0000
0000
0180
0180
0180
0FF0
0000
ENDCHAR
STARTCHAR 031E
ENCODING 798
SWIDTH 960 0
DWIDTH 16 0
BBX 16 16 0 -2
BITMAP
0000
0000
0000
0000
0000
0000
0000
0000
0000
0000
0000
0FF0
0180
0180
0180
0000
ENDCHAR
STARTCHAR 031F
ENCODING 799
SWIDTH 960 0
DWIDTH 16 0
BBX 16 16 0 -2
BITMAP
0000
0000
0000
0000
0000
0000
0000
0000
0000
0000
0000
0300
0300
1FE0
0300
0300
ENDCHAR
STARTCHAR 0320
ENCODING 800
SWIDTH 960 0
DWIDTH 16 0
BBX 16 16 0 -2
BITMAP
0000
0000
0000
0000
0000
0000
0000
0000
0000
0000
0000
0000
0000
1FE0
0000
0000
ENDCHAR
STARTCHAR 0324
ENCODING 804
SWIDTH 960 0
DWIDTH 16 0
BBX 16 16 0 -2
BITMAP
0000
0000
0000
0000
0000
0000
0000
0000
0000
0000
0000
0000
0000
0EE0
0EE0
0000
ENDCHAR
STARTCHAR 0325
ENCODING 805
SWIDTH 960 0
DWIDTH 16 0
BBX 16 16 0 -2
BITMAP
0000
0000
0000
0000
0000
0000
0000
0000
0000
0000
0000
0000
0380
06C0
06C0
0380
ENDCHAR
STARTCHAR 0329
ENCODING 809
SWIDTH 960 0
DWIDTH 16 0
BBX 16 16 0 -2
BITMAP
0000
0000
0000
0000
0000
0000
0000
0000
0000
0000
0000
0000
0300
0300
0300
0300
ENDCHAR
STARTCHAR 032A
ENCODING 810
SWIDTH 960 0
DWIDTH 16 0
BBX 16 16 0 -2
BITMAP
0000
0000
0000
0000
0000
0000
0000
0000
0000
0000
0000
0000
1FF0
1830
1830
0000
ENDCHAR
STARTCHAR 032C
ENCODING 812
SWIDTH 960 0
DWIDTH 16 0
BBX 16 16 0 -2
BITMAP
0000
0000
0000
0000
0000
0000
0000
0000
0000
0000
0000
0000
0C30
0660
0340
0180
ENDCHAR
STARTCHAR 032F
ENCODING 815
SWIDTH 960 0
DWIDTH 16 0
BBX 16 16 0 -2
BITMAP
0000
0000
0000
0000
0000
0000
0000
0000
0000
0000
0000
0000
03C0
0660
0C30
0C30
ENDCHAR
STARTCHAR 0330
ENCODING 816
SWIDTH 960 0
DWIDTH 16 0
BBX 16 16 0 -2
BITMAP
0000
0000
0000
0000
0000
0000
0000
0000
0000
0000
0000
0000
0000
0730
0DB0
0CE0
ENDCHAR
STARTCHAR 0334
ENCODING 820
SWIDTH 960 0
DWIDTH 16 0
BBX 16 16 0 -2
BITMAP
0000
0000
0000
0000
0000
0000
0000
0E60
1B60
19C0
0000
0000
0000
0000
0000
0000
ENDCHAR
STARTCHAR 0339
ENCODING 825
SWIDTH 960 0
DWIDTH 16 0
BBX 16 16 0 -2
BITMAP
0000
0000
0000
0000
0000
0000
0000
0000
0000
0000
0000
0000
03C0
0060
0060
03C0
ENDCHAR
STARTCHAR 033A
ENCODING 826
SWIDTH 960 0
DWIDTH 16 0
BBX 16 16 0 -2
BITMAP
0000
0000
0000
0000
0000
0000
0000
0000
0000
0000
0000
0000
1830
1830
1FF0
0000
ENDCHAR
STARTCHAR 033B
ENCODING 827
SWIDTH 960 0
DWIDTH 16 0
BBX 16 16 0 -2
BITMAP
0000
0000
0000
0000
0000
0000
0000
0000
0000
0000
0000
1FF0
1830
1830
1FF0
0000
ENDCHAR
STARTCHAR 033C
ENCODING 828
SWIDTH 960 0
DWIDTH 16 0
BBX 16 16 0 -2
BITMAP
0000
0000
0000
0000
0000
0000
0000
0000
0000
0000
0000
0000
0000
0EE0
1BB0
1830
ENDCHAR
STARTCHAR 033D
ENCODING 829
SWIDTH 960 0
DWIDTH 16 0
BBX 16 16 0 -2
BITMAP
0C60
06C0
0380
06C0
0C60
0000
0000
0000
0000
0000
0000
0000
0000
0000
0000
0000
ENDCHAR
STARTCHAR 0361
ENCODING 865
SWIDTH 960 0
DWIDTH 16 0
BBX 16 16 0 -2
BITMAP
0000
0FE0
3838
600C
0000
0000
0000
0000
0000
0000
0000
0000
0000
0000
0000
0000
ENDCHAR
STARTCHAR 0391
ENCODING 913
SWIDTH 960 0
DWIDTH 16 0
BBX 16 16 0 -2
BITMAP
0000
0180
0180
0340
0340
0660
0660
0C30
0C30
1FF8
1818
300C
300C
6006
0000
0000
ENDCHAR
STARTCHAR 0392
ENCODING 914
SWIDTH 960 0
DWIDTH 16 0
BBX 16 16 0 -2
BITMAP
0000
1FE0
1830
1818
1818
1818
1830
1FE0
1838
180C
180C
180C
1818
1FF0
0000
0000
ENDCHAR
STARTCHAR 0393
ENCODING 915
SWIDTH 960 0
DWIDTH 16 0
BBX 16 16 0 -2
BITMAP
0000
1FF8
1800
1800
1800
1800
1800
1800
1800
1800
1800
1800
1800
1800
0000
0000
ENDCHAR
STARTCHAR 0394
ENCODING 916
SWIDTH 960 0
DWIDTH 16 0
BBX 16 16 0 -2
BITMAP
0000
0180
0340
0340
0660
0660
0C30
0C30
1818
1818
300C
300C
6006
7FFE
0000
0000
ENDCHAR
STARTCHAR 0395
ENCODING 917
SWIDTH 960 0
DWIDTH 16 0
BBX 16 16 0 -2
BITMAP
0000
1FF8
1800
1800
1800
1800
1800
1FE0
1800
1800
1800
1800
1800
1FF8
0000
0000
ENDCHAR
STARTCHAR 0396
ENCODING 918
SWIDTH 960 0
DWIDTH 16 0
BBX 16 16 0 -2
BITMAP
0000
1FF0
0060
00C0
00C0
0180
0180
0300
0300
0600
0600
0C00
0C00
1FF8
0000
0000
ENDCHAR
STARTCHAR 0397
ENCODING 919
SWIDTH 960 0
DWIDTH 16 0
BBX 16 16 0 -2
BITMAP
0000
3018
3018
3018
3018
3018
3018
3FF8
3018
3018
3018
3018
3018
3018
0000
0000
ENDCHAR
STARTCHAR 0398
ENCODING 920
SWIDTH 960 0
DWIDTH 16 0
BBX 16 16 0 -2
BITMAP
0000
07C0
1C70
3018
3018
600C
600C
6FEC
600C
600C
3018
3018
1C70
07C0
0000
0000
ENDCHAR
STARTCHAR 0399
ENCODING 921
SWIDTH 960 0
DWIDTH 16 0
BBX 16 16 0 -2
BITMAP
0000
0300
0300
0300
0300
0300
0300
0300
0300
0300
0300
0300
0300
0300
0000
0000
ENDCHAR
STARTCHAR 039A
ENCODING 922
SWIDTH 960 0
DWIDTH 16 0
BBX 16 16 0 -2
BITMAP
0000
1830
1860
18C0
1980
1B00
1A00
1E00
1B00
1980
18C0
1860
1830
1818
0000
0000
ENDCHAR
STARTCHAR 039B
ENCODING 923
SWIDTH 960 0
DWIDTH 16 0
BBX 16 16 0 -2
BITMAP
0000
0180
0180
0340
0340
0660
0660
0C30
0C30
1818
1818
300C
300C
6006
0000
0000
ENDCHAR
STARTCHAR 039C
ENCODING 924
SWIDTH 960 0
DWIDTH 16 0
BBX 16 16 0 -2
BITMAP
0000
381C
381C
381C
3434
3434
3434
366C
366C
366C
334C
334C
318C
318C
0000
0000
ENDCHAR
STARTCHAR 039D
ENCODING 925
SWIDTH 960 0
DWIDTH 16 0
BBX 16 16 0 -2
BITMAP
0000
3018
3818
3418
3618
3618
3318
3198
3198
30D8
3068
3068
3038
3018
0000
0000
ENDCHAR
STARTCHAR 039E
ENCODING 926
SWIDTH 960 0
DWIDTH 16 0
BBX 16 16 0 -2
BITMAP
0000
7FFC
0000
0000
0000
0000
0000
3FF8
0000
0000
0000
0000
0000
7FFC
0000
0000
ENDCHAR
STARTCHAR 039F
ENCODING 927
SWIDTH 960 0
DWIDTH 16 0
BBX 16 16 0 -2
BITMAP
0000
07C0
1C70
3018
3018
600C
600C
600C
600C
600C
3018
3018
1C70
07C0
0000
0000
ENDCHAR
STARTCHAR 03A0
ENCODING 928
SWIDTH 960 0
DWIDTH 16 0
BBX 16 16 0 -2
BITMAP
0000
7FFC
1830
1830
1830
1830
1830
1830
1830
1830
1830
1830
1830
1830
0000
0000
ENDCHAR
STARTCHAR 03A1
ENCODING 929
SWIDTH 960 0
DWIDTH 16 0
BBX 16 16 0 -2
BITMAP
0000
1FE0
1830
1818
1818
1818
1830
1FE0
1800
1800
1800
1800
1800
1800
0000
0000
ENDCHAR
STARTCHAR 03A3
ENCODING 931
SWIDTH 960 0
DWIDTH 16 0
BBX 16 16 0 -2
BITMAP
0000
7FF8
3000
1800
0C00
0600
0300
0180
0300
0600
0C00
1800
3000
7FF8
0000
0000
ENDCHAR
STARTCHAR 03A4
ENCODING 932
SWIDTH 960 0
DWIDTH 16 0
BBX 16 16 0 -2
BITMAP
0000
7FFE
0180
0180
0180
0180
0180
0180
0180
0180
0180
0180
0180
0180
0000
0000
ENDCHAR
STARTCHAR 03A5
ENCODING 933
SWIDTH 960 0
DWIDTH 16 0
BBX 16 16 0 -2
BITMAP
0000
1E78
334C
6186
0180
0180
0180
0180
0180
0180
0180
0180
0180
0180
0000
0000
ENDCHAR
STARTCHAR 03A6
ENCODING 934
SWIDTH 960 0
DWIDTH 16 0
BBX 16 16 0 -2
BITMAP
0000
0180
0180
07E0
1DB8
318C
6186
6186
6186
318C
1DB8
07E0
0180
0180
0000
0000
ENDCHAR
STARTCHAR 03A7
ENCODING 935
SWIDTH 960 0
DWIDTH 16 0
BBX 16 16 0 -2
BITMAP
0000
300C
1818
0C30
0660
0660
0340
0180
0340
0660
0660
0C30
1818
300C
0000
0000
ENDCHAR
STARTCHAR 03A8
ENCODING 936
SWIDTH 960 0
DWIDTH 16 0
BBX 16 16 0 -2
BITMAP
0000
0180
718E
D99B
1998
1998
1998
1998
0DB0
0DB0
07E0
0180
0180
0180
0000
0000
ENDCHAR
STARTCHAR 03A9
ENCODING 937
SWIDTH 960 0
DWIDTH 16 0
BBX 16 16 0 -2
BITMAP
0000
07C0
1C70
3018
3018
600C
600C
600C
3018
3018
1C70
06C0
06C0
7EFC
0000
0000
ENDCHAR
STARTCHAR 03B1
ENCODING 945
SWIDTH 960 0
DWIDTH 16 0
BBX 16 16 0 -2
BITMAP
0000
0000
0000
0000
0000
0000
0798
0CD8
18D0
18E0
30C0
31C0
3358
1E70
0000
0000
ENDCHAR
STARTCHAR 03B2
ENCODING 946
SWIDTH 960 0
DWIDTH 16 0
BBX 16 16 0 -2
BITMAP
0000
00F8
018C
030C
030C
060C
0618
06F0
0C30
0C18
0C18
0C18
1B30
19E0
1800
1800
ENDCHAR
STARTCHAR 03B3
ENCODING 947
SWIDTH 960 0
DWIDTH 16 0
BBX 16 16 0 -2
BITMAP
0000
0000
0000
0000
0000
0000
1E38
3360
0340
0380
0380
0300
0600
0600
0C00
0C00
ENDCHAR
STARTCHAR 03B4
ENCODING 948
SWIDTH 960 0
DWIDTH 16 0
BBX 16 16 0 -2
BITMAP
0000
0780
0CE0
0630
0318
0180
0740
0C60
1860
3060
3060
30C0
1980
0F00
0000
0000
ENDCHAR
STARTCHAR 03B5
ENCODING 949
SWIDTH 960 0
DWIDTH 16 0
BBX 16 16 0 -2
BITMAP
0000
0000
0000
0000
0000
0000
07E0
0C30
0C00
07C0
0C00
1800
1860
0FC0
0000
0000
ENDCHAR
STARTCHAR 03B6
ENCODING 950
SWIDTH 960 0
DWIDTH 16 0
BBX 16 16 0 -2
BITMAP
0600
0C18
0C30
07A0
00C0
0180
0300
0600
0C00
0C00
0C00
07C0
0060
0060
03C0
0000
ENDCHAR
STARTCHAR 03B7
ENCODING 951
SWIDTH 960 0
DWIDTH 16 0
BBX 16 16 0 -2
BITMAP
0000
0000
0000
0000
0000
0000
1DE0
3730
0618
0618
0C18
0C30
1830
1830
0060
0060
ENDCHAR
STARTCHAR 03B8
ENCODING 952
SWIDTH 960 0
DWIDTH 16 0
BBX 16 16 0 -2
BITMAP
0000
01E0
0730
0C18
1818
1818
3FF8
3018
3018
3030
3030
3060
19C0
0F00
0000
0000
ENDCHAR
STARTCHAR 03B9
ENCODING 953
SWIDTH 960 0
DWIDTH 16 0
BBX 16 16 0 -2
BITMAP
0000
0000
0000
0000
0000
0000
0600
0600
0C00
0C00
1800
1830
18E0
0F80
0000
0000
ENDCHAR
STARTCHAR 03BA
ENCODING 954
SWIDTH 960 0
DWIDTH 16 0
BBX 16 16 0 -2
BITMAP
0000
0000
0000
0000
0000
0000
0C70
0CD8
0D80
1E00
1B00
3300
3330
61E0
0000
0000
ENDCHAR
STARTCHAR 03BB
ENCODING 955
SWIDTH 960 0
DWIDTH 16 0
BBX 16 16 0 -2
BITMAP
0000
0380
00C0
00C0
00C0
00C0
00C0
01C0
0340
06C0
06C0
0C60
0C60
3838
0000
0000
ENDCHAR
STARTCHAR 03BC
ENCODING 956
SWIDTH 960 0
DWIDTH 16 0
BBX 16 16 0 -2
BITMAP
0000
0000
0000
0000
0000
0000
0C60
0C60
0C60
18C0
18C0
18C0
19D8
3770
3000
6000
ENDCHAR
STARTCHAR 03BD
ENCODING 957
SWIDTH 960 0
DWIDTH 16 0
BBX 16 16 0 -2
BITMAP
0000
0000
0000
0000
0000
0000
3818
0C18
0C30
0C30
1860
18C0
1B80
3E00
0000
0000
ENDCHAR
STARTCHAR 03BE
ENCODING 958
SWIDTH 960 0
DWIDTH 16 0
BBX 16 16 0 -2
BITMAP
0000
01F0
0300
0180
07F0
0C00
0C00
0600
1FF0
3000
3000
1E00
03C0
0060
0060
1FC0
ENDCHAR
STARTCHAR 03BF
ENCODING 959
SWIDTH 960 0
DWIDTH 16 0
BBX 16 16 0 -2
BITMAP
0000
0000
0000
0000
0000
0000
03C0
0E60
1830
1830
1830
1830
0CE0
0780
0000
0000
ENDCHAR
STARTCHAR 03C0
ENCODING 960
SWIDTH 960 0
DWIDTH 16 0
BBX 16 16 0 -2
BITMAP
0000
0000
0000
0000
0000
0018
1FF0
36C0
06C0
06C0
0D80
0D80
0DB0
38E0
0000
0000
ENDCHAR
STARTCHAR 03C1
ENCODING 961
SWIDTH 960 0
DWIDTH 16 0
BBX 16 16 0 -2
BITMAP
0000
0000
0000
0000
0000
0000
01E0
0330
0618
0618
0C18
0C18
0D30
19E0
1800
1800
ENDCHAR
STARTCHAR 03C2
ENCODING 962
SWIDTH 960 0
DWIDTH 16 0
BBX 16 16 0 -2
BITMAP
0000
0000
0000
0000
0000
03E0
0630
0C18
0C18
0C18
0630
0300
0300
0180
1D80
0700
ENDCHAR
STARTCHAR 03C3
ENCODING 963
SWIDTH 960 0
DWIDTH 16 0
BBX 16 16 0 -2
BITMAP
0000
0000
0000
0000
0000
0018
03F8
0E60
1830
1830
1830
1830
0CE0
0780
0000
0000
ENDCHAR
STARTCHAR 03C4
ENCODING 964
SWIDTH 960 0
DWIDTH 16 0
BBX 16 16 0 -2
BITMAP
0000
0000
0000
0000
0000
0018
1FF0
3300
0300
0600
0600
0C60
0CC0
0780
0000
0000
ENDCHAR
STARTCHAR 03C5
ENCODING 965
SWIDTH 960 0
DWIDTH 16 0
BBX 16 16 0 -2
BITMAP
0000
0000
0000
0000
0000
0000
0C70
0C30
0C30
0C30
1860
1860
19C0
0F00
0000
0000
ENDCHAR
STARTCHAR 03C6
ENCODING 966
SWIDTH 960 0
DWIDTH 16 0
BBX 16 16 0 -2
BITMAP
0000
0060
0060
0060
00C0
00C0
07E0
1DB0
3198
3198
3318
1B70
0FC0
0600
0600
0C00
ENDCHAR
STARTCHAR 03C7
ENCODING 967
SWIDTH 960 0
DWIDTH 16 0
BBX 16 16 0 -2
BITMAP
0000
0000
0000
0000
0000
0000
0E18
1B30
0360
0340
0380
0300
0700
0D00
19B0
30E0
ENDCHAR
STARTCHAR 03C8
ENCODING 968
SWIDTH 960 0
DWIDTH 16 0
BBX 16 16 0 -2
BITMAP
0000
0060
0060
0060
00C0
00C0
1CD8
3598
0D98
19B0
1B30
1B60
0FC0
0600
0600
0C00
ENDCHAR
STARTCHAR 03C9
ENCODING 969
SWIDTH 960 0
DWIDTH 16 0
BBX 16 16 0 -2
BITMAP
0000
0000
0000
0000
0000
0000
0C18
198C
318C
318C
630C
630C
6718
3DF0
0000
0000
ENDCHAR
STARTCHAR 0401
ENCODING 1025
SWIDTH 960 0
DWIDTH 16 0
BBX 16 16 0 -2
BITMAP
1C70
1C70
0000
1FF8
1800
1800
1800
1800
1FC0
1800
1800
1800
1800
1FF8
0000
0000
ENDCHAR
STARTCHAR 0410
ENCODING 1040
SWIDTH 960 0
DWIDTH 16 0
BBX 16 16 0 -2
BITMAP
0000
0000
0180
0340
0340
0660
0660
0C30
0C30
1FF8
1818
300C
300C
6006
0000
0000
ENDCHAR
STARTCHAR 0411
ENCODING 1041
SWIDTH 960 0
DWIDTH 16 0
BBX 16 16 0 -2
BITMAP
0000
1FF8
1800
1800
1800
1800
1800
1FF0
1818
180C
180C
180C
1818
1FF0
0000
0000
ENDCHAR
STARTCHAR 0412
ENCODING 1042
SWIDTH 960 0
DWIDTH 16 0
BBX 16 16 0 -2
BITMAP
0000
1FE0
1830
1818
1818
1818
1830
1FE0
1838
180C
180C
180C
1818
1FF0
0000
0000
ENDCHAR
STARTCHAR 0413
ENCODING 1043
SWIDTH 960 0
DWIDTH 16 0
BBX 16 16 0 -2
BITMAP
0000
1FF8
1800
1800
1800
1800
1800
1800
1800
1800
1800
1800
1800
1800
0000
0000
ENDCHAR
STARTCHAR 0414
ENCODING 1044
SWIDTH 960 0
DWIDTH 16 0
BBX 16 16 0 -2
BITMAP
0000
07F0
0630
0630
0630
0630
0630
0630
0630
0630
0C30
0C30
1830
7FFC
600C
600C
ENDCHAR
STARTCHAR 0415
ENCODING 1045
SWIDTH 960 0
DWIDTH 16 0
BBX 16 16 0 -2
BITMAP
0000
1FF8
1800
1800
1800
1800
1FC0
1800
1800
1800
1800
1800
1800
1FF8
0000
0000
ENDCHAR
STARTCHAR 0416
ENCODING 1046
SWIDTH 960 0
DWIDTH 16 0
BBX 16 16 0 -2
BITMAP
0000
718E
D99B
1998
1998
1998
0DB0
0FF0
1998
318C
318C
6186
6186
6186
0000
0000
ENDCHAR
STARTCHAR 0417
ENCODING 1047
SWIDTH 960 0
DWIDTH 16 0
BBX 16 16 0 -2
BITMAP
0000
0FC0
1870
3018
0018
0018
0030
07E0
0030
0018
0018
3018
1870
0FC0
0000
0000
ENDCHAR
STARTCHAR 0418
ENCODING 1048
SWIDTH 960 0
DWIDTH 16 0
BBX 16 16 0 -2
BITMAP
0000
3018
3018
3038
3068
30D8
3198
3318
3618
3418
3818
3818
3018
3018
0000
0000
ENDCHAR
STARTCHAR 0419
ENCODING 1049
SWIDTH 960 0
DWIDTH 16 0
BBX 16 16 0 -2
BITMAP
1830
0C60
07C0
3018
3038
3068
30D8
3198
3318
3618
3418
3818
3018
3018
0000
0000
ENDCHAR
STARTCHAR 041A
ENCODING 1050
SWIDTH 960 0
DWIDTH 16 0
BBX 16 16 0 -2
BITMAP
0000
1838
186C
18C0
18C0
1980
1B00
1E00
1B00
1980
18C0
1860
1838
180E
0000
0000
ENDCHAR
STARTCHAR 041B
ENCODING 1051
SWIDTH 960 0
DWIDTH 16 0
BBX 16 16 0 -2
BITMAP
0000
07FC
060C
060C
060C
060C
060C
060C
060C
0C0C
0C0C
180C
180C
300C
0000
0000
ENDCHAR
STARTCHAR 041C
ENCODING 1052
SWIDTH 960 0
DWIDTH 16 0
BBX 16 16 0 -2
BITMAP
0000
381C
381C
381C
3434
3434
3434
366C
366C
366C
334C
334C
318C
318C
0000
0000
ENDCHAR
STARTCHAR 041D
ENCODING 1053
SWIDTH 960 0
DWIDTH 16 0
BBX 16 16 0 -2
BITMAP
0000
3018
3018
3018
3018
3018
3FF8
3018
3018
3018
3018
3018
3018
3018
0000
0000
ENDCHAR
STARTCHAR 041E
ENCODING 1054
SWIDTH 960 0
DWIDTH 16 0
BBX 16 16 0 -2
BITMAP
0000
07C0
1C70
3018
3018
600C
600C
600C
600C
600C
3018
3018
1C70
07C0
0000
0000
ENDCHAR
STARTCHAR 041F
ENCODING 1055
SWIDTH 960 0
DWIDTH 16 0
BBX 16 16 0 -2
BITMAP
0000
3FF8
3018
3018
3018
3018
3018
3018
3018
3018
3018
3018
3018
3018
0000
0000
ENDCHAR
STARTCHAR 0420
ENCODING 1056
SWIDTH 960 0
DWIDTH 16 0
BBX 16 16 0 -2
BITMAP
0000
1FE0
1830
1818
1818
1818
1830
1FE0
1800
1800
1800
1800
1800
1800
0000
0000
ENDCHAR
STARTCHAR 0421
ENCODING 1057
SWIDTH 960 0
DWIDTH 16 0
BBX 16 16 0 -2
BITMAP
0000
03F0
0E18
180C
1800
3000
3000
3000
3000
3000
180C
180C
0E1C
03F0
0000
0000
ENDCHAR
STARTCHAR 0422
ENCODING 1058
SWIDTH 960 0
DWIDTH 16 0
BBX 16 16 0 -2
BITMAP
0000
7FFE
0180
0180
0180
0180
0180
0180
0180
0180
0180
0180
0180
0180
0000
0000
ENDCHAR
STARTCHAR 0423
ENCODING 1059
SWIDTH 960 0
DWIDTH 16 0
BBX 16 16 0 -2
BITMAP
0000
300C
1818
1818
0C30
0C30
0660
0660
0340
0340
0180
0180
3700
3C00
0000
0000
ENDCHAR
STARTCHAR 0424
ENCODING 1060
SWIDTH 960 0
DWIDTH 16 0
BBX 16 16 0 -2
BITMAP
0000
0180
0180
07E0
1DB8
318C
6186
6186
6186
318C
1DB8
07E0
0180
0180
0000
0000
ENDCHAR
STARTCHAR 0425
ENCODING 1061
SWIDTH 960 0
DWIDTH 16 0
BBX 16 16 0 -2
BITMAP
0000
300C
1818
0C30
0660
0660
0340
0180
0340
0660
0660
0C30
1818
300C
0000
0000
ENDCHAR
STARTCHAR 0426
ENCODING 1062
SWIDTH 960 0
DWIDTH 16 0
BBX 16 16 0 -2
BITMAP
0000
6030
6030
6030
6030
6030
6030
6030
6030
6030
6030
6030
6030
7FFC
000C
000C
ENDCHAR
STARTCHAR 0427
ENCODING 1063
SWIDTH 960 0
DWIDTH 16 0
BBX 16 16 0 -2
BITMAP
0000
1818
1818
1818
1818
1818
1818
0C38
07E8
0018
0018
0018
0018
0018
0000
0000
ENDCHAR
STARTCHAR 0428
ENCODING 1064
SWIDTH 960 0
DWIDTH 16 0
BBX 16 16 0 -2
BITMAP
0000
6186
6186
6186
6186
6186
6186
6186
6186
6186
6186
6186
6186
7FFE
0000
0000
ENDCHAR
STARTCHAR 0429
ENCODING 1065
SWIDTH 960 0
DWIDTH 16 0
BBX 16 16 0 -2
BITMAP
0000
6186
6186
6186
6186
6186
6186
6186
6186
6186
6186
6186
6186
7FFF
0003
0003
ENDCHAR
STARTCHAR 042A
ENCODING 1066
SWIDTH 960 0
DWIDTH 16 0
BBX 16 16 0 -2
BITMAP
0000
FE00
0600
0600
0600
0600
07F8
060C
0606
0606
0606
0606
060C
07F8
0000
0000
ENDCHAR
STARTCHAR 042B
ENCODING 1067
SWIDTH 960 0
DWIDTH 16 0
BBX 16 16 0 -2
BITMAP
0000
300C
300C
300C
300C
300C
3F8C
30CC
306C
306C
306C
306C
30CC
3F8C
0000
0000
ENDCHAR
STARTCHAR 042C
ENCODING 1068
SWIDTH 960 0
DWIDTH 16 0
BBX 16 16 0 -2
BITMAP
0000
1800
1800
1800
1800
1800
1FE0
1830
1818
1818
1818
1818
1830
1FE0
0000
0000
ENDCHAR
STARTCHAR 042D
ENCODING 1069
SWIDTH 960 0
DWIDTH 16 0
BBX 16 16 0 -2
BITMAP
0000
0FC0
1870
3018
3018
000C
000C
07FC
000C
000C
3018
3018
1870
0FC0
0000
0000
ENDCHAR
STARTCHAR 042E
ENCODING 1070
SWIDTH 960 0
DWIDTH 16 0
BBX 16 16 0 -2
BITMAP
0000
60F0
6198
630C
630C
6606
6606
7E06
6606
6606
630C
630C
6198
60F0
0000
0000
ENDCHAR
STARTCHAR 042F
ENCODING 1071
SWIDTH 960 0
DWIDTH 16 0
BBX 16 16 0 -2
BITMAP
0000
07FC
0C0C
180C
180C
180C
0C0C
07FC
018C
030C
030C
060C
0C0C
380C
0000
0000
ENDCHAR
STARTCHAR 0430
ENCODING 1072
SWIDTH 960 0
DWIDTH 16 0
BBX 16 16 0 -2
BITMAP
0000
0000
0000
0000
0000
03E0
0630
0030
03F0
0630
0C30
0C30
0C70
07D0
0000
0000
ENDCHAR
STARTCHAR 0431
ENCODING 1073
SWIDTH 960 0
DWIDTH 16 0
BBX 16 16 0 -2
BITMAP
0000
0000
01E0
0700
0C00
0C00
1BC0
1C60
1830
1830
1830
1830
0C60
07C0
0000
0000
ENDCHAR
STARTCHAR 0432
ENCODING 1074
SWIDTH 960 0
DWIDTH 16 0
BBX 16 16 0 -2
BITMAP
0000
0000
0000
0000
0000
0000
0FE0
0C30
0C30
0FE0
0C30
0C30
0C30
0FE0
0000
0000
ENDCHAR
STARTCHAR 0433
ENCODING 1075
SWIDTH 960 0
DWIDTH 16 0
BBX 16 16 0 -2
BITMAP
0000
0000
0000
0000
0000
0000
0FF0
0C00
0C00
0C00
0C00
0C00
0C00
0C00
0000
0000
ENDCHAR
STARTCHAR 0434
ENCODING 1076
SWIDTH 960 0
DWIDTH 16 0
BBX 16 16 0 -2
BITMAP
0000
0000
0000
0000
0000
0000
07E0
0660
0660
0660
0660
0C60
0C60
3FF8
3018
3018
ENDCHAR
STARTCHAR 0435
ENCODING 1077
SWIDTH 960 0
DWIDTH 16 0
BBX 16 16 0 -2
BITMAP
0000
0000
0000
0000
0000
0000
0780
0CC0
1860
1FE0
1800
1800
0C60
07C0
0000
0000
ENDCHAR
STARTCHAR 0436
ENCODING 1078
SWIDTH 960 0
DWIDTH 16 0
BBX 16 16 0 -2
BITMAP
0000
0000
0000
0000
0000
0000
318C
1998
0DB0
07E0
0DB0
0DB0
1998
318C
0000
0000
ENDCHAR
STARTCHAR 0437
ENCODING 1079
SWIDTH 960 0
DWIDTH 16 0
BBX 16 16 0 -2
BITMAP
0000
0000
0000
0000
0000
0000
03E0
0630
0030
01E0
0030
0030
0C30
07E0
0000
0000
ENDCHAR
STARTCHAR 0438
ENCODING 1080
SWIDTH 960 0
DWIDTH 16 0
BBX 16 16 0 -2
BITMAP
0000
0000
0000
0000
0000
0000
0C30
0C70
0C70
0CD0
0DB0
0D30
0E30
0E30
0000
0000
ENDCHAR
STARTCHAR 0439
ENCODING 1081
SWIDTH 960 0
DWIDTH 16 0
BBX 16 16 0 -2
BITMAP
0000
0000
0000
0660
03C0
0000
0C30
0C70
0C70
0CD0
0DB0
0D30
0E30
0E30
0000
0000
ENDCHAR
STARTCHAR 043A
ENCODING 1082
SWIDTH 960 0
DWIDTH 16 0
BBX 16 16 0 -2
BITMAP
0000
0000
0000
0000
0000
0000
0CF0
0D80
0D00
0F00
0D80
0CC0
0C60
0C30
0000
0000
ENDCHAR
STARTCHAR 043B
ENCODING 1083
SWIDTH 960 0
DWIDTH 16 0
BBX 16 16 0 -2
BITMAP
0000
0000
0000
0000
0000
0000
03F8
0318
0318
0318
0318
0318
0618
1C18
0000
0000
ENDCHAR
STARTCHAR 043C
ENCODING 1084
SWIDTH 960 0
DWIDTH 16 0
BBX 16 16 0 -2
BITMAP
0000
0000
0000
0000
0000
0000
1C38
1A68
1A68
1B58
1B58
1998
1998
1818
0000
0000
ENDCHAR
STARTCHAR 043D
ENCODING 1085
SWIDTH 960 0
DWIDTH 16 0
BBX 16 16 0 -2
BITMAP
0000
0000
0000
0000
0000
0000
0C30
0C30
0C30
0FF0
0C30
0C30
0C30
0C30
0000
0000
ENDCHAR
STARTCHAR 043E
ENCODING 1086
SWIDTH 960 0
DWIDTH 16 0
BBX 16 16 0 -2
BITMAP
0000
0000
0000
0000
0000
0000
03E0
0630
0C18
0C18
0C18
0C18
0630
03E0
0000
0000
ENDCHAR
STARTCHAR 043F
ENCODING 1087
SWIDTH 960 0
DWIDTH 16 0
BBX 16 16 0 -2
BITMAP
0000
0000
0000
0000
0000
0000
0FF0
0C30
0C30
0C30
0C30
0C30
0C30
0C30
0000
0000
ENDCHAR
STARTCHAR 0440
ENCODING 1088
SWIDTH 960 0
DWIDTH 16 0
BBX 16 16 0 -2
BITMAP
0000
0000
0000
0000
0000
0000
0DC0
0E60
0C30
0C30
0C30
0E60
0DC0
0C00
0C00
0C00
ENDCHAR
STARTCHAR 0441
ENCODING 1089
SWIDTH 960 0
DWIDTH 16 0
BBX 16 16 0 -2
BITMAP
0000
0000
0000
0000
0000
0000
07C0
0C60
1800
1800
1800
1800
0C60
07C0
0000
0000
ENDCHAR
STARTCHAR 0442
ENCODING 1090
SWIDTH 960 0
DWIDTH 16 0
BBX 16 16 0 -2
BITMAP
0000
0000
0000
0000
0000
0000
1FE0
0300
0300
0300
0300
0300
0300
0300
0000
0000
ENDCHAR
STARTCHAR 0443
ENCODING 1091
SWIDTH 960 0
DWIDTH 16 0
BBX 16 16 0 -2
BITMAP
0000
0000
0000
0000
0000
0000
0C30
0C30
0660
0660
0340
0340
0180
0180
0300
0E00
ENDCHAR
STARTCHAR 0444
ENCODING 1092
SWIDTH 960 0
DWIDTH 16 0
BBX 16 16 0 -2
BITMAP
0000
0000
0000
0300
0300
0300
1D60
37B0
6318
6318
6318
6318
37B0
1D60
0300
0300
ENDCHAR
STARTCHAR 0445
ENCODING 1093
SWIDTH 960 0
DWIDTH 16 0
BBX 16 16 0 -2
BITMAP
0000
0000
0000
0000
0000
0000
1830
0C60
06C0
0380
0380
06C0
0C60
1830
0000
0000
ENDCHAR
STARTCHAR 0446
ENCODING 1094
SWIDTH 960 0
DWIDTH 16 0
BBX 16 16 0 -2
BITMAP
0000
0000
0000
0000
0000
0000
1860
1860
1860
1860
1860
1860
1860
1FF8
0018
0018
ENDCHAR
STARTCHAR 0447
ENCODING 1095
SWIDTH 960 0
DWIDTH 16 0
BBX 16 16 0 -2
BITMAP
0000
0000
0000
0000
0000
0000
0C30
0C30
0C30
0C30
07F0
0030
0030
0030
0000
0000
ENDCHAR
STARTCHAR 0448
ENCODING 1096
SWIDTH 960 0
DWIDTH 16 0
BBX 16 16 0 -2
BITMAP
0000
0000
0000
0000
0000
0000
318C
318C
318C
318C
318C
318C
318C
3FFC
0000
0000
ENDCHAR
STARTCHAR 0449
ENCODING 1097
SWIDTH 960 0
DWIDTH 16 0
BBX 16 16 0 -2
BITMAP
0000
0000
0000
0000
0000
0000
6318
6318
6318
6318
6318
6318
6318
7FFE
0006
0006
ENDCHAR
STARTCHAR 044A
ENCODING 1098
SWIDTH 960 0
DWIDTH 16 0
BBX 16 16 0 -2
BITMAP
0000
0000
0000
0000
0000
0000
1F00
0300
0300
03F0
0318
0318
0318
03F0
0000
0000
ENDCHAR
STARTCHAR 044B
ENCODING 1099
SWIDTH 960 0
DWIDTH 16 0
BBX 16 16 0 -2
BITMAP
0000
0000
0000
0000
0000
0000
1818
1818
1818
1F98
18D8
18D8
18D8
1F98
0000
0000
ENDCHAR
STARTCHAR 044C
ENCODING 1100
SWIDTH 960 0
DWIDTH 16 0
BBX 16 16 0 -2
BITMAP
0000
0000
0000
0000
0000
0000
0C00
0C00
0C00
0FC0
0C60
0C60
0C60
0FC0
0000
0000
ENDCHAR
STARTCHAR 044D
ENCODING 1101
SWIDTH 960 0
DWIDTH 16 0
BBX 16 16 0 -2
BITMAP
0000
0000
0000
0000
0000
0000
0FC0
1860
0030
03F0
0030
0030
1860
0FC0
0000
0000
ENDCHAR
STARTCHAR 044E
ENCODING 1102
SWIDTH 960 0
DWIDTH 16 0
BBX 16 16 0 -2
BITMAP
0000
0000
0000
0000
0000
0000
31E0
3330
3618
3E18
3618
3618
3330
31E0
0000
0000
ENDCHAR
STARTCHAR 044F
ENCODING 1103
SWIDTH 960 0
DWIDTH 16 0
BBX 16 16 0 -2
BITMAP
0000
0000
0000
0000
0000
0000
07E0
0C60
0C60
0C60
07E0
0360
0660
1C60
0000
0000
ENDCHAR
STARTCHAR 0451
ENCODING 1105
SWIDTH 960 0
DWIDTH 16 0
BBX 16 16 0 -2
BITMAP
0000
0000
0000
0EC0
0EC0
0000
0780
0CC0
1860
1FE0
1800
1800
0C60
07C0
0000
0000
ENDCHAR
STARTCHAR 1E3E
ENCODING 7742
SWIDTH 960 0
DWIDTH 16 0
BBX 16 16 0 -2
BITMAP
01C0
399C
3B1C
3434
3434
3434
366C
366C
366C
334C
334C
318C
318C
300C
0000
0000
ENDCHAR
STARTCHAR 1E3F
ENCODING 7743
SWIDTH 960 0
DWIDTH 16 0
BBX 16 16 0 -2
BITMAP
0000
0000
01C0
0180
0300
0000
3778
39CC
318C
318C
318C
318C
318C
318C
0000
0000
ENDCHAR
STARTCHAR 1F70
ENCODING 8048
SWIDTH 960 0
DWIDTH 16 0
BBX 16 16 0 -2
BITMAP
0000
0000
0700
0300
0180
0000
07D0
0C70
1830
1830
1830
1830
0C70
07D0
0000
0000
ENDCHAR
STARTCHAR 1F71
ENCODING 8049
SWIDTH 960 0
DWIDTH 16 0
BBX 16 16 0 -2
BITMAP
0000
0000
0380
0300
0600
0000
07D0
0C70
1830
1830
1830
1830
0C70
07D0
0000
0000
ENDCHAR
STARTCHAR 1F72
ENCODING 8050
SWIDTH 960 0
DWIDTH 16 0
BBX 16 16 0 -2
BITMAP
0000
01C0
00C0
0060
0000
03E0
0630
0C18
0C00
07E0
0C00
0C00
0618
03F0
0000
0000
ENDCHAR
STARTCHAR 1F73
ENCODING 8051
SWIDTH 960 0
DWIDTH 16 0
BBX 16 16 0 -2
BITMAP
0000
00E0
00C0
0180
0000
03E0
0630
0C18
0C00
07E0
0C00
0C00
0618
03F0
0000
0000
ENDCHAR
STARTCHAR 2000
ENCODING 8192
SWIDTH 960 0
DWIDTH 16 0
BBX 16 16 0 -2
BITMAP
0000
0000
0000
0000
0000
0000
0000
0000
0000
0000
0000
0000
0000
0000
0000
0000
ENDCHAR
STARTCHAR 2001
ENCODING 8193
SWIDTH 960 0
DWIDTH 16 0
BBX 16 16 0 -2
BITMAP
0000
0000
0000
0000
0000
0000
0000
0000
0000
0000
0000
0000
0000
0000
0000
0000
ENDCHAR
STARTCHAR 2002
ENCODING 8194
SWIDTH 960 0
DWIDTH 16 0
BBX 16 16 0 -2
BITMAP
0000
0000
0000
0000
0000
0000
0000
0000
0000
0000
0000
0000
0000
0000
0000
0000
ENDCHAR
STARTCHAR 2003
ENCODING 8195
SWIDTH 960 0
DWIDTH 16 0
BBX 16 16 0 -2
BITMAP
0000
0000
0000
0000
0000
0000
0000
0000
0000
0000
0000
0000
0000
0000
0000
0000
ENDCHAR
STARTCHAR 2004
ENCODING 8196
SWIDTH 960 0
DWIDTH 16 0
BBX 16 16 0 -2
BITMAP
0000
0000
0000
0000
0000
0000
0000
0000
0000
0000
0000
0000
0000
0000
0000
0000
ENDCHAR
STARTCHAR 2005
ENCODING 8197
SWIDTH 960 0
DWIDTH 16 0
BBX 16 16 0 -2
BITMAP
0000
0000
0000
0000
0000
0000
0000
0000
0000
0000
0000
0000
0000
0000
0000
0000
ENDCHAR
STARTCHAR 2006
ENCODING 8198
SWIDTH 960 0
DWIDTH 16 0
BBX 16 16 0 -2
BITMAP
0000
0000
0000
0000
0000
0000
0000
0000
0000
0000
0000
0000
0000
0000
0000
0000
ENDCHAR
STARTCHAR 2007
ENCODING 8199
SWIDTH 960 0
DWIDTH 16 0
BBX 16 16 0 -2
BITMAP
0000
0000
0000
0000
0000
0000
0000
0000
0000
0000
0000
0000
0000
0000
0000
0000
ENDCHAR
STARTCHAR 2008
ENCODING 8200
SWIDTH 960 0
DWIDTH 16 0
BBX 16 16 0 -2
BITMAP
0000
0000
0000
0000
0000
0000
0000
0000
0000
0000
0000
0000
0000
0000
0000
0000
ENDCHAR
STARTCHAR 2009
ENCODING 8201
SWIDTH 960 0
DWIDTH 16 0
BBX 16 16 0 -2
BITMAP
0000
0000
0000
0000
0000
0000
0000
0000
0000
0000
0000
0000
0000
0000
0000
0000
ENDCHAR
STARTCHAR 200A
ENCODING 8202
SWIDTH 960 0
DWIDTH 16 0
BBX 16 16 0 -2
BITMAP
0000
0000
0000
0000
0000
0000
0000
0000
0000
0000
0000
0000
0000
0000
0000
0000
ENDCHAR
STARTCHAR 200B
ENCODING 8203
SWIDTH 480 0
DWIDTH 8 0
BBX 1 1 0 0
BITMAP
00
ENDCHAR
STARTCHAR 200C
ENCODING 8204
SWIDTH 480 0
DWIDTH 8 0
BBX 1 1 0 0
BITMAP
00
ENDCHAR
STARTCHAR 200D
ENCODING 8205
SWIDTH 480 0
DWIDTH 8 0
BBX 1 1 0 0
BITMAP
00
ENDCHAR
STARTCHAR 200E
ENCODING 8206
SWIDTH 480 0
DWIDTH 8 0
BBX 1 1 0 0
BITMAP
00
ENDCHAR
STARTCHAR 200F
ENCODING 8207
SWIDTH 480 0
DWIDTH 8 0
BBX 1 1 0 0
BITMAP
00
ENDCHAR
STARTCHAR 2010
ENCODING 8208
SWIDTH 960 0
DWIDTH 16 0
BBX 16 16 0 -2
BITMAP
0000
0000
0000
0000
0000
0000
0000
0FE0
0000
0000
0000
0000
0000
0000
0000
0000
ENDCHAR
STARTCHAR 2013
ENCODING 8211
SWIDTH 960 0
DWIDTH 16 0
BBX 16 16 0 -2
BITMAP
0000
0000
0000
0000
0000
0000
0000
0FE0
0000
0000
0000
0000
0000
0000
0000
0000
ENDCHAR
STARTCHAR 2014
ENCODING 8212
SWIDTH 960 0
DWIDTH 16 0
BBX 16 16 0 -2
BITMAP
0000
0000
0000
0000
0000
0000
0000
FFFF
0000
0000
0000
0000
0000
0000
0000
0000
ENDCHAR
STARTCHAR 2015
ENCODING 8213
SWIDTH 960 0
DWIDTH 16 0
BBX 16 16 0 -2
BITMAP
0000
0000
0000
0000
0000
0000
0000
FFFF
0000
0000
0000
0000
0000
0000
0000
0000
ENDCHAR
STARTCHAR 2016
ENCODING 8214
SWIDTH 960 0
DWIDTH 16 0
BBX 16 16 0 -2
BITMAP
0CC0
0CC0
0CC0
0CC0
0CC0
0CC0
0CC0
0CC0
0CC0
0CC0
0CC0
0CC0
0CC0
0CC0
0CC0
0CC0
ENDCHAR
STARTCHAR 2018
ENCODING 8216
SWIDTH 960 0
DWIDTH 16 0
BBX 16 16 0 -2
BITMAP
0018
0030
0038
0038
0000
0000
0000
0000
0000
0000
0000
0000
0000
0000
0000
0000
ENDCHAR
STARTCHAR 2019
ENCODING 8217
SWIDTH 960 0
DWIDTH 16 0
BBX 16 16 0 -2
BITMAP
3800
3800
1800
3000
0000
0000
0000
0000
0000
0000
0000
0000
0000
0000
0000
0000
ENDCHAR
STARTCHAR 201C
ENCODING 8220
SWIDTH 960 0
DWIDTH 16 0
BBX 16 16 0 -2
BITMAP
006C
00D8
00EC
00EC
0000
0000
0000
0000
0000
0000
0000
0000
0000
0000
0000
0000
ENDCHAR
STARTCHAR 201D
ENCODING 8221
SWIDTH 960 0
DWIDTH 16 0
BBX 16 16 0 -2
BITMAP
7600
7600
3600
6C00
0000
0000
0000
0000
0000
0000
0000
0000
0000
0000
0000
0000
ENDCHAR
STARTCHAR 2020
ENCODING 8224
SWIDTH 960 0
DWIDTH 16 0
BBX 16 16 0 -2
BITMAP
0180
03C0
0DB0
1FF8
0DB0
0180
07E0
03C0
03C0
0180
0180
0180
0180
0180
0180
0000
ENDCHAR
STARTCHAR 2021
ENCODING 8225
SWIDTH 960 0
DWIDTH 16 0
BBX 16 16 0 -2
BITMAP
0180
03C0
0DB0
1FF8
0DB0
03C0
0180
03C0
0DB0
1FF8
0DB0
0180
03C0
0180
0180
0000
ENDCHAR
STARTCHAR 2022
ENCODING 8226
SWIDTH 960 0
DWIDTH 16 0
BBX 16 16 0 -2
BITMAP
0000
0000
0000
0000
0380
07C0
0FE0
0FE0
07C0
0380
0000
0000
0000
0000
0000
0000
ENDCHAR
STARTCHAR 2025
ENCODING 8229
SWIDTH 960 0
DWIDTH 16 0
BBX 16 16 0 -2
BITMAP
0000
0000
0000
0000
0000
0000
0000
3838
3838
0000
0000
0000
0000
0000
0000
0000
ENDCHAR
STARTCHAR 2026
ENCODING 8230
SWIDTH 960 0
DWIDTH 16 0
BBX 16 16 0 -2
BITMAP
0000
0000
0000
0000
0000
0000
0000
E38E
E38E
0000
0000
0000
0000
0000
0000
0000
ENDCHAR
STARTCHAR 2030
ENCODING 8240
SWIDTH 960 0
DWIDTH 16 0
BBX 16 16 0 -2
BITMAP
0000
70C0
D8C0
D980
DB00
DB00
DA00
7400
0D9C
1AD6
36D6
36D6
66D6
C6D6
C39C
0000
ENDCHAR
STARTCHAR 2032
ENCODING 8242
SWIDTH 960 0
DWIDTH 16 0
BBX 16 16 0 -2
BITMAP
0000
1800
3000
6000
6000
0000
0000
0000
0000
0000
0000
0000
0000
0000
0000
0000
ENDCHAR
STARTCHAR 2033
ENCODING 8243
SWIDTH 960 0
DWIDTH 16 0
BBX 16 16 0 -2
BITMAP
0000
3300
6600
CC00
CC00
0000
0000
0000
0000
0000
0000
0000
0000
0000
0000
0000
ENDCHAR
STARTCHAR 203B
ENCODING 8251
SWIDTH 960 0
DWIDTH 16 0
BBX 16 16 0 -2
BITMAP
0000
0000
638C
3398
1830
0C60
06C0
739C
739C
06C0
0C60
1830
3398
638C
0000
0000
ENDCHAR
STARTCHAR 203C
ENCODING 8252
SWIDTH 960 0
DWIDTH 16 0
BBX 16 16 0 -2
BITMAP
0000
0C60
0C60
0C60
0C60
0C60
0C60
0C60
0C60
0C60
0000
0000
1C70
1C70
0000
0000
ENDCHAR
STARTCHAR 203E
ENCODING 8254
SWIDTH 960 0
DWIDTH 16 0
BBX 16 16 0 -2
BITMAP
FFFF
0000
0000
0000
0000
0000
0000
0000
0000
0000
0000
0000
0000
0000
0000
0000
ENDCHAR
STARTCHAR 203F
ENCODING 8255
SWIDTH 960 0
DWIDTH 16 0
BBX 16 16 0 -2
BITMAP
0000
0000
0000
0000
0000
0000
0000
0000
0000
0000
0000
0000
600C
3838
0FE0
0000
ENDCHAR
STARTCHAR 2042
ENCODING 8258
SWIDTH 960 0
DWIDTH 16 0
BBX 16 16 0 -2
BITMAP
0180
0EB0
03C0
0180
03C0
0EB0
0180
0000
1818
EB6B
3C3C
1818
3C3C
EB6B
1818
0000
ENDCHAR
STARTCHAR 2047
ENCODING 8263
SWIDTH 960 0
DWIDTH 16 0
BBX 16 16 0 -2
BITMAP
0000
3E7C
6346
6346
6346
0306
0E1C
1830
1830
1830
0000
0000
3838
3838
0000
0000
ENDCHAR
STARTCHAR 2048
ENCODING 8264
SWIDTH 960 0
DWIDTH 16 0
BBX 16 16 0 -2
BITMAP
0000
1F30
31B0
31B0
31B0
01B0
0730
0C30
0C30
0C30
0000
0000
1C38
1C38
0000
0000
ENDCHAR
STARTCHAR 2049
ENCODING 8265
SWIDTH 960 0
DWIDTH 16 0
BBX 16 16 0 -2
BITMAP
0000
18F8
198C
198C
198C
180C
1838
1860
1860
1860
0000
0000
3870
3870
0000
0000
ENDCHAR
STARTCHAR 2051
ENCODING 8273
SWIDTH 960 0
DWIDTH 16 0
BBX 16 16 0 -2
BITMAP
0180
0EB0
03C0
0180
03C0
0EB0
0180
0000
0180
0EB0
03C0
0180
03C0
0EB0
0180
0000
ENDCHAR
STARTCHAR 20AC
ENCODING 8364
SWIDTH 960 0
DWIDTH 16 0
BBX 16 16 0 -2
BITMAP
0000
03E0
0E38
180C
1800
3000
FFF0
3000
FFE0
3000
1800
180C
0E38
03E0
0000
0000
ENDCHAR
STARTCHAR 2103
ENCODING 8451
SWIDTH 960 0
DWIDTH 16 0
BBX 16 16 0 -2
BITMAP
0000
70F8
DB8E
DA03
7600
0C00
0C00
0C00
0C00
0C00
0603
0603
038E
00F8
0000
0000
ENDCHAR
STARTCHAR 210F
ENCODING 8463
SWIDTH 960 0
DWIDTH 16 0
BBX 16 16 0 -2
BITMAP
0000
1E00
06C0
0700
0E00
3C00
0DE0
0E30
0C30
0C30
1830
1860
186C
1878
0000
0000
ENDCHAR
STARTCHAR 2113
ENCODING 8467
SWIDTH 960 0
DWIDTH 16 0
BBX 16 16 0 -2
BITMAP
0000
01C0
0360
0660
0660
0C60
0C60
0C60
0CC0
0CC0
0D98
0718
0D30
39E0
0000
0000
ENDCHAR
STARTCHAR 2116
ENCODING 8470
SWIDTH 960 0
DWIDTH 16 0
BBX 16 16 0 -2
BITMAP
0000
C600
C600
E600
E600
D670
D6D8
DA8C
DA8C
DA8C
CE8C
CE8C
C6DB
C677
0000
0000
ENDCHAR
STARTCHAR 2121
ENCODING 8481
SWIDTH 960 0
DWIDTH 16 0
BBX 16 16 0 -2
BITMAP
0000
FDE8
3318
3318
3318
3318
3318
33E8
3318
3318
3318
3318
3318
33EF
0000
0000
ENDCHAR
STARTCHAR 2127
ENCODING 8487
SWIDTH 960 0
DWIDTH 16 0
BBX 16 16 0 -2
BITMAP
0000
7EFC
06C0
06C0
1C70
3018
3018
600C
600C
600C
3018
3018
1C70
07C0
0000
0000
ENDCHAR
STARTCHAR 212B
ENCODING 8491
SWIDTH 960 0
DWIDTH 16 0
BBX 16 16 0 -2
BITMAP
0380
06C0
06C0
0380
0000
0380
06C0
06C0
0C60
0C60
1FF0
1830
3018
3018
0000
0000
ENDCHAR
STARTCHAR 2135
ENCODING 8501
SWIDTH 960 0
DWIDTH 16 0
BBX 16 16 0 -2
BITMAP
0000
3060
3060
1830
0C38
0668
0360
1FC0
30C0
3060
3030
1830
3018
6018
0000
0000
ENDCHAR
STARTCHAR 2153
ENCODING 8531
SWIDTH 960 0
DWIDTH 16 0
BBX 16 16 0 -2
BITMAP
0180
0380
0180
0180
0180
0180
0000
3FFC
0000
03C0
0660
01C0
0060
0660
03C0
0000
ENDCHAR
STARTCHAR 2154
ENCODING 8532
SWIDTH 960 0
DWIDTH 16 0
BBX 16 16 0 -2
BITMAP
03C0
0660
00C0
0180
0300
07E0
0000
3FFC
0000
03C0
0660
01C0
0060
0660
03C0
0000
ENDCHAR
STARTCHAR 2155
ENCODING 8533
SWIDTH 960 0
DWIDTH 16 0
BBX 16 16 0 -2
BITMAP
0180
0380
0180
0180
0180
0180
0000
7FFC
0000
07C0
0600
07C0
0060
0660
03C0
0000
ENDCHAR
STARTCHAR 2160
ENCODING 8544
SWIDTH 960 0
DWIDTH 16 0
BBX 16 16 0 -2
BITMAP
0000
0180
0180
0180
0180
0180
0180
0180
0180
0180
0180
0180
0180
0180
0000
0000
ENDCHAR
STARTCHAR 2161
ENCODING 8545
SWIDTH 960 0
DWIDTH 16 0
BBX 16 16 0 -2
BITMAP
0000
0C60
0C60
0C60
0C60
0C60
0C60
0C60
0C60
0C60
0C60
0C60
0C60
0C60
0000
0000
ENDCHAR
STARTCHAR 2162
ENCODING 8546
SWIDTH 960 0
DWIDTH 16 0
BBX 16 16 0 -2
BITMAP
0000
1998
1998
1998
1998
1998
1998
1998
1998
1998
1998
1998
1998
1998
0000
0000
ENDCHAR
STARTCHAR 2163
ENCODING 8547
SWIDTH 960 0
DWIDTH 16 0
BBX 16 16 0 -2
BITMAP
0000
3618
3618
3618
3618
3330
3330
3330
31A0
31A0
31A0
30C0
30C0
30C0
0000
0000
ENDCHAR
STARTCHAR 2164
ENCODING 8548
SWIDTH 960 0
DWIDTH 16 0
BBX 16 16 0 -2
BITMAP
0000
1818
1818
1818
0C30
0C30
0C30
0660
0660
0660
0340
0340
0180
0180
0000
0000
ENDCHAR
STARTCHAR 2165
ENCODING 8549
SWIDTH 960 0
DWIDTH 16 0
BBX 16 16 0 -2
BITMAP
0000
30D8
30D8
30D8
30D8
1998
1998
1998
0D18
0D18
0D18
0618
0618
0618
0000
0000
ENDCHAR
STARTCHAR 2166
ENCODING 8550
SWIDTH 960 0
DWIDTH 16 0
BBX 16 16 0 -2
BITMAP
0000
61AC
61AC
61AC
61AC
336C
336C
336C
1A6C
1A6C
1A6C
0C6C
0C6C
0C6C
0000
0000
ENDCHAR
STARTCHAR 2167
ENCODING 8551
SWIDTH 960 0
DWIDTH 16 0
BBX 16 16 0 -2
BITMAP
0000
C35B
C35B
C35B
C35B
66DB
66DB
66DB
34DB
34DB
34DB
18DB
18DB
18DB
0000
0000
ENDCHAR
STARTCHAR 2168
ENCODING 8552
SWIDTH 960 0
DWIDTH 16 0
BBX 16 16 0 -2
BITMAP
0000
330C
330C
3198
3198
30D0
30D0
3060
30D0
3198
3198
330C
330C
3606
0000
0000
ENDCHAR
STARTCHAR 2169
ENCODING 8553
SWIDTH 960 0
DWIDTH 16 0
BBX 16 16 0 -2
BITMAP
0000
1818
0C30
0C30
0660
0660
0340
0180
0340
0660
0660
0C30
1818
300C
0000
0000
ENDCHAR
STARTCHAR 216A
ENCODING 8554
SWIDTH 960 0
DWIDTH 16 0
BBX 16 16 0 -2
BITMAP
0000
30CC
30CC
198C
198C
0D0C
0D0C
060C
0D0C
198C
198C
30CC
30CC
606C
0000
0000
ENDCHAR
STARTCHAR 216B
ENCODING 8555
SWIDTH 960 0
DWIDTH 16 0
BBX 16 16 0 -2
BITMAP
0000
61B6
61B6
3336
3336
1A36
1A36
0C36
1A36
3336
3336
61B6
61B6
C0D6
0000
0000
ENDCHAR
STARTCHAR 2170
ENCODING 8560
SWIDTH 960 0
DWIDTH 16 0
BBX 16 16 0 -2
BITMAP
0000
0000
0180
0180
0000
0000
0180
0180
0180
0180
0180
0180
0180
0180
0000
0000
ENDCHAR
STARTCHAR 2171
ENCODING 8561
SWIDTH 960 0
DWIDTH 16 0
BBX 16 16 0 -2
BITMAP
0000
0000
0660
0660
0000
0000
0660
0660
0660
0660
0660
0660
0660
0660
0000
0000
ENDCHAR
STARTCHAR 2172
ENCODING 8562
SWIDTH 960 0
DWIDTH 16 0
BBX 16 16 0 -2
BITMAP
0000
0000
1998
1998
0000
0000
1998
1998
1998
1998
1998
1998
1998
1998
0000
0000
ENDCHAR
STARTCHAR 2173
ENCODING 8563
SWIDTH 960 0
DWIDTH 16 0
BBX 16 16 0 -2
BITMAP
0000
0000
1800
1800
0000
0000
1B0C
1B0C
1998
1998
18D0
18D0
1860
1860
0000
0000
ENDCHAR
STARTCHAR 2174
ENCODING 8564
SWIDTH 960 0
DWIDTH 16 0
BBX 16 16 0 -2
BITMAP
0000
0000
0000
0000
0000
0000
0C30
0C30
0660
0660
0340
0340
0180
0180
0000
0000
ENDCHAR
STARTCHAR 2175
ENCODING 8565
SWIDTH 960 0
DWIDTH 16 0
BBX 16 16 0 -2
BITMAP
0000
0000
0018
0018
0000
0000
30D8
30D8
1998
1998
0D18
0D18
0618
0618
0000
0000
ENDCHAR
STARTCHAR 2176
ENCODING 8566
SWIDTH 960 0
DWIDTH 16 0
BBX 16 16 0 -2
BITMAP
0000
0000
0066
0066
0000
0000
61A6
61A6
3366
3366
1A66
1A66
0C66
0C66
0000
0000
ENDCHAR
STARTCHAR 2177
ENCODING 8567
SWIDTH 960 0
DWIDTH 16 0
BBX 16 16 0 -2
BITMAP
0000
0000
01B6
01B6
0000
0000
66B6
66B6
66B6
35B6
35B6
35B6
19B6
19B6
0000
0000
ENDCHAR
STARTCHAR 2178
ENCODING 8568
SWIDTH 960 0
DWIDTH 16 0
BBX 16 16 0 -2
BITMAP
0000
0000
3000
3000
0000
0000
3618
3330
31A0
30C0
31A0
3330
3618
340C
0000
0000
ENDCHAR
STARTCHAR 2179
ENCODING 8569
SWIDTH 960 0
DWIDTH 16 0
BBX 16 16 0 -2
BITMAP
0000
0000
0000
0000
0000
0000
0C30
0660
0340
0180
0340
0660
0C30
1818
0000
0000
ENDCHAR
STARTCHAR 217A
ENCODING 8570
SWIDTH 960 0
DWIDTH 16 0
BBX 16 16 0 -2
BITMAP
0000
0000
0018
0018
0000
0000
30D8
1998
0D18
0618
0D18
1998
30D8
6068
0000
0000
ENDCHAR
STARTCHAR 217B
ENCODING 8571
SWIDTH 960 0
DWIDTH 16 0
BBX 16 16 0 -2
BITMAP
0000
0000
0036
0036
0000
0000
61B6
3336
1A36
0C36
1A36
3336
61B6
C0D6
0000
0000
ENDCHAR
STARTCHAR 2190
ENCODING 8592
SWIDTH 960 0
DWIDTH 16 0
BBX 16 16 0 -2
BITMAP
0000
0000
0000
0000
0000
1C00
7000
FFFF
7000
1C00
0000
0000
0000
0000
0000
0000
ENDCHAR
STARTCHAR 2191
ENCODING 8593
SWIDTH 960 0
DWIDTH 16 0
BBX 16 16 0 -2
BITMAP
0180
03C0
03C0
06A0
06A0
0180
0180
0180
0180
0180
0180
0180
0180
0180
0180
0000
ENDCHAR
STARTCHAR 2192
ENCODING 8594
SWIDTH 960 0
DWIDTH 16 0
BBX 16 16 0 -2
BITMAP
0000
0000
0000
0000
0000
0038
000E
FFFF
000E
0038
0000
0000
0000
0000
0000
0000
ENDCHAR
STARTCHAR 2193
ENCODING 8595
SWIDTH 960 0
DWIDTH 16 0
BBX 16 16 0 -2
BITMAP
0180
0180
0180
0180
0180
0180
0180
0180
0180
0180
06A0
06A0
03C0
03C0
0180
0000
ENDCHAR
STARTCHAR 2194
ENCODING 8596
SWIDTH 960 0
DWIDTH 16 0
BBX 16 16 0 -2
BITMAP
0000
0000
0000
0000
0000
3018
600C
FFFF
600C
3018
0000
0000
0000
0000
0000
0000
ENDCHAR
STARTCHAR 2196
ENCODING 8598
SWIDTH 960 0
DWIDTH 16 0
BBX 16 16 0 -2
BITMAP
0000
0000
6000
3E00
3800
3400
3600
0300
0180
00C0
0060
0030
0018
000C
0000
0000
ENDCHAR
STARTCHAR 2197
ENCODING 8599
SWIDTH 960 0
DWIDTH 16 0
BBX 16 16 0 -2
BITMAP
0000
0000
000C
00F8
0038
0068
00D8
0180
0300
0600
0C00
1800
3000
6000
0000
0000
ENDCHAR
STARTCHAR 2198
ENCODING 8600
SWIDTH 960 0
DWIDTH 16 0
BBX 16 16 0 -2
BITMAP
0000
0000
6000
3000
1800
0C00
0600
0300
0180
00D8
0068
0038
00F8
000C
0000
0000
ENDCHAR
STARTCHAR 2199
ENCODING 8601
SWIDTH 960 0
DWIDTH 16 0
BBX 16 16 0 -2
BITMAP
0000
0000
000C
0018
0030
0060
00C0
0180
0300
3600
3400
3800
3E00
6000
0000
0000
ENDCHAR
STARTCHAR 21C4
ENCODING 8644
SWIDTH 960 0
DWIDTH 16 0
BBX 16 16 0 -2
BITMAP
0000
0000
0018
000C
FFFF
000C
0018
0000
1800
3000
FFFF
3000
1800
0000
0000
0000
ENDCHAR
STARTCHAR 21D2
ENCODING 8658
SWIDTH 960 0
DWIDTH 16 0
BBX 16 16 0 -2
BITMAP
0000
0000
0000
0030
0018
FFFC
0006
0003
0006
FFFC
0018
0030
0000
0000
0000
0000
ENDCHAR
STARTCHAR 21D4
ENCODING 8660
SWIDTH 960 0
DWIDTH 16 0
BBX 16 16 0 -2
BITMAP
0000
0000
0000
0C30
1818
3FFC
6006
C003
6006
3FFC
1818
0C30
0000
0000
0000
0000
ENDCHAR
STARTCHAR 21E6
ENCODING 8678
SWIDTH 960 0
DWIDTH 16 0
BBX 16 16 0 -2
BITMAP
0000
0000
0600
0E00
1A00
37FF
6003
C003
6003
37FF
1A00
0E00
0600
0000
0000
0000
ENDCHAR
STARTCHAR 21E7
ENCODING 8679
SWIDTH 960 0
DWIDTH 16 0
BBX 16 16 0 -2
BITMAP
0180
0340
0660
0C30
1818
3E7C
0660
0660
0660
0660
0660
0660
0660
0660
07E0
0000
ENDCHAR
STARTCHAR 21E8
ENCODING 8680
SWIDTH 960 0
DWIDTH 16 0
BBX 16 16 0 -2
BITMAP
0000
0000
0060
0070
0068
FFEC
C006
C003
C006
FFEC
0068
0070
0060
0000
0000
0000
ENDCHAR
STARTCHAR 21E9
ENCODING 8681
SWIDTH 960 0
DWIDTH 16 0
BBX 16 16 0 -2
BITMAP
07E0
0660
0660
0660
0660
0660
0660
0660
0660
3E7C
1818
0C30
0660
0340
0180
0000
ENDCHAR
STARTCHAR 2200
ENCODING 8704
SWIDTH 960 0
DWIDTH 16 0
BBX 16 16 0 -2
BITMAP
0000
6006
6006
300C
300C
1FF8
1818
0C30
0C30
0660
0660
0340
0340
0180
0180
0000
ENDCHAR
STARTCHAR 2202
ENCODING 8706
SWIDTH 960 0
DWIDTH 16 0
BBX 16 16 0 -2
BITMAP
0000
03C0
0660
0C30
0030
0030
07B0
0CE0
1860
3060
30C0
3180
3300
1E00
0000
0000
ENDCHAR
STARTCHAR 2203
ENCODING 8707
SWIDTH 960 0
DWIDTH 16 0
BBX 16 16 0 -2
BITMAP
0000
0000
3FF0
0030
0030
0030
0030
3FF0
0030
0030
0030
0030
3FF0
0000
0000
0000
ENDCHAR
STARTCHAR 2205
ENCODING 8709
SWIDTH 960 0
DWIDTH 16 0
BBX 16 16 0 -2
BITMAP
0000
0000
000C
07D8
0C70
1870
30D8
3198
3318
3618
1C30
1C60
37C0
6000
0000
0000
ENDCHAR
STARTCHAR 2207
ENCODING 8711
SWIDTH 960 0
DWIDTH 16 0
BBX 16 16 0 -2
BITMAP
0000
FFFE
600C
700C
3018
3818
1830
1C30
0C60
0E60
06C0
0740
0380
0380
0000
0000
ENDCHAR
STARTCHAR 2208
ENCODING 8712
SWIDTH 960 0
DWIDTH 16 0
BBX 16 16 0 -2
BITMAP
0000
0000
0000
0FF8
1800
3000
3000
3FF8
3000
3000
1800
0FF8
0000
0000
0000
0000
ENDCHAR
STARTCHAR 2209
ENCODING 8713
SWIDTH 960 0
DWIDTH 16 0
BBX 16 16 0 -2
BITMAP
0000
0180
0180
0FF8
1980
3180
3180
3FF8
3180
3180
1980
0FF8
0180
0180
0000
0000
ENDCHAR
STARTCHAR 220B
ENCODING 8715
SWIDTH 960 0
DWIDTH 16 0
BBX 16 16 0 -2
BITMAP
0000
0000
0000
3FE0
0030
0018
0018
3FF8
0018
0018
0030
3FE0
0000
0000
0000
0000
ENDCHAR
STARTCHAR 2212
ENCODING 8722
SWIDTH 960 0
DWIDTH 16 0
BBX 16 16 0 -2
BITMAP
0000
0000
0000
0000
0000
0000
0000
7FFC
0000
0000
0000
0000
0000
0000
0000
0000
ENDCHAR
STARTCHAR 2213
ENCODING 8723
SWIDTH 960 0
DWIDTH 16 0
BBX 16 16 0 -2
BITMAP
0000
0000
7FFC
0000
0000
0300
0300
0300
0300
7FFC
0300
0300
0300
0300
0000
0000
ENDCHAR
STARTCHAR 221A
ENCODING 8730
SWIDTH 960 0
DWIDTH 16 0
BBX 16 16 0 -2
BITMAP
00FF
00C0
0180
0180
0180
0180
0300
0300
0300
3300
7A00
DA00
1E00
1C00
0C00
0000
ENDCHAR
STARTCHAR 221D
ENCODING 8733
SWIDTH 960 0
DWIDTH 16 0
BBX 16 16 0 -2
BITMAP
0000
0000
0000
0000
1E78
334C
6180
6180
6180
6180
334C
1E78
0000
0000
0000
0000
ENDCHAR
STARTCHAR 221E
ENCODING 8734
SWIDTH 960 0
DWIDTH 16 0
BBX 16 16 0 -2
BITMAP
0000
0000
0000
0000
1E78
334C
6186
6186
6186
6186
334C
1E78
0000
0000
0000
0000
ENDCHAR
STARTCHAR 221F
ENCODING 8735
SWIDTH 960 0
DWIDTH 16 0
BBX 16 16 0 -2
BITMAP
0000
6000
6000
6000
6000
6000
6000
6000
6000
6000
6000
6000
6000
7FFC
0000
0000
ENDCHAR
STARTCHAR 2220
ENCODING 8736
SWIDTH 960 0
DWIDTH 16 0
BBX 16 16 0 -2
BITMAP
0000
0000
0018
0030
0060
00C0
0180
0300
0600
0C00
1800
3000
7FFC
0000
0000
0000
ENDCHAR
STARTCHAR 2225
ENCODING 8741
SWIDTH 960 0
DWIDTH 16 0
BBX 16 16 0 -2
BITMAP
00C0
018C
018C
0318
0318
0630
0630
0C60
0C60
18C0
18C0
3180
3180
6300
6300
0600
ENDCHAR
STARTCHAR 2226
ENCODING 8742
SWIDTH 960 0
DWIDTH 16 0
BBX 16 16 0 -2
BITMAP
00C0
018C
018C
3318
1B18
0E30
0630
0D60
0DA0
18C0
18E0
31B0
3198
6300
6300
0600
ENDCHAR
STARTCHAR 2227
ENCODING 8743
SWIDTH 960 0
DWIDTH 16 0
BBX 16 16 0 -2
BITMAP
0000
0000
0180
0180
0340
0340
0660
0660
0C30
0C30
1818
1818
300C
300C
0000
0000
ENDCHAR
STARTCHAR 2228
ENCODING 8744
SWIDTH 960 0
DWIDTH 16 0
BBX 16 16 0 -2
BITMAP
0000
0000
300C
300C
1818
1818
0C30
0C30
0660
0660
0340
0340
0180
0180
0000
0000
ENDCHAR
STARTCHAR 2229
ENCODING 8745
SWIDTH 960 0
DWIDTH 16 0
BBX 16 16 0 -2
BITMAP
0000
0000
07C0
0C60
1830
3018
3018
3018
3018
3018
3018
3018
3018
3018
0000
0000
ENDCHAR
STARTCHAR 222A
ENCODING 8746
SWIDTH 960 0
DWIDTH 16 0
BBX 16 16 0 -2
BITMAP
0000
0000
3018
3018
3018
3018
3018
3018
3018
3018
3018
1830
0C60
07C0
0000
0000
ENDCHAR
STARTCHAR 222B
ENCODING 8747
SWIDTH 960 0
DWIDTH 16 0
BBX 16 16 0 -2
BITMAP
03C0
06C0
0600
0600
0300
0300
0300
0180
0180
0180
00C0
00C0
00C0
06C0
0780
0000
ENDCHAR
STARTCHAR 222C
ENCODING 8748
SWIDTH 960 0
DWIDTH 16 0
BBX 16 16 0 -2
BITMAP
1E78
36D8
30C0
30C0
1860
1860
1860
0C30
0C30
0C30
0618
0618
0618
36D8
3CF0
0000
ENDCHAR
STARTCHAR 222E
ENCODING 8750
SWIDTH 960 0
DWIDTH 16 0
BBX 16 16 0 -2
BITMAP
0380
06C0
0600
0600
07C0
0D60
0D60
0DA0
0DA0
07C0
00C0
00C0
00C0
06C0
0380
0000
ENDCHAR
STARTCHAR 2234
ENCODING 8756
SWIDTH 960 0
DWIDTH 16 0
BBX 16 16 0 -2
BITMAP
0000
0000
0000
0000
01C0
01C0
0000
0000
0000
0000
1C38
1C38
0000
0000
0000
0000
ENDCHAR
STARTCHAR 2235
ENCODING 8757
SWIDTH 960 0
DWIDTH 16 0
BBX 16 16 0 -2
BITMAP
0000
0000
0000
0000
1C38
1C38
0000
0000
0000
0000
01C0
01C0
0000
0000
0000
0000
ENDCHAR
STARTCHAR 223D
ENCODING 8765
SWIDTH 960 0
DWIDTH 16 0
BBX 16 16 0 -2
BITMAP
0000
0000
0000
0000
3C78
60CC
C186
C186
C306
C306
660C
3C78
0000
0000
0000
0000
ENDCHAR
STARTCHAR 2243
ENCODING 8771
SWIDTH 960 0
DWIDTH 16 0
BBX 16 16 0 -2
BITMAP
0000
0000
0000
3C06
6706
C1CC
C078
0000
0000
0000
FFFE
0000
0000
0000
0000
0000
ENDCHAR
STARTCHAR 2245
ENCODING 8773
SWIDTH 960 0
DWIDTH 16 0
BBX 16 16 0 -2
BITMAP
0000
0000
0000
3C06
6706
C1CC
C078
0000
0000
FFFE
0000
0000
FFFE
0000
0000
0000
ENDCHAR
STARTCHAR 2248
ENCODING 8776
SWIDTH 960 0
DWIDTH 16 0
BBX 16 16 0 -2
BITMAP
0000
0000
0000
0000
3E06
6386
C0CC
C078
3E06
6306
C1CC
C078
0000
0000
0000
0000
ENDCHAR
STARTCHAR 2252
ENCODING 8786
SWIDTH 960 0
DWIDTH 16 0
BBX 16 16 0 -2
BITMAP
0000
0000
3800
3800
0000
7FFC
0000
0000
0000
7FFC
0000
0038
0038
0000
0000
0000
ENDCHAR
STARTCHAR 2260
ENCODING 8800
SWIDTH 960 0
DWIDTH 16 0
BBX 16 16 0 -2
BITMAP
0000
0000
00C0
00C0
0180
7FFC
0180
0300
0300
7FFC
0300
0600
0600
0000
0000
0000
ENDCHAR
STARTCHAR 2261
ENCODING 8801
SWIDTH 960 0
DWIDTH 16 0
BBX 16 16 0 -2
BITMAP
0000
0000
0000
7FFC
0000
0000
0000
7FFC
0000
0000
0000
7FFC
0000
0000
0000
0000
ENDCHAR
STARTCHAR 2262
ENCODING 8802
SWIDTH 960 0
DWIDTH 16 0
BBX 16 16 0 -2
BITMAP
0060
0060
00C0
FFFE
00C0
0180
0180
FFFE
0300
0300
0600
FFFE
0600
0C00
0C00
0000
ENDCHAR
STARTCHAR 2266
ENCODING 8806
SWIDTH 960 0
DWIDTH 16 0
BBX 16 16 0 -2
BITMAP
0000
0000
003C
01E0
0F00
7800
0F00
01E0
003C
0000
7FFC
0000
0000
7FFC
0000
0000
ENDCHAR
STARTCHAR 2267
ENCODING 8807
SWIDTH 960 0
DWIDTH 16 0
BBX 16 16 0 -2
BITMAP
0000
0000
7800
0F00
01E0
003C
01E0
0F00
7800
0000
7FFC
0000
0000
7FFC
0000
0000
ENDCHAR
STARTCHAR 226A
ENCODING 8810
SWIDTH 960 0
DWIDTH 16 0
BBX 16 16 0 -2
BITMAP
018C
0318
0630
0C60
18C0
3180
6300
C600
6300
3180
18C0
0C60
0630
0318
018C
0000
ENDCHAR
STARTCHAR 226B
ENCODING 8811
SWIDTH 960 0
DWIDTH 16 0
BBX 16 16 0 -2
BITMAP
C600
6300
3180
18C0
0C60
0630
0318
018C
0318
0630
0C60
18C0
3180
6300
C600
0000
ENDCHAR
STARTCHAR 2276
ENCODING 8822
SWIDTH 960 0
DWIDTH 16 0
BBX 16 16 0 -2
BITMAP
0000
003C
01E0
0F00
7800
0F00
01E0
783C
0F00
01E0
003C
01E0
0F00
7800
0000
0000
ENDCHAR
STARTCHAR 2277
ENCODING 8823
SWIDTH 960 0
DWIDTH 16 0
BBX 16 16 0 -2
BITMAP
0000
7800
0F00
01E0
003C
01E0
0F00
783C
01E0
0F00
7800
0F00
01E0
003C
0000
0000
ENDCHAR
STARTCHAR 2282
ENCODING 8834
SWIDTH 960 0
DWIDTH 16 0
BBX 16 16 0 -2
BITMAP
0000
0000
0000
0FFC
1800
3000
6000
6000
6000
6000
3000
1800
0FFC
0000
0000
0000
ENDCHAR
STARTCHAR 2283
ENCODING 8835
SWIDTH 960 0
DWIDTH 16 0
BBX 16 16 0 -2
BITMAP
0000
0000
0000
7FE0
0030
0018
000C
000C
000C
000C
0018
0030
7FE0
0000
0000
0000
ENDCHAR
STARTCHAR 2284
ENCODING 8836
SWIDTH 960 0
DWIDTH 16 0
BBX 16 16 0 -2
BITMAP
0000
0000
0018
0FFC
1830
3060
6060
60C0
6180
6300
3300
1A00
0FFC
0C00
0000
0000
ENDCHAR
STARTCHAR 2285
ENCODING 8837
SWIDTH 960 0
DWIDTH 16 0
BBX 16 16 0 -2
BITMAP
0000
0000
0060
7FE0
00D0
0198
018C
030C
060C
0C0C
0C18
1830
7FE0
3000
0000
0000
ENDCHAR
STARTCHAR 2286
ENCODING 8838
SWIDTH 960 0
DWIDTH 16 0
BBX 16 16 0 -2
BITMAP
0000
0000
1FFC
3000
6000
6000
6000
6000
3000
1FFC
0000
0000
7FFC
0000
0000
0000
ENDCHAR
STARTCHAR 2287
ENCODING 8839
SWIDTH 960 0
DWIDTH 16 0
BBX 16 16 0 -2
BITMAP
0000
0000
7FF0
0018
000C
000C
000C
000C
0018
7FF0
0000
0000
7FFC
0000
0000
0000
ENDCHAR
STARTCHAR 228A
ENCODING 8842
SWIDTH 960 0
DWIDTH 16 0
BBX 16 16 0 -2
BITMAP
0000
0000
1FFC
3000
6000
6000
6000
6000
3000
1FFC
00C0
00C0
7FFC
0180
0300
0300
ENDCHAR
STARTCHAR 228B
ENCODING 8843
SWIDTH 960 0
DWIDTH 16 0
BBX 16 16 0 -2
BITMAP
0000
0000
7FF0
0018
000C
000C
000C
000C
0018
7FF0
00C0
00C0
7FFC
0180
0300
0300
ENDCHAR
STARTCHAR 2295
ENCODING 8853
SWIDTH 960 0
DWIDTH 16 0
BBX 16 16 0 -2
BITMAP
0000
07C0
1C70
3318
630C
630C
C306
DFFA
C306
C306
630C
630C
3318
1C70
07C0
0000
ENDCHAR
STARTCHAR 2296
ENCODING 8854
SWIDTH 960 0
DWIDTH 16 0
BBX 16 16 0 -2
BITMAP
0000
07C0
1C70
3018
600C
600C
C006
DFFA
C006
C006
600C
600C
3018
1C70
07C0
0000
ENDCHAR
STARTCHAR 2297
ENCODING 8855
SWIDTH 960 0
DWIDTH 16 0
BBX 16 16 0 -2
BITMAP
0000
07C0
1C70
3018
6834
6C6C
C6C6
C386
C386
C6C6
6C6C
6834
3018
1C70
07C0
0000
ENDCHAR
STARTCHAR 22A5
ENCODING 8869
SWIDTH 960 0
DWIDTH 16 0
BBX 16 16 0 -2
BITMAP
0000
0000
0300
0300
0300
0300
0300
0300
0300
0300
0300
0300
7FFC
0000
0000
0000
ENDCHAR
STARTCHAR 22BF
ENCODING 8895
SWIDTH 960 0
DWIDTH 16 0
BBX 16 16 0 -2
BITMAP
0000
000C
001C
0034
006C
00CC
018C
030C
060C
0C0C
180C
300C
600C
FFFC
0000
0000
ENDCHAR
STARTCHAR 22DA
ENCODING 8922
SWIDTH 960 0
DWIDTH 16 0
BBX 16 16 0 -2
BITMAP
003C
01E0
0F00
7800
0F00
01E0
003C
7FFC
7800
0F00
01E0
003C
01E0
0F00
7800
0000
ENDCHAR
STARTCHAR 22DB
ENCODING 8923
SWIDTH 960 0
DWIDTH 16 0
BBX 16 16 0 -2
BITMAP
7800
0F00
01E0
003C
01E0
0F00
7800
7FFC
003C
01E0
0F00
7800
0F00
01E0
003C
0000
ENDCHAR
STARTCHAR 2305
ENCODING 8965
SWIDTH 960 0
DWIDTH 16 0
BBX 16 16 0 -2
BITMAP
0000
0000
0000
0000
0000
7FFC
0380
06C0
0C60
1830
3018
600C
0000
0000
0000
0000
ENDCHAR
STARTCHAR 2306
ENCODING 8966
SWIDTH 960 0
DWIDTH 16 0
BBX 16 16 0 -2
BITMAP
0000
0000
0000
7FFC
0000
0000
7FFC
0380
06C0
0C60
1830
3018
600C
0000
0000
0000
ENDCHAR
STARTCHAR 2312
ENCODING 8978
SWIDTH 960 0
DWIDTH 16 0
BBX 16 16 0 -2
BITMAP
07E0
3C3C
E007
0000
0000
0000
0000
0000
0000
0000
0000
0000
0000
0000
0000
0000
ENDCHAR
STARTCHAR 2318
ENCODING 8984
SWIDTH 960 0
DWIDTH 16 0
BBX 16 16 0 -2
BITMAP
0000
3C3C
6666
6666
6666
3FFC
0660
0660
0660
3FFC
6666
6666
6666
3C3C
0000
0000
ENDCHAR
STARTCHAR 23BE
ENCODING 9150
SWIDTH 960 0
DWIDTH 16 0
BBX 16 16 0 -2
BITMAP
0000
01FF
0180
0180
0180
0180
0180
0180
0180
0180
0180
0180
0180
0180
0180
0000
ENDCHAR
STARTCHAR 23BF
ENCODING 9151
SWIDTH 960 0
DWIDTH 16 0
BBX 16 16 0 -2
BITMAP
0000
0180
0180
0180
0180
0180
0180
0180
0180
0180
0180
0180
0180
0180
01FF
0000
ENDCHAR
STARTCHAR 23C0
ENCODING 9152
SWIDTH 960 0
DWIDTH 16 0
BBX 16 16 0 -2
BITMAP
0000
0180
0180
0180
07E0
0DB0
1998
1998
1998
1998
0DB0
07E0
0180
0180
0180
0000
ENDCHAR
STARTCHAR 23C1
ENCODING 9153
SWIDTH 960 0
DWIDTH 16 0
BBX 16 16 0 -2
BITMAP
0000
7FFE
0180
0180
07E0
0DB0
1998
1998
1998
1998
0DB0
07E0
0180
0180
0180
0000
ENDCHAR
STARTCHAR 23C2
ENCODING 9154
SWIDTH 960 0
DWIDTH 16 0
BBX 16 16 0 -2
BITMAP
0000
0180
0180
0180
07E0
0DB0
1998
1998
1998
1998
0DB0
07E0
0180
0180
7FFE
0000
ENDCHAR
STARTCHAR 23C3
ENCODING 9155
SWIDTH 960 0
DWIDTH 16 0
BBX 16 16 0 -2
BITMAP
0000
0180
0180
0180
03C0
06A0
06A0
0DB0
0DB0
1998
1998
3FFC
0180
0180
0180
0000
ENDCHAR
STARTCHAR 23C4
ENCODING 9156
SWIDTH 960 0
DWIDTH 16 0
BBX 16 16 0 -2
BITMAP
0000
7FFE
0180
0180
03C0
06A0
06A0
0DB0
0DB0
1998
1998
3FFC
0180
0180
0180
0000
ENDCHAR
STARTCHAR 23C5
ENCODING 9157
SWIDTH 960 0
DWIDTH 16 0
BBX 16 16 0 -2
BITMAP
0000
0180
0180
0180
03C0
06A0
06A0
0DB0
0DB0
1998
1998
3FFC
0180
0180
7FFE
0000
ENDCHAR
STARTCHAR 23C6
ENCODING 9158
SWIDTH 960 0
DWIDTH 16 0
BBX 16 16 0 -2
BITMAP
0000
0180
0180
0180
0180
0180
0E8C
1BD8
31B0
0180
0180
0180
0180
0180
0180
0000
ENDCHAR
STARTCHAR 23C7
ENCODING 9159
SWIDTH 960 0
DWIDTH 16 0
BBX 16 16 0 -2
BITMAP
0000
7FFE
0180
0180
0180
0180
0E8C
1BD8
31B0
0180
0180
0180
0180
0180
0180
0000
ENDCHAR
STARTCHAR 23C8
ENCODING 9160
SWIDTH 960 0
DWIDTH 16 0
BBX 16 16 0 -2
BITMAP
0000
0180
0180
0180
0180
0180
0E8C
1BD8
31B0
0180
0180
0180
0180
0180
7FFE
0000
ENDCHAR
STARTCHAR 23C9
ENCODING 9161
SWIDTH 960 0
DWIDTH 16 0
BBX 16 16 0 -2
BITMAP
0000
7FFE
0180
0180
0180
0180
0180
0180
0180
0180
0180
0180
0180
0180
0180
0000
ENDCHAR
STARTCHAR 23CA
ENCODING 9162
SWIDTH 960 0
DWIDTH 16 0
BBX 16 16 0 -2
BITMAP
0000
0180
0180
0180
0180
0180
0180
0180
0180
0180
0180
0180
0180
0180
7FFE
0000
ENDCHAR
STARTCHAR 23CB
ENCODING 9163
SWIDTH 960 0
DWIDTH 16 0
BBX 16 16 0 -2
BITMAP
0000
FF80
0180
0180
0180
0180
0180
0180
0180
0180
0180
0180
0180
0180
0180
0000
ENDCHAR
STARTCHAR 23CC
ENCODING 9164
SWIDTH 960 0
DWIDTH 16 0
BBX 16 16 0 -2
BITMAP
0000
0180
0180
0180
0180
0180
0180
0180
0180
0180
0180
0180
0180
0180
FF80
0000
ENDCHAR
STARTCHAR 23CE
ENCODING 9166
SWIDTH 960 0
DWIDTH 16 0
BBX 16 16 0 -2
BITMAP
0000
0000
007E
0066
0066
0666
0E66
1A66
37E6
6006
C006
600C
37F8
1A00
0E00
0600
ENDCHAR
STARTCHAR 2423
ENCODING 9251
SWIDTH 960 0
DWIDTH 16 0
BBX 16 16 0 -2
BITMAP
0000
0000
0000
0000
0000
0000
0000
0000
0000
0000
0000
C006
C006
C006
FFFE
0000
ENDCHAR
STARTCHAR 2460
ENCODING 9312
SWIDTH 960 0
DWIDTH 16 0
BBX 16 16 0 -2
BITMAP
07E0
1C38
300C
6186
6386
C183
C183
C183
C183
C183
6186
6186
300C
1C38
07E0
0000
ENDCHAR
STARTCHAR 2461
ENCODING 9313
SWIDTH 960 0
DWIDTH 16 0
BBX 16 16 0 -2
BITMAP
07E0
1C38
300C
63C6
6666
C063
C0C3
C183
C303
C603
6606
67E6
300C
1C38
07E0
0000
ENDCHAR
STARTCHAR 2462
ENCODING 9314
SWIDTH 960 0
DWIDTH 16 0
BBX 16 16 0 -2
BITMAP
07E0
1C38
300C
63C6
6666
C063
C063
C1C3
C063
C663
6666
63C6
300C
1C38
07E0
0000
ENDCHAR
STARTCHAR 2463
ENCODING 9315
SWIDTH 960 0
DWIDTH 16 0
BBX 16 16 0 -2
BITMAP
07E0
1C38
300C
60C6
61C6
C343
C6C3
C6C3
CFF3
C0C3
60C6
60C6
300C
1C38
07E0
0000
ENDCHAR
STARTCHAR 2464
ENCODING 9316
SWIDTH 960 0
DWIDTH 16 0
BBX 16 16 0 -2
BITMAP
07E0
1C38
300C
67E6
6606
C603
C7C3
C063
C063
C663
6666
63C6
300C
1C38
07E0
0000
ENDCHAR
STARTCHAR 2465
ENCODING 9317
SWIDTH 960 0
DWIDTH 16 0
BBX 16 16 0 -2
BITMAP
07E0
1C38
300C
63C6
6666
C603
C603
C7C3
C663
C663
6666
63C6
300C
1C38
07E0
0000
ENDCHAR
STARTCHAR 2466
ENCODING 9318
SWIDTH 960 0
DWIDTH 16 0
BBX 16 16 0 -2
BITMAP
07E0
1C38
300C
67E6
6066
C063
C0C3
C0C3
C0C3
C183
6186
6186
300C
1C38
07E0
0000
ENDCHAR
STARTCHAR 2467
ENCODING 9319
SWIDTH 960 0
DWIDTH 16 0
BBX 16 16 0 -2
BITMAP
07E0
1C38
300C
63C6
6666
C663
C663
C3C3
C663
C663
6666
63C6
300C
1C38
07E0
0000
ENDCHAR
STARTCHAR 2468
ENCODING 9320
SWIDTH 960 0
DWIDTH 16 0
BBX 16 16 0 -2
BITMAP
07E0
1C38
300C
63C6
6666
C663
C663
C3E3
C063
C063
6666
63C6
300C
1C38
07E0
0000
ENDCHAR
STARTCHAR 2469
ENCODING 9321
SWIDTH 960 0
DWIDTH 16 0
BBX 16 16 0 -2
BITMAP
07E0
1C38
300C
66E6
6EB6
C6B3
C6B3
C6B3
C6B3
C6B3
66B6
66E6
300C
1C38
07E0
0000
ENDCHAR
STARTCHAR 246A
ENCODING 9322
SWIDTH 960 0
DWIDTH 16 0
BBX 16 16 0 -2
BITMAP
07E0
1C38
300C
6666
6EE6
C663
C663
C663
C663
C663
6666
6666
300C
1C38
07E0
0000
ENDCHAR
STARTCHAR 246B
ENCODING 9323
SWIDTH 960 0
DWIDTH 16 0
BBX 16 16 0 -2
BITMAP
07E0
1C38
300C
66E6
6EB6
C633
C663
C663
C6C3
C6C3
6686
66F6
300C
1C38
07E0
0000
ENDCHAR
STARTCHAR 246C
ENCODING 9324
SWIDTH 960 0
DWIDTH 16 0
BBX 16 16 0 -2
BITMAP
07E0
1C38
300C
66E6
6EB6
C633
C633
C6E3
C633
C633
66B6
66E6
300C
1C38
07E0
0000
ENDCHAR
STARTCHAR 246D
ENCODING 9325
SWIDTH 960 0
DWIDTH 16 0
BBX 16 16 0 -2
BITMAP
07E0
1C38
300C
6636
6E76
C6D3
C6D3
C6B3
C6FB
C633
6636
6636
300C
1C38
07E0
0000
ENDCHAR
STARTCHAR 246E
ENCODING 9326
SWIDTH 960 0
DWIDTH 16 0
BBX 16 16 0 -2
BITMAP
07E0
1C38
300C
66F6
6E86
C683
C6E3
C633
C633
C633
66B6
66E6
300C
1C38
07E0
0000
ENDCHAR
STARTCHAR 246F
ENCODING 9327
SWIDTH 960 0
DWIDTH 16 0
BBX 16 16 0 -2
BITMAP
07E0
1C38
300C
66E6
6EB6
C683
C683
C6E3
C6B3
C6B3
66B6
66E6
300C
1C38
07E0
0000
ENDCHAR
STARTCHAR 2470
ENCODING 9328
SWIDTH 960 0
DWIDTH 16 0
BBX 16 16 0 -2
BITMAP
07E0
1C38
300C
66F6
6E36
C633
C633
C663
C663
C663
6666
6666
300C
1C38
07E0
0000
ENDCHAR
STARTCHAR 2471
ENCODING 9329
SWIDTH 960 0
DWIDTH 16 0
BBX 16 16 0 -2
BITMAP
07E0
1C38
300C
66E6
6EB6
C6B3
C6B3
C6E3
C6B3
C6B3
66B6
66E6
300C
1C38
07E0
0000
ENDCHAR
STARTCHAR 2472
ENCODING 9330
SWIDTH 960 0
DWIDTH 16 0
BBX 16 16 0 -2
BITMAP
07E0
1C38
300C
66E6
6EB6
C6B3
C6B3
C6F3
C633
C633
66B6
66E6
300C
1C38
07E0
0000
ENDCHAR
STARTCHAR 2473
ENCODING 9331
SWIDTH 960 0
DWIDTH 16 0
BBX 16 16 0 -2
BITMAP
07E0
1C38
300C
6E76
6B5A
C35B
C35B
C6DB
CCDB
D8DB
68DA
6F76
300C
1C38
07E0
0000
ENDCHAR
STARTCHAR 24D0
ENCODING 9424
SWIDTH 960 0
DWIDTH 16 0
BBX 16 16 0 -2
BITMAP
07E0
1C38
300C
6006
67C6
CC63
C063
C7E3
CC63
CC63
67D6
6006
300C
1C38
07E0
0000
ENDCHAR
STARTCHAR 24D1
ENCODING 9425
SWIDTH 960 0
DWIDTH 16 0
BBX 16 16 0 -2
BITMAP
07E0
1C38
300C
6606
6606
C603
C6C3
C763
C633
C633
6766
66C6
300C
1C38
07E0
0000
ENDCHAR
STARTCHAR 24D2
ENCODING 9426
SWIDTH 960 0
DWIDTH 16 0
BBX 16 16 0 -2
BITMAP
07E0
1C38
300C
6006
63C6
C663
CC03
CC03
CC33
C663
63C6
6006
300C
1C38
07E0
0000
ENDCHAR
STARTCHAR 24D3
ENCODING 9427
SWIDTH 960 0
DWIDTH 16 0
BBX 16 16 0 -2
BITMAP
07E0
1C38
300C
6066
6066
C063
C3A3
C6E3
CC63
CC63
66E6
63A6
300C
1C38
07E0
0000
ENDCHAR
STARTCHAR 24D4
ENCODING 9428
SWIDTH 960 0
DWIDTH 16 0
BBX 16 16 0 -2
BITMAP
07E0
1C38
300C
6006
63C6
C663
CC33
CFF3
CC03
C633
63E6
6006
300C
1C38
07E0
0000
ENDCHAR
STARTCHAR 24D5
ENCODING 9429
SWIDTH 960 0
DWIDTH 16 0
BBX 16 16 0 -2
BITMAP
07E0
1C38
300C
60E6
6186
C183
C3E3
C183
C183
C183
6186
6186
300C
1C38
07E0
0000
ENDCHAR
STARTCHAR 24D6
ENCODING 9430
SWIDTH 960 0
DWIDTH 16 0
BBX 16 16 0 -2
BITMAP
07E0
1C38
300C
63D6
6676
CC33
CC33
C673
C3D3
CC33
6666
63C6
300C
1C38
07E0
0000
ENDCHAR
STARTCHAR 24D7
ENCODING 9431
SWIDTH 960 0
DWIDTH 16 0
BBX 16 16 0 -2
BITMAP
07E0
1C38
300C
6606
6606
C603
C6C3
C763
C633
C633
6636
6636
300C
1C38
07E0
0000
ENDCHAR
STARTCHAR 24D8
ENCODING 9432
SWIDTH 960 0
DWIDTH 16 0
BBX 16 16 0 -2
BITMAP
07E0
1C38
318C
6186
6006
C003
C183
C183
C183
C183
6186
6186
300C
1C38
07E0
0000
ENDCHAR
STARTCHAR 24D9
ENCODING 9433
SWIDTH 960 0
DWIDTH 16 0
BBX 16 16 0 -2
BITMAP
07E0
1C38
30CC
60C6
6006
C003
C0C3
C0C3
C0C3
C0C3
60C6
66C6
338C
1C38
07E0
0000
ENDCHAR
STARTCHAR 24DA
ENCODING 9434
SWIDTH 960 0
DWIDTH 16 0
BBX 16 16 0 -2
BITMAP
07E0
1C38
300C
6606
6606
C603
C633
C6E3
C783
C6C3
6666
6636
300C
1C38
07E0
0000
ENDCHAR
STARTCHAR 24DB
ENCODING 9435
SWIDTH 960 0
DWIDTH 16 0
BBX 16 16 0 -2
BITMAP
07E0
1C38
318C
6186
6186
C183
C183
C183
C183
C183
6186
6186
300C
1C38
07E0
0000
ENDCHAR
STARTCHAR 24DC
ENCODING 9436
SWIDTH 960 0
DWIDTH 16 0
BBX 16 16 0 -2
BITMAP
07E0
1C38
300C
6006
6B76
DDDB
D99B
D99B
D99B
D99B
699A
6006
300C
1C38
07E0
0000
ENDCHAR
STARTCHAR 24DD
ENCODING 9437
SWIDTH 960 0
DWIDTH 16 0
BBX 16 16 0 -2
BITMAP
07E0
1C38
300C
6006
66E6
C733
C633
C633
C633
C633
6636
6006
300C
1C38
07E0
0000
ENDCHAR
STARTCHAR 24DE
ENCODING 9438
SWIDTH 960 0
DWIDTH 16 0
BBX 16 16 0 -2
BITMAP
07E0
1C38
300C
6006
63C6
C663
CC33
CC33
CC33
C663
63C6
6006
300C
1C38
07E0
0000
ENDCHAR
STARTCHAR 24DF
ENCODING 9439
SWIDTH 960 0
DWIDTH 16 0
BBX 16 16 0 -2
BITMAP
07E0
1C38
300C
6006
66C6
C763
C633
C633
C763
C6C3
6606
6606
360C
1C38
07E0
0000
ENDCHAR
STARTCHAR 24E0
ENCODING 9440
SWIDTH 960 0
DWIDTH 16 0
BBX 16 16 0 -2
BITMAP
07E0
1C38
300C
6006
63A6
C6E3
CC63
CC63
C6E3
C3A3
6066
6066
306C
1C38
07E0
0000
ENDCHAR
STARTCHAR 24E1
ENCODING 9441
SWIDTH 960 0
DWIDTH 16 0
BBX 16 16 0 -2
BITMAP
07E0
1C38
300C
6006
66E6
C703
C603
C603
C603
C603
6606
6006
300C
1C38
07E0
0000
ENDCHAR
STARTCHAR 24E2
ENCODING 9442
SWIDTH 960 0
DWIDTH 16 0
BBX 16 16 0 -2
BITMAP
07E0
1C38
300C
6006
63C6
C663
C603
C3C3
C063
C033
6666
63C6
300C
1C38
07E0
0000
ENDCHAR
STARTCHAR 24E3
ENCODING 9443
SWIDTH 960 0
DWIDTH 16 0
BBX 16 16 0 -2
BITMAP
07E0
1C38
300C
6006
6306
C303
C7C3
C303
C303
C303
6306
61C6
300C
1C38
07E0
0000
ENDCHAR
STARTCHAR 24E4
ENCODING 9444
SWIDTH 960 0
DWIDTH 16 0
BBX 16 16 0 -2
BITMAP
07E0
1C38
300C
6006
6636
C633
C633
C633
C633
C673
63D6
6006
300C
1C38
07E0
0000
ENDCHAR
STARTCHAR 24E5
ENCODING 9445
SWIDTH 960 0
DWIDTH 16 0
BBX 16 16 0 -2
BITMAP
07E0
1C38
300C
6006
6C36
CC33
C663
C663
C343
C343
6186
6186
300C
1C38
07E0
0000
ENDCHAR
STARTCHAR 24E6
ENCODING 9446
SWIDTH 960 0
DWIDTH 16 0
BBX 16 16 0 -2
BITMAP
07E0
1C38
300C
6006
699A
D99B
CDB3
CD53
CD53
C663
6666
6666
300C
1C38
07E0
0000
ENDCHAR
STARTCHAR 24E7
ENCODING 9447
SWIDTH 960 0
DWIDTH 16 0
BBX 16 16 0 -2
BITMAP
07E0
1C38
300C
6006
6666
C663
C343
C183
C343
C663
6C36
6006
300C
1C38
07E0
0000
ENDCHAR
STARTCHAR 24E8
ENCODING 9448
SWIDTH 960 0
DWIDTH 16 0
BBX 16 16 0 -2
BITMAP
07E0
1C38
300C
6006
6336
C333
C1A3
C1A3
C0C3
C0C3
6186
6706
300C
1C38
07E0
0000
ENDCHAR
STARTCHAR 24E9
ENCODING 9449
SWIDTH 960 0
DWIDTH 16 0
BBX 16 16 0 -2
BITMAP
07E0
1C38
300C
6006
67E6
C063
C0C3
C183
C303
C603
67E6
6006
300C
1C38
07E0
0000
ENDCHAR
STARTCHAR 24EB
ENCODING 9451
SWIDTH 960 0
DWIDTH 16 0
BBX 16 16 0 -2
BITMAP
07E0
1FF8
3FFC
7DDE
7BBE
FDDF
FDDF
FDDF
FDDF
FDDF
7DDE
7DDE
3FFC
1FF8
07E0
0000
ENDCHAR
STARTCHAR 24EC
ENCODING 9452
SWIDTH 960 0
DWIDTH 16 0
BBX 16 16 0 -2
BITMAP
07E0
1FF8
3FFC
7DBE
7B6E
FDEF
FDDF
FDDF
FDBF
FDBF
7D7E
7D1E
3FFC
1FF8
07E0
0000
ENDCHAR
STARTCHAR 24ED
ENCODING 9453
SWIDTH 960 0
DWIDTH 16 0
BBX 16 16 0 -2
BITMAP
07E0
1FF8
3FFC
7DBE
7B6E
FDEF
FDEF
FDBF
FDEF
FDEF
7D6E
7DBE
3FFC
1FF8
07E0
0000
ENDCHAR
STARTCHAR 24EE
ENCODING 9454
SWIDTH 960 0
DWIDTH 16 0
BBX 16 16 0 -2
BITMAP
07E0
1FF8
3FFC
7DEE
7BDE
FDAF
FDAF
FD6F
FD0F
FDEF
7DEE
7DEE
3FFC
1FF8
07E0
0000
ENDCHAR
STARTCHAR 24EF
ENCODING 9455
SWIDTH 960 0
DWIDTH 16 0
BBX 16 16 0 -2
BITMAP
07E0
1FF8
3FFC
7D1E
7B7E
FD7F
FD3F
FDEF
FDEF
FDEF
7D6E
7DBE
3FFC
1FF8
07E0
0000
ENDCHAR
STARTCHAR 24F0
ENCODING 9456
SWIDTH 960 0
DWIDTH 16 0
BBX 16 16 0 -2
BITMAP
07E0
1FF8
3FFC
7DBE
7B6E
FD7F
FD7F
FD3F
FD6F
FD6F
7D6E
7DBE
3FFC
1FF8
07E0
0000
ENDCHAR
STARTCHAR 24F1
ENCODING 9457
SWIDTH 960 0
DWIDTH 16 0
BBX 16 16 0 -2
BITMAP
07E0
1FF8
3FFC
7D1E
7BEE
FDEF
FDEF
FDDF
FDDF
FDDF
7DDE
7DDE
3FFC
1FF8
07E0
0000
ENDCHAR
STARTCHAR 24F2
ENCODING 9458
SWIDTH 960 0
DWIDTH 16 0
BBX 16 16 0 -2
BITMAP
07E0
1FF8
3FFC
7DBE
7B6E
FD6F
FD6F
FDBF
FD6F
FD6F
7D6E
7DBE
3FFC
1FF8
07E0
0000
ENDCHAR
STARTCHAR 24F3
ENCODING 9459
SWIDTH 960 0
DWIDTH 16 0
BBX 16 16 0 -2
BITMAP
07E0
1FF8
3FFC
7DBE
7B6E
FD6F
FD6F
FDBF
FDDF
FDDF
7DBE
7DBE
3FFC
1FF8
07E0
0000
ENDCHAR
STARTCHAR 24F4
ENCODING 9460
SWIDTH 960 0
DWIDTH 16 0
BBX 16 16 0 -2
BITMAP
07E0
1FF8
3FFC
7BDE
76B6
FEB7
FEB7
FDB7
FBB7
F7B7
77B6
71DE
3FFC
1FF8
07E0
0000
ENDCHAR
STARTCHAR 24F5
ENCODING 9461
SWIDTH 960 0
DWIDTH 16 0
BBX 16 16 0 -2
BITMAP
07E0
1C38
37EC
6C36
699A
D38D
D18D
D18D
D18D
D18D
699A
6C36
37EC
1C38
07E0
0000
ENDCHAR
STARTCHAR 24F6
ENCODING 9462
SWIDTH 960 0
DWIDTH 16 0
BBX 16 16 0 -2
BITMAP
07E0
1C38
37EC
6C36
6BDA
D66D
D06D
D0CD
D18D
D30D
6BEA
6C36
37EC
1C38
07E0
0000
ENDCHAR
STARTCHAR 24F7
ENCODING 9463
SWIDTH 960 0
DWIDTH 16 0
BBX 16 16 0 -2
BITMAP
07E0
1C38
37EC
6C36
6BDA
D66D
D06D
D3CD
D06D
D66D
6BDA
6C36
37EC
1C38
07E0
0000
ENDCHAR
STARTCHAR 24F8
ENCODING 9464
SWIDTH 960 0
DWIDTH 16 0
BBX 16 16 0 -2
BITMAP
07E0
1C38
37EC
6C36
68DA
D1CD
D34D
D34D
D7ED
D0CD
68DA
6C36
37EC
1C38
07E0
0000
ENDCHAR
STARTCHAR 24F9
ENCODING 9465
SWIDTH 960 0
DWIDTH 16 0
BBX 16 16 0 -2
BITMAP
07E0
1C38
37EC
6C36
6BDA
D30D
D60D
D7CD
D06D
D66D
6BDA
6C36
37EC
1C38
07E0
0000
ENDCHAR
STARTCHAR 24FA
ENCODING 9466
SWIDTH 960 0
DWIDTH 16 0
BBX 16 16 0 -2
BITMAP
07E0
1C38
37EC
6C36
6BDA
D66D
D60D
D7CD
D66D
D66D
6BDA
6C36
37EC
1C38
07E0
0000
ENDCHAR
STARTCHAR 24FB
ENCODING 9467
SWIDTH 960 0
DWIDTH 16 0
BBX 16 16 0 -2
BITMAP
07E0
1C38
37EC
6C36
6BEA
D06D
D06D
D0CD
D0CD
D18D
699A
6C36
37EC
1C38
07E0
0000
ENDCHAR
STARTCHAR 24FC
ENCODING 9468
SWIDTH 960 0
DWIDTH 16 0
BBX 16 16 0 -2
BITMAP
07E0
1C38
37EC
6C36
6BDA
D66D
D66D
D3CD
D66D
D66D
6BDA
6C36
37EC
1C38
07E0
0000
ENDCHAR
STARTCHAR 24FD
ENCODING 9469
SWIDTH 960 0
DWIDTH 16 0
BBX 16 16 0 -2
BITMAP
07E0
1C38
37EC
6C36
6BDA
D66D
D66D
D3ED
D0CD
D0CD
699A
6C36
37EC
1C38
07E0
0000
ENDCHAR
STARTCHAR 24FE
ENCODING 9470
SWIDTH 960 0
DWIDTH 16 0
BBX 16 16 0 -2
BITMAP
07E0
1C38
37EC
6C36
6AEA
D6B5
D6B5
D6B5
D6B5
D6B5
6AEA
6C36
37EC
1C38
07E0
0000
ENDCHAR
STARTCHAR 2500
ENCODING 9472
SWIDTH 960 0
DWIDTH 16 0
BBX 16 16 0 -2
BITMAP
0000
0000
0000
0000
0000
0000
0000
FFFF
0000
0000
0000
0000
0000
0000
0000
0000
ENDCHAR
STARTCHAR 2501
ENCODING 9473
SWIDTH 960 0
DWIDTH 16 0
BBX 16 16 0 -2
BITMAP
0000
0000
0000
0000
0000
0000
0000
FFFF
FFFF
0000
0000
0000
0000
0000
0000
0000
ENDCHAR
STARTCHAR 2502
ENCODING 9474
SWIDTH 960 0
DWIDTH 16 0
BBX 16 16 0 -2
BITMAP
0300
0300
0300
0300
0300
0300
0300
0300
0300
0300
0300
0300
0300
0300
0300
0300
ENDCHAR
STARTCHAR 2503
ENCODING 9475
SWIDTH 960 0
DWIDTH 16 0
BBX 16 16 0 -2
BITMAP
0380
0380
0380
0380
0380
0380
0380
0380
0380
0380
0380
0380
0380
0380
0380
0380
ENDCHAR
STARTCHAR 250C
ENCODING 9484
SWIDTH 960 0
DWIDTH 16 0
BBX 16 16 0 -2
BITMAP
0000
0000
0000
0000
0000
0000
0000
03FF
0300
0300
0300
0300
0300
0300
0300
0300
ENDCHAR
STARTCHAR 250F
ENCODING 9487
SWIDTH 960 0
DWIDTH 16 0
BBX 16 16 0 -2
BITMAP
0000
0000
0000
0000
0000
0000
0000
03FF
03FF
0380
0380
0380
0380
0380
0380
0380
ENDCHAR
STARTCHAR 2510
ENCODING 9488
SWIDTH 960 0
DWIDTH 16 0
BBX 16 16 0 -2
BITMAP
0000
0000
0000
0000
0000
0000
0000
FF00
0300
0300
0300
0300
0300
0300
0300
0300
ENDCHAR
STARTCHAR 2513
ENCODING 9491
SWIDTH 960 0
DWIDTH 16 0
BBX 16 16 0 -2
BITMAP
0000
0000
0000
0000
0000
0000
0000
FF80
FF80
0380
0380
0380
0380
0380
0380
0380
ENDCHAR
STARTCHAR 2514
ENCODING 9492
SWIDTH 960 0
DWIDTH 16 0
BBX 16 16 0 -2
BITMAP
0300
0300
0300
0300
0300
0300
0300
03FF
0000
0000
0000
0000
0000
0000
0000
0000
ENDCHAR
STARTCHAR 2517
ENCODING 9495
SWIDTH 960 0
DWIDTH 16 0
BBX 16 16 0 -2
BITMAP
0380
0380
0380
0380
0380
0380
0380
03FF
03FF
0000
0000
0000
0000
0000
0000
0000
ENDCHAR
STARTCHAR 2518
ENCODING 9496
SWIDTH 960 0
DWIDTH 16 0
BBX 16 16 0 -2
BITMAP
0300
0300
0300
0300
0300
0300
0300
FF00
0000
0000
0000
0000
0000
0000
0000
0000
ENDCHAR
STARTCHAR 251B
ENCODING 9499
SWIDTH 960 0
DWIDTH 16 0
BBX 16 16 0 -2
BITMAP
0380
0380
0380
0380
0380
0380
0380
FF80
FF80
0000
0000
0000
0000
0000
0000
0000
ENDCHAR
STARTCHAR 251C
ENCODING 9500
SWIDTH 960 0
DWIDTH 16 0
BBX 16 16 0 -2
BITMAP
0300
0300
0300
0300
0300
0300
0300
03FF
0300
0300
0300
0300
0300
0300
0300
0300
ENDCHAR
STARTCHAR 251D
ENCODING 9501
SWIDTH 960 0
DWIDTH 16 0
BBX 16 16 0 -2
BITMAP
0300
0300
0300
0300
0300
0300
0300
03FF
03FF
0300
0300
0300
0300
0300
0300
0300
ENDCHAR
STARTCHAR 2520
ENCODING 9504
SWIDTH 960 0
DWIDTH 16 0
BBX 16 16 0 -2
BITMAP
0380
0380
0380
0380
0380
0380
0380
03FF
0380
0380
0380
0380
0380
0380
0380
0380
ENDCHAR
STARTCHAR 2523
ENCODING 9507
SWIDTH 960 0
DWIDTH 16 0
BBX 16 16 0 -2
BITMAP
0380
0380
0380
0380
0380
0380
0380
03FF
03FF
0380
0380
0380
0380
0380
0380
0380
ENDCHAR
STARTCHAR 2524
ENCODING 9508
SWIDTH 960 0
DWIDTH 16 0
BBX 16 16 0 -2
BITMAP
0300
0300
0300
0300
0300
0300
0300
FF00
0300
0300
0300
0300
0300
0300
0300
0300
ENDCHAR
STARTCHAR 2525
ENCODING 9509
SWIDTH 960 0
DWIDTH 16 0
BBX 16 16 0 -2
BITMAP
0300
0300
0300
0300
0300
0300
0300
FF00
FF00
0300
0300
0300
0300
0300
0300
0300
ENDCHAR
STARTCHAR 2528
ENCODING 9512
SWIDTH 960 0
DWIDTH 16 0
BBX 16 16 0 -2
BITMAP
0380
0380
0380
0380
0380
0380
0380
FF80
0380
0380
0380
0380
0380
0380
0380
0380
ENDCHAR
STARTCHAR 252B
ENCODING 9515
SWIDTH 960 0
DWIDTH 16 0
BBX 16 16 0 -2
BITMAP
0380
0380
0380
0380
0380
0380
0380
FF80
FF80
0380
0380
0380
0380
0380
0380
0380
ENDCHAR
STARTCHAR 252C
ENCODING 9516
SWIDTH 960 0
DWIDTH 16 0
BBX 16 16 0 -2
BITMAP
0000
0000
0000
0000
0000
0000
0000
FFFF
0300
0300
0300
0300
0300
0300
0300
0300
ENDCHAR
STARTCHAR 252F
ENCODING 9519
SWIDTH 960 0
DWIDTH 16 0
BBX 16 16 0 -2
BITMAP
0000
0000
0000
0000
0000
0000
0000
FFFF
FFFF
0300
0300
0300
0300
0300
0300
0300
ENDCHAR
STARTCHAR 2530
ENCODING 9520
SWIDTH 960 0
DWIDTH 16 0
BBX 16 16 0 -2
BITMAP
0000
0000
0000
0000
0000
0000
0000
FFFF
0380
0380
0380
0380
0380
0380
0380
0380
ENDCHAR
STARTCHAR 2533
ENCODING 9523
SWIDTH 960 0
DWIDTH 16 0
BBX 16 16 0 -2
BITMAP
0000
0000
0000
0000
0000
0000
0000
FFFF
FFFF
0380
0380
0380
0380
0380
0380
0380
ENDCHAR
STARTCHAR 2534
ENCODING 9524
SWIDTH 960 0
DWIDTH 16 0
BBX 16 16 0 -2
BITMAP
0300
0300
0300
0300
0300
0300
0300
FFFF
0000
0000
0000
0000
0000
0000
0000
0000
ENDCHAR
STARTCHAR 2537
ENCODING 9527
SWIDTH 960 0
DWIDTH 16 0
BBX 16 16 0 -2
BITMAP
0300
0300
0300
0300
0300
0300
0300
FFFF
FFFF
0000
0000
0000
0000
0000
0000
0000
ENDCHAR
STARTCHAR 2538
ENCODING 9528
SWIDTH 960 0
DWIDTH 16 0
BBX 16 16 0 -2
BITMAP
0380
0380
0380
0380
0380
0380
0380
FFFF
0000
0000
0000
0000
0000
0000
0000
0000
ENDCHAR
STARTCHAR 253B
ENCODING 9531
SWIDTH 960 0
DWIDTH 16 0
BBX 16 16 0 -2
BITMAP
0380
0380
0380
0380
0380
0380
0380
FFFF
FFFF
0000
0000
0000
0000
0000
0000
0000
ENDCHAR
STARTCHAR 253C
ENCODING 9532
SWIDTH 960 0
DWIDTH 16 0
BBX 16 16 0 -2
BITMAP
0300
0300
0300
0300
0300
0300
0300
FFFF
0300
0300
0300
0300
0300
0300
0300
0300
ENDCHAR
STARTCHAR 253F
ENCODING 9535
SWIDTH 960 0
DWIDTH 16 0
BBX 16 16 0 -2
BITMAP
0300
0300
0300
0300
0300
0300
0300
FFFF
FFFF
0300
0300
0300
0300
0300
0300
0300
ENDCHAR
STARTCHAR 2542
ENCODING 9538
SWIDTH 960 0
DWIDTH 16 0
BBX 16 16 0 -2
BITMAP
0380
0380
0380
0380
0380
0380
0380
FFFF
0380
0380
0380
0380
0380
0380
0380
0380
ENDCHAR
STARTCHAR 254B
ENCODING 9547
SWIDTH 960 0
DWIDTH 16 0
BBX 16 16 0 -2
BITMAP
0380
0380
0380
0380
0380
0380
0380
FFFF
FFFF
0380
0380
0380
0380
0380
0380
0380
ENDCHAR
STARTCHAR 25A0
ENCODING 9632
SWIDTH 960 0
DWIDTH 16 0
BBX 16 16 0 -2
BITMAP
0000
FFFE
FFFE
FFFE
FFFE
FFFE
FFFE
FFFE
FFFE
FFFE
FFFE
FFFE
FFFE
FFFE
FFFE
0000
ENDCHAR
STARTCHAR 25A1
ENCODING 9633
SWIDTH 960 0
DWIDTH 16 0
BBX 16 16 0 -2
BITMAP
0000
FFFE
C006
C006
C006
C006
C006
C006
C006
C006
C006
C006
C006
C006
FFFE
0000
ENDCHAR
STARTCHAR 25B1
ENCODING 9649
SWIDTH 960 0
DWIDTH 16 0
BBX 16 16 0 -2
BITMAP
0000
0000
0000
0000
0FFF
0C06
1806
180C
300C
3018
6018
6030
FFF0
0000
0000
0000
ENDCHAR
STARTCHAR 25B2
ENCODING 9650
SWIDTH 960 0
DWIDTH 16 0
BBX 16 16 0 -2
BITMAP
0000
0000
0180
0180
03C0
03C0
07E0
07E0
0FF0
0FF0
1FF8
1FF8
3FFC
7FFE
0000
0000
ENDCHAR
STARTCHAR 25B3
ENCODING 9651
SWIDTH 960 0
DWIDTH 16 0
BBX 16 16 0 -2
BITMAP
0000
0000
0180
0180
0340
0340
0660
0660
0C30
0C30
1818
1818
300C
7FFE
0000
0000
ENDCHAR
STARTCHAR 25B6
ENCODING 9654
SWIDTH 960 0
DWIDTH 16 0
BBX 16 16 0 -2
BITMAP
0000
6000
7800
7E00
7F80
7FE0
7FF8
7FFE
7FF8
7FE0
7F80
7E00
7800
6000
0000
0000
ENDCHAR
STARTCHAR 25B7
ENCODING 9655
SWIDTH 960 0
DWIDTH 16 0
BBX 16 16 0 -2
BITMAP
0000
6000
7800
6E00
6380
60E0
6038
600E
6038
60E0
6380
6E00
7800
6000
0000
0000
ENDCHAR
STARTCHAR 25BC
ENCODING 9660
SWIDTH 960 0
DWIDTH 16 0
BBX 16 16 0 -2
BITMAP
0000
0000
7FFE
3FFC
1FF8
1FF8
0FF0
0FF0
07E0
07E0
03C0
03C0
0180
0180
0000
0000
ENDCHAR
STARTCHAR 25BD
ENCODING 9661
SWIDTH 960 0
DWIDTH 16 0
BBX 16 16 0 -2
BITMAP
0000
0000
7FFE
300C
1818
1818
0C30
0C30
0660
0660
0340
0340
0180
0180
0000
0000
ENDCHAR
STARTCHAR 25C0
ENCODING 9664
SWIDTH 960 0
DWIDTH 16 0
BBX 16 16 0 -2
BITMAP
0000
0006
001E
007E
01FE
07FE
1FFE
7FFE
1FFE
07FE
01FE
007E
001E
0006
0000
0000
ENDCHAR
STARTCHAR 25C1
ENCODING 9665
SWIDTH 960 0
DWIDTH 16 0
BBX 16 16 0 -2
BITMAP
0000
0006
001E
0076
01C6
0706
1C06
7006
1C06
0706
01C6
0076
001E
0006
0000
0000
ENDCHAR
STARTCHAR 25C6
ENCODING 9670
SWIDTH 960 0
DWIDTH 16 0
BBX 16 16 0 -2
BITMAP
0000
0380
07C0
0FE0
1FF0
3FF8
7FFC
FFFE
FFFE
7FFC
3FF8
1FF0
0FE0
07C0
0380
0000
ENDCHAR
STARTCHAR 25C7
ENCODING 9671
SWIDTH 960 0
DWIDTH 16 0
BBX 16 16 0 -2
BITMAP
0000
0380
06C0
0C60
1830
3018
600C
C006
C006
600C
3018
1830
0C60
06C0
0380
0000
ENDCHAR
STARTCHAR 25C9
ENCODING 9673
SWIDTH 960 0
DWIDTH 16 0
BBX 16 16 0 -2
BITMAP
0000
07C0
1C70
3398
6FEC
6FF4
DFF6
DFFA
DFFA
DFF6
6FF4
6FEC
3398
1C70
07C0
0000
ENDCHAR
STARTCHAR 25CB
ENCODING 9675
SWIDTH 960 0
DWIDTH 16 0
BBX 16 16 0 -2
BITMAP
0000
07C0
1C70
3018
600C
600C
C006
C006
C006
C006
600C
600C
3018
1C70
07C0
0000
ENDCHAR
STARTCHAR 25CE
ENCODING 9678
SWIDTH 960 0
DWIDTH 16 0
BBX 16 16 0 -2
BITMAP
0000
07C0
1C70
3018
67CC
6C6C
D836
D836
D836
D836
6C6C
67CC
3018
1C70
07C0
0000
ENDCHAR
STARTCHAR 25CF
ENCODING 9679
SWIDTH 960 0
DWIDTH 16 0
BBX 16 16 0 -2
BITMAP
0000
07C0
1FF0
3FF8
7FFC
7FFC
FFFE
FFFE
FFFE
FFFE
7FFC
7FFC
3FF8
1FF0
07C0
0000
ENDCHAR
STARTCHAR 25D0
ENCODING 9680
SWIDTH 960 0
DWIDTH 16 0
BBX 16 16 0 -2
BITMAP
07E0
1FB8
3F8C
7F86
7F86
FF83
FF83
FF83
FF83
FF83
7F86
7F86
3F8C
1FB8
07E0
0000
ENDCHAR
STARTCHAR 25D1
ENCODING 9681
SWIDTH 960 0
DWIDTH 16 0
BBX 16 16 0 -2
BITMAP
07E0
1DF8
31FC
61FE
61FE
C1FF
C1FF
C1FF
C1FF
C1FF
61FE
61FE
31FC
1DF8
07E0
0000
ENDCHAR
STARTCHAR 25D2
ENCODING 9682
SWIDTH 960 0
DWIDTH 16 0
BBX 16 16 0 -2
BITMAP
07E0
1C38
300C
6006
6006
C003
C003
FFFF
FFFF
FFFF
7FFE
7FFE
3FFC
1FF8
07E0
0000
ENDCHAR
STARTCHAR 25D3
ENCODING 9683
SWIDTH 960 0
DWIDTH 16 0
BBX 16 16 0 -2
BITMAP
07E0
1FF8
3FFC
7FFE
7FFE
FFFF
FFFF
FFFF
C003
C003
6006
6006
300C
1C38
07E0
0000
ENDCHAR
STARTCHAR 25E6
ENCODING 9702
SWIDTH 960 0
DWIDTH 16 0
BBX 16 16 0 -2
BITMAP
0000
0000
0000
0000
0380
06C0
0C60
0C60
06C0
0380
0000
0000
0000
0000
0000
0000
ENDCHAR
STARTCHAR 25EF
ENCODING 9711
SWIDTH 960 0
DWIDTH 16 0
BBX 16 16 0 -2
BITMAP
0000
07C0
1C70
3018
600C
600C
C006
C006
C006
C006
600C
600C
3018
1C70
07C0
0000
ENDCHAR
STARTCHAR 2600
ENCODING 9728
SWIDTH 960 0
DWIDTH 16 0
BBX 16 16 0 -2
BITMAP
0180
6186
318C
1818
03C0
07E0
0FF0
F7F7
0FF0
07E0
03C0
1818
318C
6186
0180
0000
ENDCHAR
STARTCHAR 2601
ENCODING 9729
SWIDTH 960 0
DWIDTH 16 0
BBX 16 16 0 -2
BITMAP
0000
0000
0F80
1FC0
1FEC
7FFE
FFFE
FFFC
FFFE
FFFE
7DFE
00FC
0000
0000
0000
0000
ENDCHAR
STARTCHAR 2602
ENCODING 9730
SWIDTH 960 0
DWIDTH 16 0
BBX 16 16 0 -2
BITMAP
0180
0180
0FF0
3FFC
7FFE
7FFE
FFFF
EEBB
CDB3
0180
0180
0180
0180
0D80
0700
0000
ENDCHAR
STARTCHAR 2603
ENCODING 9731
SWIDTH 960 0
DWIDTH 16 0
BBX 16 16 0 -2
BITMAP
31FC
0FF8
D8FB
301C
36EC
D6EC
300D
DADA
738E
C003
C383
C003
6386
381C
0FF0
0000
ENDCHAR
STARTCHAR 2605
ENCODING 9733
SWIDTH 960 0
DWIDTH 16 0
BBX 16 16 0 -2
BITMAP
0000
0180
0180
03C0
03C0
07E0
7FFE
3FFC
1FF8
0FF0
0FF0
1F78
1E78
3C3C
300C
0000
ENDCHAR
STARTCHAR 2606
ENCODING 9734
SWIDTH 960 0
DWIDTH 16 0
BBX 16 16 0 -2
BITMAP
0000
0180
0340
0340
0660
0660
7E7E
300C
1818
0C30
0C30
1998
1B58
3674
381C
0000
ENDCHAR
STARTCHAR 260E
ENCODING 9742
SWIDTH 960 0
DWIDTH 16 0
BBX 16 16 0 -2
BITMAP
0000
3FFC
7FFE
FB6F
FBEF
F7EF
1FF8
3E7C
3C3C
7C3E
7C3E
7E7E
7FFE
3FFC
0000
0000
ENDCHAR
STARTCHAR 2616
ENCODING 9750
SWIDTH 960 0
DWIDTH 16 0
BBX 16 16 0 -2
BITMAP
0000
03C0
0E70
381C
300C
300C
300C
300C
6006
6006
6006
6006
6006
6006
7FFE
0000
ENDCHAR
STARTCHAR 2617
ENCODING 9751
SWIDTH 960 0
DWIDTH 16 0
BBX 16 16 0 -2
BITMAP
0000
03C0
0FF0
3FFC
3FFC
3FFC
3FFC
3FFC
7FFE
7FFE
7FFE
7FFE
7FFE
7FFE
7FFE
0000
ENDCHAR
STARTCHAR 261E
ENCODING 9758
SWIDTH 960 0
DWIDTH 16 0
BBX 16 16 0 -2
BITMAP
0000
0000
0000
3FFE
E603
CDFE
DAA0
D3C0
C0C0
C780
E180
3F00
0000
0000
0000
0000
ENDCHAR
STARTCHAR 2640
ENCODING 9792
SWIDTH 960 0
DWIDTH 16 0
BBX 16 16 0 -2
BITMAP
07C0
0C60
1830
1830
1830
1830
0C60
07C0
0300
0300
3FF8
0300
0300
0300
0300
0000
ENDCHAR
STARTCHAR 2642
ENCODING 9794
SWIDTH 960 0
DWIDTH 16 0
BBX 16 16 0 -2
BITMAP
0000
01FE
000E
001A
0036
0066
00C6
3E86
6300
C180
C180
C180
C180
6300
3E00
0000
ENDCHAR
STARTCHAR 2660
ENCODING 9824
SWIDTH 960 0
DWIDTH 16 0
BBX 16 16 0 -2
BITMAP
0000
0180
03C0
07E0
0FF0
1FF8
3FFC
3FFC
7FFE
7FFE
7FFE
3EBC
0180
03C0
07E0
0000
ENDCHAR
STARTCHAR 2661
ENCODING 9825
SWIDTH 960 0
DWIDTH 16 0
BBX 16 16 0 -2
BITMAP
0000
0000
1E78
334C
6186
6186
6006
6006
300C
300C
1818
0C30
0660
0340
0180
0000
ENDCHAR
STARTCHAR 2662
ENCODING 9826
SWIDTH 960 0
DWIDTH 16 0
BBX 16 16 0 -2
BITMAP
0180
0180
0340
0340
0660
0C30
1818
300C
1818
0C30
0660
0340
0340
0180
0180
0000
ENDCHAR
STARTCHAR 2663
ENCODING 9827
SWIDTH 960 0
DWIDTH 16 0
BBX 16 16 0 -2
BITMAP
0000
03C0
07E0
0FF0
0FF0
07E0
1DD8
3EBC
7FFE
7FFE
7FFE
3EBC
1DB8
03C0
07E0
0000
ENDCHAR
STARTCHAR 2664
ENCODING 9828
SWIDTH 960 0
DWIDTH 16 0
BBX 16 16 0 -2
BITMAP
0000
0180
0340
0660
0C30
1818
300C
300C
6006
6006
63C6
3EBC
0180
0340
07E0
0000
ENDCHAR
STARTCHAR 2665
ENCODING 9829
SWIDTH 960 0
DWIDTH 16 0
BBX 16 16 0 -2
BITMAP
0000
0000
1E78
3F7C
7FFE
7FFE
7FFE
7FFE
3FFC
3FFC
1FF8
0FF0
07E0
03C0
0180
0000
ENDCHAR
STARTCHAR 2666
ENCODING 9830
SWIDTH 960 0
DWIDTH 16 0
BBX 16 16 0 -2
BITMAP
0180
0180
03C0
03C0
07E0
0FF0
1FF8
3FFC
1FF8
0FF0
07E0
03C0
03C0
0180
0180
0000
ENDCHAR
STARTCHAR 2667
ENCODING 9831
SWIDTH 960 0
DWIDTH 16 0
BBX 16 16 0 -2
BITMAP
0000
03C0
0660
0C30
0C30
0660
1E78
334C
6006
6006
63C6
36AC
1DB8
0340
07E0
0000
ENDCHAR
STARTCHAR 2668
ENCODING 9832
SWIDTH 960 0
DWIDTH 16 0
BBX 16 16 0 -2
BITMAP
0000
0180
0D30
1B60
1B60
1B60
35B0
6DB4
CDB6
D9A6
C306
600C
3838
0FE0
0000
0000
ENDCHAR
STARTCHAR 2669
ENCODING 9833
SWIDTH 960 0
DWIDTH 16 0
BBX 16 16 0 -2
BITMAP
0060
0060
0060
0060
0060
0060
0060
0060
0060
0060
0060
07E0
0FE0
0FC0
0780
0000
ENDCHAR
STARTCHAR 266A
ENCODING 9834
SWIDTH 960 0
DWIDTH 16 0
BBX 16 16 0 -2
BITMAP
0180
0180
01C0
01E0
01B0
01B8
019C
018C
018C
0198
01B0
1F80
3F80
3F00
1E00
0000
ENDCHAR
STARTCHAR 266B
ENCODING 9835
SWIDTH 960 0
DWIDTH 16 0
BBX 16 16 0 -2
BITMAP
0780
07F0
07FE
06FE
061E
0606
0606
0606
0606
3E06
7E06
7C3E
387E
007C
0038
0000
ENDCHAR
STARTCHAR 266C
ENCODING 9836
SWIDTH 960 0
DWIDTH 16 0
BBX 16 16 0 -2
BITMAP
0780
07F0
06FE
079E
07F6
06FE
061E
0606
0606
3E06
7E06
7C3E
387E
007C
0038
0000
ENDCHAR
STARTCHAR 266D
ENCODING 9837
SWIDTH 960 0
DWIDTH 16 0
BBX 16 16 0 -2
BITMAP
0C00
0C00
0C00
0C00
0C00
0C00
0DE0
0E70
0C70
0C70
0CE0
0DC0
0D80
0E00
0C00
0000
ENDCHAR
STARTCHAR 266E
ENCODING 9838
SWIDTH 960 0
DWIDTH 16 0
BBX 16 16 0 -2
BITMAP
0C00
0C00
0C00
0CF0
0FF0
0FB0
0C30
0C30
0C30
0DF0
0FF0
0F30
0030
0030
0030
0000
ENDCHAR
STARTCHAR 266F
ENCODING 9839
SWIDTH 960 0
DWIDTH 16 0
BBX 16 16 0 -2
BITMAP
0060
0C60
0C60
0C7C
0FFC
7FE0
7C60
0C60
0C7C
0FFC
7FE0
7C60
0C60
0C60
0C00
0000
ENDCHAR
STARTCHAR 2713
ENCODING 10003
SWIDTH 960 0
DWIDTH 16 0
BBX 16 16 0 -2
BITMAP
0000
0000
0000
000C
0018
0030
0060
00C0
E180
7300
3B00
1E00
0E00
0C00
0000
0000
ENDCHAR
STARTCHAR 2756
ENCODING 10070
SWIDTH 960 0
DWIDTH 16 0
BBX 16 16 0 -2
BITMAP
0000
0180
03C0
07E0
07E0
1BD8
3DBC
7E7E
7E7E
3DBC
1BD8
07E0
07E0
03C0
0180
0000
ENDCHAR
STARTCHAR 2776
ENCODING 10102
SWIDTH 960 0
DWIDTH 16 0
BBX 16 16 0 -2
BITMAP
07E0
1FF8
3FFC
7F7E
7EFE
FF7F
FF7F
FF7F
FF7F
FF7F
7F7E
7F7E
3FFC
1FF8
07E0
0000
ENDCHAR
STARTCHAR 2777
ENCODING 10103
SWIDTH 960 0
DWIDTH 16 0
BBX 16 16 0 -2
BITMAP
07E0
1FF8
3FFC
7E7E
7DDE
FFDF
FFBF
FF7F
FEFF
FDFF
7DFE
7C3E
3FFC
1FF8
07E0
0000
ENDCHAR
STARTCHAR 2778
ENCODING 10104
SWIDTH 960 0
DWIDTH 16 0
BBX 16 16 0 -2
BITMAP
07E0
1FF8
3FFC
7E7E
7DDE
FFDF
FFDF
FF7F
FFDF
FDDF
7DDE
7E7E
3FFC
1FF8
07E0
0000
ENDCHAR
STARTCHAR 2779
ENCODING 10105
SWIDTH 960 0
DWIDTH 16 0
BBX 16 16 0 -2
BITMAP
07E0
1FF8
3FFC
7FBE
7F7E
FEBF
FDBF
FDBF
F81F
FFBF
7FBE
7FBE
3FFC
1FF8
07E0
0000
ENDCHAR
STARTCHAR 277A
ENCODING 10106
SWIDTH 960 0
DWIDTH 16 0
BBX 16 16 0 -2
BITMAP
07E0
1FF8
3FFC
7C3E
7DFE
FDFF
FC7F
FFDF
FFDF
FDDF
7DDE
7E7E
3FFC
1FF8
07E0
0000
ENDCHAR
STARTCHAR 277B
ENCODING 10107
SWIDTH 960 0
DWIDTH 16 0
BBX 16 16 0 -2
BITMAP
07E0
1FF8
3FFC
7E7E
7DDE
FDFF
FDFF
FC7F
FDDF
FDDF
7DDE
7E7E
3FFC
1FF8
07E0
0000
ENDCHAR
STARTCHAR 277C
ENCODING 10108
SWIDTH 960 0
DWIDTH 16 0
BBX 16 16 0 -2
BITMAP
07E0
1FF8
3FFC
7C3E
7FDE
FFDF
FFBF
FFBF
FFBF
FF7F
7F7E
7F7E
3FFC
1FF8
07E0
0000
ENDCHAR
STARTCHAR 277D
ENCODING 10109
SWIDTH 960 0
DWIDTH 16 0
BBX 16 16 0 -2
BITMAP
07E0
1FF8
3FFC
7E7E
7DDE
FDDF
FDDF
FE7F
FDDF
FDDF
7DDE
7E7E
3FFC
1FF8
07E0
0000
ENDCHAR
STARTCHAR 277E
ENCODING 10110
SWIDTH 960 0
DWIDTH 16 0
BBX 16 16 0 -2
BITMAP
07E0
1FF8
3FFC
7E7E
7DDE
FDDF
FDDF
FE7F
FFBF
FFBF
7F7E
7F7E
3FFC
1FF8
07E0
0000
ENDCHAR
STARTCHAR 277F
ENCODING 10111
SWIDTH 960 0
DWIDTH 16 0
BBX 16 16 0 -2
BITMAP
07E0
1FF8
3FFC
7DBE
7B6E
FD6F
FD6F
FD6F
FD6F
FD6F
7D6E
7DBE
3FFC
1FF8
07E0
0000
ENDCHAR
STARTCHAR 2934
ENCODING 10548
SWIDTH 960 0
DWIDTH 16 0
BBX 16 16 0 -2
BITMAP
0000
0018
0018
003C
006A
0018
0018
0018
0030
0030
0060
01C0
FF00
0000
0000
0000
ENDCHAR
STARTCHAR 2935
ENCODING 10549
SWIDTH 960 0
DWIDTH 16 0
BBX 16 16 0 -2
BITMAP
0000
0000
FF00
01C0
0060
0030
0030
0018
0018
0018
006A
003C
0018
0018
0000
0000
ENDCHAR
STARTCHAR 29BF
ENCODING 10687
SWIDTH 960 0
DWIDTH 16 0
BBX 16 16 0 -2
BITMAP
0000
07C0
1C70
3018
600C
638C
C7C6
CFE6
CFE6
C7C6
638C
600C
3018
1C70
07C0
0000
ENDCHAR
STARTCHAR 29FA
ENCODING 10746
SWIDTH 960 0
DWIDTH 16 0
BBX 16 16 0 -2
BITMAP
0000
0C60
0C60
0C60
0C60
0C60
0C60
FFFE
0C60
0C60
0C60
0C60
0C60
0C60
0000
0000
ENDCHAR
STARTCHAR 29FB
ENCODING 10747
SWIDTH 960 0
DWIDTH 16 0
BBX 16 16 0 -2
BITMAP
0000
0DB0
0DB0
0DB0
0DB0
0DB0
0DB0
7FFE
0DB0
0DB0
0DB0
0DB0
0DB0
0DB0
0000
0000
ENDCHAR
STARTCHAR 3000
ENCODING 12288
SWIDTH 960 0
DWIDTH 16 0
BBX 16 16 0 -2
BITMAP
0000
0000
0000
0000
0000
0000
0000
0000
0000
0000
0000
0000
0000
0000
0000
0000
ENDCHAR
STARTCHAR 3001
ENCODING 12289
SWIDTH 960 0
DWIDTH 16 0
BBX 16 16 0 -2
BITMAP
0000
0000
0000
0000
0000
0000
0000
0000
0000
0000
0000
0000
C000
6000
3000
0000
ENDCHAR
STARTCHAR 3002
ENCODING 12290
SWIDTH 960 0
DWIDTH 16 0
BBX 16 16 0 -2
BITMAP
0000
0000
0000
0000
0000
0000
0000
0000
0000
0000
0000
7000
D800
D800
7000
0000
ENDCHAR
STARTCHAR 3003
ENCODING 12291
SWIDTH 960 0
DWIDTH 16 0
BBX 16 16 0 -2
BITMAP
0000
0000
0000
0000
0000
0630
0630
0630
0630
0C60
0C60
0C60
18C0
0000
0000
0000
ENDCHAR
STARTCHAR 3005
ENCODING 12293
SWIDTH 960 0
DWIDTH 16 0
BBX 16 16 0 -2
BITMAP
0000
0000
0600
0600
0600
07F0
0630
0C30
0C60
1860
3740
0180
00C0
0060
0000
0000
ENDCHAR
STARTCHAR 3006
ENCODING 12294
SWIDTH 960 0
DWIDTH 16 0
BBX 16 16 0 -2
BITMAP
0000
0006
000C
0018
0E30
1BA0
30C0
31A0
3370
6600
6C00
6800
7000
6000
C000
0000
ENDCHAR
STARTCHAR 3007
ENCODING 12295
SWIDTH 960 0
DWIDTH 16 0
BBX 16 16 0 -2
BITMAP
0000
0000
0FE0
3838
600C
600C
C006
C006
C006
C006
600C
600C
3838
0FE0
0000
0000
ENDCHAR
STARTCHAR 3008
ENCODING 12296
SWIDTH 960 0
DWIDTH 16 0
BBX 16 16 0 -2
BITMAP
0018
0030
0030
0060
00C0
00C0
0180
0300
0300
0180
00C0
00C0
0060
0030
0030
0018
ENDCHAR
STARTCHAR 3009
ENCODING 12297
SWIDTH 960 0
DWIDTH 16 0
BBX 16 16 0 -2
BITMAP
3000
1800
1800
0C00
0600
0600
0300
0180
0180
0300
0600
0600
0C00
1800
1800
3000
ENDCHAR
STARTCHAR 300A
ENCODING 12298
SWIDTH 960 0
DWIDTH 16 0
BBX 16 16 0 -2
BITMAP
0036
006C
006C
00D8
01B0
01B0
0360
06C0
06C0
0360
01B0
01B0
00D8
006C
006C
0036
ENDCHAR
STARTCHAR 300B
ENCODING 12299
SWIDTH 960 0
DWIDTH 16 0
BBX 16 16 0 -2
BITMAP
D800
6C00
6C00
3600
1B00
1B00
0D80
06C0
06C0
0D80
1B00
1B00
3600
6C00
6C00
D800
ENDCHAR
STARTCHAR 300C
ENCODING 12300
SWIDTH 960 0
DWIDTH 16 0
BBX 16 16 0 -2
BITMAP
01F8
0180
0180
0180
0180
0180
0180
0180
0180
0180
0180
0000
0000
0000
0000
0000
ENDCHAR
STARTCHAR 300D
ENCODING 12301
SWIDTH 960 0
DWIDTH 16 0
BBX 16 16 0 -2
BITMAP
0000
0000
0000
0000
0000
0300
0300
0300
0300
0300
0300
0300
0300
0300
0300
3F00
ENDCHAR
STARTCHAR 300E
ENCODING 12302
SWIDTH 960 0
DWIDTH 16 0
BBX 16 16 0 -2
BITMAP
03F8
0318
0378
0340
0340
0340
0340
0340
0340
0340
03C0
0000
0000
0000
0000
0000
ENDCHAR
STARTCHAR 300F
ENCODING 12303
SWIDTH 960 0
DWIDTH 16 0
BBX 16 16 0 -2
BITMAP
0000
0000
0000
0000
0000
0780
0680
0680
0680
0680
0680
0680
0680
3E80
3180
3F80
ENDCHAR
STARTCHAR 3010
ENCODING 12304
SWIDTH 960 0
DWIDTH 16 0
BBX 16 16 0 -2
BITMAP
01F8
01F0
01E0
01C0
01C0
0180
0180
0180
0180
0180
0180
01C0
01C0
01E0
01F0
01F8
ENDCHAR
STARTCHAR 3011
ENCODING 12305
SWIDTH 960 0
DWIDTH 16 0
BBX 16 16 0 -2
BITMAP
3F00
1F00
0F00
0700
0700
0300
0300
0300
0300
0300
0300
0700
0700
0F00
1F00
3F00
ENDCHAR
STARTCHAR 3012
ENCODING 12306
SWIDTH 960 0
DWIDTH 16 0
BBX 16 16 0 -2
BITMAP
0000
FFFE
FFFE
0000
0000
FFFE
FFFE
0380
0380
0380
0380
0380
0380
0380
0380
0000
ENDCHAR
STARTCHAR 3013
ENCODING 12307
SWIDTH 960 0
DWIDTH 16 0
BBX 16 16 0 -2
BITMAP
0000
0000
FFFE
FFFE
FFFE
FFFE
0000
0000
0000
FFFE
FFFE
FFFE
FFFE
0000
0000
0000
ENDCHAR
STARTCHAR 3014
ENCODING 12308
SWIDTH 960 0
DWIDTH 16 0
BBX 16 16 0 -2
BITMAP
0018
0070
01C0
0180
0180
0180
0180
0180
0180
0180
0180
0180
0180
01C0
0070
0018
ENDCHAR
STARTCHAR 3015
ENCODING 12309
SWIDTH 960 0
DWIDTH 16 0
BBX 16 16 0 -2
BITMAP
3000
1C00
0700
0300
0300
0300
0300
0300
0300
0300
0300
0300
0300
0700
1C00
3000
ENDCHAR
STARTCHAR 3016
ENCODING 12310
SWIDTH 960 0
DWIDTH 16 0
BBX 16 16 0 -2
BITMAP
03FC
0318
0330
0360
0360
0340
0340
0340
0340
0340
0340
0360
0360
0330
0318
03FC
ENDCHAR
STARTCHAR 3017
ENCODING 12311
SWIDTH 960 0
DWIDTH 16 0
BBX 16 16 0 -2
BITMAP
7F80
3180
1980
0D80
0D80
0680
0680
0680
0680
0680
0680
0D80
0D80
1980
3180
7F80
ENDCHAR
STARTCHAR 3018
ENCODING 12312
SWIDTH 960 0
DWIDTH 16 0
BBX 16 16 0 -2
BITMAP
003C
00E0
039C
0370
0360
0360
0360
0360
0360
0360
0360
0360
0370
039C
00E0
003C
ENDCHAR
STARTCHAR 3019
ENCODING 12313
SWIDTH 960 0
DWIDTH 16 0
BBX 16 16 0 -2
BITMAP
7800
0E00
7380
1D80
0D80
0D80
0D80
0D80
0D80
0D80
0D80
0D80
1D80
7380
0E00
7800
ENDCHAR
STARTCHAR 301C
ENCODING 12316
SWIDTH 960 0
DWIDTH 16 0
BBX 16 16 0 -2
BITMAP
0000
0000
0000
0000
0000
0000
3C00
6706
C1CC
0078
0000
0000
0000
0000
0000
0000
ENDCHAR
STARTCHAR 301D
ENCODING 12317
SWIDTH 960 0
DWIDTH 16 0
BBX 16 16 0 -2
BITMAP
0000
0330
0198
00CC
0000
0000
0000
0000
0000
0000
0000
0000
0000
0000
0000
0000
ENDCHAR
STARTCHAR 301F
ENCODING 12319
SWIDTH 960 0
DWIDTH 16 0
BBX 16 16 0 -2
BITMAP
0000
0000
0000
0000
0000
0000
0000
0000
0000
0000
0000
0000
6600
3300
1980
0000
ENDCHAR
STARTCHAR 3020
ENCODING 12320
SWIDTH 960 0
DWIDTH 16 0
BBX 16 16 0 -2
BITMAP
0000
7FFC
7FFC
0000
7FFC
7FFC
638C
DBB6
D5AA
DBB6
638C
6C68
37D8
1C70
07C0
0000
ENDCHAR
STARTCHAR 3033
ENCODING 12339
SWIDTH 960 0
DWIDTH 16 0
BBX 16 16 0 -2
BITMAP
0000
0C00
0C00
0C00
0600
0600
0300
0300
0180
0180
00C0
00C0
00C0
0060
0060
0060
ENDCHAR
STARTCHAR 3034
ENCODING 12340
SWIDTH 960 0
DWIDTH 16 0
BBX 16 16 0 -2
BITMAP
0000
0C00
0C00
0C00
0600
0618
0334
0318
0180
0180
00C0
00C0
00C0
0060
0060
0060
ENDCHAR
STARTCHAR 3035
ENCODING 12341
SWIDTH 960 0
DWIDTH 16 0
BBX 16 16 0 -2
BITMAP
0060
0060
0060
00C0
00C0
00C0
0180
0180
0300
0300
0600
0600
0C00
0C00
0C00
0000
ENDCHAR
STARTCHAR 303B
ENCODING 12347
SWIDTH 960 0
DWIDTH 16 0
BBX 16 16 0 -2
BITMAP
0000
0000
0600
0300
0180
00E0
0380
0600
0300
0180
00C0
0060
0030
0000
0000
0000
ENDCHAR
STARTCHAR 303C
ENCODING 12348
SWIDTH 960 0
DWIDTH 16 0
BBX 16 16 0 -2
BITMAP
0000
FFFE
C00E
C01A
C036
C066
C0C6
C186
C306
C606
CC06
D806
D006
E006
FFFE
0000
ENDCHAR
STARTCHAR 303D
ENCODING 12349
SWIDTH 960 0
DWIDTH 16 0
BBX 16 16 0 -2
BITMAP
0000
1C00
34E0
76B0
0730
0030
0018
0018
0018
000C
000C
0006
0006
0006
0000
0000
ENDCHAR
STARTCHAR 3041
ENCODING 12353
SWIDTH 960 0
DWIDTH 16 0
BBX 16 16 0 -2
BITMAP
0000
0000
0000
0000
0000
0300
0360
1F80
0600
07E0
0ED0
1AD8
3398
3318
1E30
00E0
ENDCHAR
STARTCHAR 3042
ENCODING 12354
SWIDTH 960 0
DWIDTH 16 0
BBX 16 16 0 -2
BITMAP
0000
0300
0300
0360
3F80
0600
0660
07F8
0E6C
1AC6
3686
6306
660C
3C18
0070
0000
ENDCHAR
STARTCHAR 3043
ENCODING 12355
SWIDTH 960 0
DWIDTH 16 0
BBX 16 16 0 -2
BITMAP
0000
0000
0000
0000
0000
0000
0000
3000
3060
3030
3030
3018
1818
1A00
0C00
0000
ENDCHAR
STARTCHAR 3044
ENCODING 12356
SWIDTH 960 0
DWIDTH 16 0
BBX 16 16 0 -2
BITMAP
0000
0000
0000
3000
3000
3030
3018
3018
300C
300C
300C
1B00
1A00
0C00
0000
0000
ENDCHAR
STARTCHAR 3045
ENCODING 12357
SWIDTH 960 0
DWIDTH 16 0
BBX 16 16 0 -2
BITMAP
0000
0000
0000
0000
0000
0380
00E0
0000
01E0
0730
0030
0030
0060
0060
00C0
0180
ENDCHAR
STARTCHAR 3046
ENCODING 12358
SWIDTH 960 0
DWIDTH 16 0
BBX 16 16 0 -2
BITMAP
0000
0700
01E0
0000
0000
03E0
1E30
0030
0030
0030
0060
0060
00C0
0180
0300
0000
ENDCHAR
STARTCHAR 3047
ENCODING 12359
SWIDTH 960 0
DWIDTH 16 0
BBX 16 16 0 -2
BITMAP
0000
0000
0000
0000
0000
0000
0700
01C0
0000
03C0
0EC0
0180
0380
06C0
0CC0
1870
ENDCHAR
STARTCHAR 3048
ENCODING 12360
SWIDTH 960 0
DWIDTH 16 0
BBX 16 16 0 -2
BITMAP
0000
0700
01E0
0000
01E0
1F60
00C0
0180
0300
0780
0CC0
18C0
30C0
607C
0000
0000
ENDCHAR
STARTCHAR 3049
ENCODING 12361
SWIDTH 960 0
DWIDTH 16 0
BBX 16 16 0 -2
BITMAP
0000
0000
0000
0000
0000
0000
0600
07B0
1E18
060C
06E0
0730
0E18
1A18
1A30
0EE0
ENDCHAR
STARTCHAR 304A
ENCODING 12362
SWIDTH 960 0
DWIDTH 16 0
BBX 16 16 0 -2
BITMAP
0000
0C00
0C00
0F8C
7C06
0C03
0C00
0DF0
0F18
1C0C
340C
6C0C
6C18
3870
0000
0000
ENDCHAR
STARTCHAR 304B
ENCODING 12363
SWIDTH 960 0
DWIDTH 16 0
BBX 16 16 0 -2
BITMAP
0000
0600
0600
0618
07CC
7E66
0663
0C63
0C60
1860
1860
30C0
66C0
0380
0000
0000
ENDCHAR
STARTCHAR 304C
ENCODING 12364
SWIDTH 960 0
DWIDTH 16 0
BBX 16 16 0 -2
BITMAP
0006
060D
0606
0618
07CC
7E66
0663
0C63
0C60
1860
1860
30C0
66C0
0380
0000
0000
ENDCHAR
STARTCHAR 304D
ENCODING 12365
SWIDTH 960 0
DWIDTH 16 0
BBX 16 16 0 -2
BITMAP
0300
0300
0360
1F80
0180
01B8
1FC0
00C0
0060
0FD0
1870
3000
3000
1C00
07C0
0000
ENDCHAR
STARTCHAR 304E
ENCODING 12366
SWIDTH 960 0
DWIDTH 16 0
BBX 16 16 0 -2
BITMAP
0300
030C
036A
1F8C
0180
01B8
1FC0
00C0
0060
0FD0
1870
3000
3000
1C00
07C0
0000
ENDCHAR
STARTCHAR 304F
ENCODING 12367
SWIDTH 960 0
DWIDTH 16 0
BBX 16 16 0 -2
BITMAP
0000
00C0
00C0
0180
0180
0300
0600
0C00
0600
0300
0180
0180
00C0
00C0
00C0
0000
ENDCHAR
STARTCHAR 3050
ENCODING 12368
SWIDTH 960 0
DWIDTH 16 0
BBX 16 16 0 -2
BITMAP
0000
00C0
00C0
0198
01B4
0318
0600
0C00
0600
0300
0180
0180
00C0
00C0
00C0
0000
ENDCHAR
STARTCHAR 3051
ENCODING 12369
SWIDTH 960 0
DWIDTH 16 0
BBX 16 16 0 -2
BITMAP
0000
0030
3030
3030
603E
67F0
6030
6030
6030
6030
6030
6860
3060
30C0
0180
0000
ENDCHAR
STARTCHAR 3052
ENCODING 12370
SWIDTH 960 0
DWIDTH 16 0
BBX 16 16 0 -2
BITMAP
0006
0035
3036
3030
603E
67F0
6030
6030
6030
6030
6030
6860
3060
30C0
0180
0000
ENDCHAR
STARTCHAR 3053
ENCODING 12371
SWIDTH 960 0
DWIDTH 16 0
BBX 16 16 0 -2
BITMAP
0000
0000
0F00
01F0
00C0
0180
0000
0000
0000
1800
3000
3000
1800
0FF8
0000
0000
ENDCHAR
STARTCHAR 3054
ENCODING 12372
SWIDTH 960 0
DWIDTH 16 0
BBX 16 16 0 -2
BITMAP
0000
0006
0F0D
01F6
00C0
0180
0000
0000
0000
1800
3000
3000
1800
0FF8
0000
0000
ENDCHAR
STARTCHAR 3055
ENCODING 12373
SWIDTH 960 0
DWIDTH 16 0
BBX 16 16 0 -2
BITMAP
0000
0300
0300
01B8
3FC0
00C0
0060
0060
0FD0
1870
3000
3000
3000
1C00
07C0
0000
ENDCHAR
STARTCHAR 3056
ENCODING 12374
SWIDTH 960 0
DWIDTH 16 0
BBX 16 16 0 -2
BITMAP
0018
0334
0318
01B0
3FC0
00C0
0060
0060
0FD0
1870
3000
3000
3000
1C00
07C0
0000
ENDCHAR
STARTCHAR 3057
ENCODING 12375
SWIDTH 960 0
DWIDTH 16 0
BBX 16 16 0 -2
BITMAP
0000
0C00
0C00
0C00
0C00
0C00
0C00
0C00
0C00
0C00
0C0C
0C18
0670
03C0
0000
0000
ENDCHAR
STARTCHAR 3058
ENCODING 12376
SWIDTH 960 0
DWIDTH 16 0
BBX 16 16 0 -2
BITMAP
0000
0C00
0C60
0CD0
0C60
0C00
0C00
0C00
0C00
0C00
0C0C
0C18
0670
03C0
0000
0000
ENDCHAR
STARTCHAR 3059
ENCODING 12377
SWIDTH 960 0
DWIDTH 16 0
BBX 16 16 0 -2
BITMAP
0000
00C0
00C0
7FFC
00C0
00C0
07C0
0CC0
0CC0
0DC0
0740
00C0
0180
0300
0E00
0000
ENDCHAR
STARTCHAR 305A
ENCODING 12378
SWIDTH 960 0
DWIDTH 16 0
BBX 16 16 0 -2
BITMAP
0006
00CD
00C6
7FFC
00C0
00C0
07C0
0CC0
0CC0
0DC0
0740
00C0
0180
0300
0E00
0000
ENDCHAR
STARTCHAR 305B
ENCODING 12379
SWIDTH 960 0
DWIDTH 16 0
BBX 16 16 0 -2
BITMAP
0000
0060
1860
1860
1860
1BFE
FE60
1860
1860
19C0
1800
1800
0C00
07F0
0000
0000
ENDCHAR
STARTCHAR 305C
ENCODING 12380
SWIDTH 960 0
DWIDTH 16 0
BBX 16 16 0 -2
BITMAP
0000
0066
186D
1866
1860
1BFE
FE60
1860
1860
19C0
1800
1800
0C00
07F0
0000
0000
ENDCHAR
STARTCHAR 305D
ENCODING 12381
SWIDTH 960 0
DWIDTH 16 0
BBX 16 16 0 -2
BITMAP
0000
0000
0FE0
00C0
0180
0300
067E
0FC0
7980
0300
0600
0600
0600
0300
01F0
0000
ENDCHAR
STARTCHAR 305E
ENCODING 12382
SWIDTH 960 0
DWIDTH 16 0
BBX 16 16 0 -2
BITMAP
0000
0000
0FEC
00DA
018C
0300
067E
0FC0
7980
0300
0600
0600
0600
0300
01F0
0000
ENDCHAR
STARTCHAR 305F
ENCODING 12383
SWIDTH 960 0
DWIDTH 16 0
BBX 16 16 0 -2
BITMAP
0000
0C00
0C00
0F80
7C00
0C00
0CFC
1818
1800
1800
3300
3300
6180
60FE
0000
0000
ENDCHAR
STARTCHAR 3060
ENCODING 12384
SWIDTH 960 0
DWIDTH 16 0
BBX 16 16 0 -2
BITMAP
0000
0C0C
0C1A
0F8C
7C00
0C00
0CFC
1818
1800
1800
3300
3300
6180
60FE
0000
0000
ENDCHAR
STARTCHAR 3061
ENCODING 12385
SWIDTH 960 0
DWIDTH 16 0
BBX 16 16 0 -2
BITMAP
0000
0300
0300
0370
3FC0
0600
0600
0C00
0DF0
1B18
1C0C
000C
0018
0070
03C0
0000
ENDCHAR
STARTCHAR 3062
ENCODING 12386
SWIDTH 960 0
DWIDTH 16 0
BBX 16 16 0 -2
BITMAP
0000
0306
030D
0376
3FC0
0600
0600
0C00
0DF0
1B18
1C0C
000C
0018
0070
03C0
0000
ENDCHAR
STARTCHAR 3063
ENCODING 12387
SWIDTH 960 0
DWIDTH 16 0
BBX 16 16 0 -2
BITMAP
0000
0000
0000
0000
0000
0000
0000
03E0
3E30
0018
0018
0018
0030
00E0
0380
0000
ENDCHAR
STARTCHAR 3064
ENCODING 12388
SWIDTH 960 0
DWIDTH 16 0
BBX 16 16 0 -2
BITMAP
0000
0000
0000
0000
03F0
FE18
000C
0006
0006
0006
000C
0018
0070
01C0
0000
0000
ENDCHAR
STARTCHAR 3065
ENCODING 12389
SWIDTH 960 0
DWIDTH 16 0
BBX 16 16 0 -2
BITMAP
0000
0006
000D
0006
03F0
FE18
000C
0006
0006
0006
000C
0018
0070
01C0
0000
0000
ENDCHAR
STARTCHAR 3066
ENCODING 12390
SWIDTH 960 0
DWIDTH 16 0
BBX 16 16 0 -2
BITMAP
0000
0000
007C
7FC0
0180
0300
0300
0600
0600
0600
0600
0300
0180
00F0
0000
0000
ENDCHAR
STARTCHAR 3067
ENCODING 12391
SWIDTH 960 0
DWIDTH 16 0
BBX 16 16 0 -2
BITMAP
0000
0000
007C
7FC0
0198
0334
0318
0600
0600
0600
0600
0300
0180
00F0
0000
0000
ENDCHAR
STARTCHAR 3068
ENCODING 12392
SWIDTH 960 0
DWIDTH 16 0
BBX 16 16 0 -2
BITMAP
0000
0600
0600
0600
0600
0630
0360
0380
0600
0C00
1800
1800
0C00
07F0
0000
0000
ENDCHAR
STARTCHAR 3069
ENCODING 12393
SWIDTH 960 0
DWIDTH 16 0
BBX 16 16 0 -2
BITMAP
0000
0600
060C
061A
060C
0630
0360
0380
0600
0C00
1800
1800
0C00
07F0
0000
0000
ENDCHAR
STARTCHAR 306A
ENCODING 12394
SWIDTH 960 0
DWIDTH 16 0
BBX 16 16 0 -2
BITMAP
0000
0C00
0C00
0F98
7C0C
0C06
1860
1860
3060
6060
0060
03E0
0678
066C
03C0
0000
ENDCHAR
STARTCHAR 306B
ENCODING 12395
SWIDTH 960 0
DWIDTH 16 0
BBX 16 16 0 -2
BITMAP
0000
0000
1800
19F8
3030
3000
3000
3000
3000
3000
3180
3580
18FC
1800
0000
0000
ENDCHAR
STARTCHAR 306C
ENCODING 12396
SWIDTH 960 0
DWIDTH 16 0
BBX 16 16 0 -2
BITMAP
0000
0300
3300
3300
37F0
3D18
330C
6B0C
6A0C
CE0C
C60C
CCF4
799C
00F6
0000
0000
ENDCHAR
STARTCHAR 306D
ENCODING 12397
SWIDTH 960 0
DWIDTH 16 0
BBX 16 16 0 -2
BITMAP
0000
1800
1800
1800
18F0
FB98
1A0C
1C0C
380C
680C
D80C
18F8
199C
18F6
1800
0000
ENDCHAR
STARTCHAR 306E
ENCODING 12398
SWIDTH 960 0
DWIDTH 16 0
BBX 16 16 0 -2
BITMAP
0000
0000
0000
03E0
0EB8
198C
318C
3186
6306
6306
660C
360C
1C38
00E0
0000
0000
ENDCHAR
STARTCHAR 306F
ENCODING 12399
SWIDTH 960 0
DWIDTH 16 0
BBX 16 16 0 -2
BITMAP
0000
3030
3030
3030
63FE
6030
6030
6030
6030
6030
6030
61F0
6B3C
3336
31E0
0000
ENDCHAR
STARTCHAR 3070
ENCODING 12400
SWIDTH 960 0
DWIDTH 16 0
BBX 16 16 0 -2
BITMAP
0006
3035
3036
3030
63FE
6030
6030
6030
6030
6030
6030
61F0
6B3C
3336
31E0
0000
ENDCHAR
STARTCHAR 3071
ENCODING 12401
SWIDTH 960 0
DWIDTH 16 0
BBX 16 16 0 -2
BITMAP
000E
606B
606B
606E
C7F8
C060
C060
C060
C060
C060
C060
C3E0
D678
666C
63C0
0000
ENDCHAR
STARTCHAR 3072
ENCODING 12402
SWIDTH 960 0
DWIDTH 16 0
BBX 16 16 0 -2
BITMAP
0000
0000
0F00
7A30
0C38
0C34
1836
1830
3030
3030
3030
3060
3060
18C0
0F80
0000
ENDCHAR
STARTCHAR 3073
ENCODING 12403
SWIDTH 960 0
DWIDTH 16 0
BBX 16 16 0 -2
BITMAP
0006
000D
0F06
7A30
0C38
0C34
1836
1830
3030
3030
3030
3060
3060
18C0
0F80
0000
ENDCHAR
STARTCHAR 3074
ENCODING 12404
SWIDTH 960 0
DWIDTH 16 0
BBX 16 16 0 -2
BITMAP
000E
001B
0F1B
7A36
0C38
0C34
1836
1830
3030
3030
3030
3060
3060
18C0
0F80
0000
ENDCHAR
STARTCHAR 3075
ENCODING 12405
SWIDTH 960 0
DWIDTH 16 0
BBX 16 16 0 -2
BITMAP
0000
0300
0180
00C0
00C0
0180
0300
0300
0180
00D8
186C
3066
6CC3
C783
0000
0000
ENDCHAR
STARTCHAR 3076
ENCODING 12406
SWIDTH 960 0
DWIDTH 16 0
BBX 16 16 0 -2
BITMAP
0000
0300
0180
00C0
00D8
01B4
0318
0300
0180
00D8
186C
3066
6CC3
C783
0000
0000
ENDCHAR
STARTCHAR 3077
ENCODING 12407
SWIDTH 960 0
DWIDTH 16 0
BBX 16 16 0 -2
BITMAP
0000
0300
0180
00DC
00D6
01B6
031C
0300
0180
00D8
186C
3066
6CC3
C783
0000
0000
ENDCHAR
STARTCHAR 3078
ENCODING 12408
SWIDTH 960 0
DWIDTH 16 0
BBX 16 16 0 -2
BITMAP
0000
0000
0000
0000
0000
0E00
1B00
3180
E0C0
0060
0038
000E
0000
0000
0000
0000
ENDCHAR
STARTCHAR 3079
ENCODING 12409
SWIDTH 960 0
DWIDTH 16 0
BBX 16 16 0 -2
BITMAP
0000
0000
0000
0030
0068
0E30
1B00
3180
E0C0
0060
0038
000E
0000
0000
0000
0000
ENDCHAR
STARTCHAR 307A
ENCODING 12410
SWIDTH 960 0
DWIDTH 16 0
BBX 16 16 0 -2
BITMAP
0000
0000
0000
0070
00D8
0ED8
1B70
3180
E0C0
0060
0038
000E
0000
0000
0000
0000
ENDCHAR
STARTCHAR 307B
ENCODING 12411
SWIDTH 960 0
DWIDTH 16 0
BBX 16 16 0 -2
BITMAP
0000
3000
33FC
3030
6030
6030
63FC
6030
6030
6030
6030
61F0
6B3C
3336
31E0
0000
ENDCHAR
STARTCHAR 307C
ENCODING 12412
SWIDTH 960 0
DWIDTH 16 0
BBX 16 16 0 -2
BITMAP
0006
300D
33FA
3030
6030
6030
63FC
6030
6030
6030
6030
61F0
6B3C
3336
31E0
0000
ENDCHAR
STARTCHAR 307D
ENCODING 12413
SWIDTH 960 0
DWIDTH 16 0
BBX 16 16 0 -2
BITMAP
000E
301B
33FB
3036
6030
6030
63FC
6030
6030
6030
6030
61F0
6B3C
3336
31E0
0000
ENDCHAR
STARTCHAR 307E
ENCODING 12414
SWIDTH 960 0
DWIDTH 16 0
BBX 16 16 0 -2
BITMAP
0000
0180
0180
3FF8
0180
0180
0180
1FF0
0180
0180
0180
1FC0
31B0
3198
1F00
0000
ENDCHAR
STARTCHAR 307F
ENCODING 12415
SWIDTH 960 0
DWIDTH 16 0
BBX 16 16 0 -2
BITMAP
0000
0000
1F80
0180
0180
0198
0318
0318
0FF8
3A1E
6633
6C30
3860
00C0
0180
0000
ENDCHAR
STARTCHAR 3080
ENCODING 12416
SWIDTH 960 0
DWIDTH 16 0
BBX 16 16 0 -2
BITMAP
0000
0600
0600
07D8
7E0C
0606
0600
1E00
3600
3600
3400
1C0C
0C0C
0C0C
07F8
0000
ENDCHAR
STARTCHAR 3081
ENCODING 12417
SWIDTH 960 0
DWIDTH 16 0
BBX 16 16 0 -2
BITMAP
0000
00C0
18C0
18C0
1BE0
1CD8
198C
398C
6D06
6D06
C606
C60C
6D0C
3838
00E0
0000
ENDCHAR
STARTCHAR 3082
ENCODING 12418
SWIDTH 960 0
DWIDTH 16 0
BBX 16 16 0 -2
BITMAP
0000
0600
0600
0600
3F80
0600
0600
0630
3F98
0C18
0C18
0C18
0C18
0630
03E0
0000
ENDCHAR
STARTCHAR 3083
ENCODING 12419
SWIDTH 960 0
DWIDTH 16 0
BBX 16 16 0 -2
BITMAP
0000
0000
0000
0000
0000
0000
0300
19F0
0D98
0E18
3A18
06F0
0300
0300
0180
0180
ENDCHAR
STARTCHAR 3084
ENCODING 12420
SWIDTH 960 0
DWIDTH 16 0
BBX 16 16 0 -2
BITMAP
0000
0300
0180
30C0
30F8
1B8C
0E06
3C06
E60C
0638
0300
0300
0180
0180
0180
0000
ENDCHAR
STARTCHAR 3085
ENCODING 12421
SWIDTH 960 0
DWIDTH 16 0
BBX 16 16 0 -2
BITMAP
0000
0000
0000
0000
0000
0180
00C0
1BE0
1AD0
34D8
34D8
18D0
1BE0
0180
0180
0300
ENDCHAR
STARTCHAR 3086
ENCODING 12422
SWIDTH 960 0
DWIDTH 16 0
BBX 16 16 0 -2
BITMAP
0000
0180
00C0
30C0
31F8
674C
6CC6
68C6
70C6
66C6
334C
31F8
00C0
0180
0300
0000
ENDCHAR
STARTCHAR 3087
ENCODING 12423
SWIDTH 960 0
DWIDTH 16 0
BBX 16 16 0 -2
BITMAP
0000
0000
0000
0000
0000
0180
0180
01F0
0180
0180
0180
0F80
19E0
19B0
0F00
0000
ENDCHAR
STARTCHAR 3088
ENCODING 12424
SWIDTH 960 0
DWIDTH 16 0
BBX 16 16 0 -2
BITMAP
0000
0180
0180
0180
01F8
0180
0180
0180
0180
0180
0180
1FC0
31B0
3198
1F00
0000
ENDCHAR
STARTCHAR 3089
ENCODING 12425
SWIDTH 960 0
DWIDTH 16 0
BBX 16 16 0 -2
BITMAP
0000
0380
00E0
0000
0C00
0C00
0C00
0C00
1BF0
1E18
180C
000C
0018
0070
07C0
0000
ENDCHAR
STARTCHAR 308A
ENCODING 12426
SWIDTH 960 0
DWIDTH 16 0
BBX 16 16 0 -2
BITMAP
0000
0030
1830
1830
1830
1830
1830
1A30
1C30
0C30
0030
0060
0060
00C0
0380
0000
ENDCHAR
STARTCHAR 308B
ENCODING 12427
SWIDTH 960 0
DWIDTH 16 0
BBX 16 16 0 -2
BITMAP
0000
0000
0FF0
0060
00C0
0180
0300
06F0
0F18
180C
300C
038C
06D8
0670
03E0
0000
ENDCHAR
STARTCHAR 308C
ENCODING 12428
SWIDTH 960 0
DWIDTH 16 0
BBX 16 16 0 -2
BITMAP
0000
1800
1800
1800
19E0
FD30
1A30
1C30
3830
3830
6830
D830
1836
181C
1800
0000
ENDCHAR
STARTCHAR 308D
ENCODING 12429
SWIDTH 960 0
DWIDTH 16 0
BBX 16 16 0 -2
BITMAP
0000
0000
0FF0
0060
00C0
0180
0300
06F0
0F18
180C
300C
000C
0018
0070
03C0
0000
ENDCHAR
STARTCHAR 308E
ENCODING 12430
SWIDTH 960 0
DWIDTH 16 0
BBX 16 16 0 -2
BITMAP
0000
0000
0000
0000
0000
0000
0600
0600
3EF0
0698
070C
060C
0E0C
1A0C
3618
0630
ENDCHAR
STARTCHAR 308F
ENCODING 12431
SWIDTH 960 0
DWIDTH 16 0
BBX 16 16 0 -2
BITMAP
0000
0C00
0C00
0C00
7E00
0DF8
0D0C
0E06
0C06
1C06
3406
6C0C
0C18
0C70
0C00
0000
ENDCHAR
STARTCHAR 3090
ENCODING 12432
SWIDTH 960 0
DWIDTH 16 0
BBX 16 16 0 -2
BITMAP
0000
0780
1D80
0180
0300
0300
07E0
1E38
360C
660C
6C0C
6DD8
6D68
39F0
0000
0000
ENDCHAR
STARTCHAR 3091
ENCODING 12433
SWIDTH 960 0
DWIDTH 16 0
BBX 16 16 0 -2
BITMAP
0000
0FE0
00C0
0180
03E0
0E30
1818
0798
0CD0
07E0
1C0C
3606
6363
C1C3
0000
0000
ENDCHAR
STARTCHAR 3092
ENCODING 12434
SWIDTH 960 0
DWIDTH 16 0
BBX 16 16 0 -2
BITMAP
0300
0300
0360
3F80
0600
0600
0F80
18DC
30F0
03C0
06C0
0C00
0C00
07F0
0000
0000
ENDCHAR
STARTCHAR 3093
ENCODING 12435
SWIDTH 960 0
DWIDTH 16 0
BBX 16 16 0 -2
BITMAP
0000
0300
0300
0300
0600
0600
0600
0C00
0D80
0EC0
18C0
18C6
30CC
3078
0000
0000
ENDCHAR
STARTCHAR 3094
ENCODING 12436
SWIDTH 960 0
DWIDTH 16 0
BBX 16 16 0 -2
BITMAP
0000
070C
01EA
000C
0000
07E0
1C30
0030
0030
0030
0060
0060
00C0
0180
0300
0000
ENDCHAR
STARTCHAR 3095
ENCODING 12437
SWIDTH 960 0
DWIDTH 16 0
BBX 16 16 0 -2
BITMAP
0000
0000
0000
0000
0000
0600
0600
0600
07B0
3ED8
06CC
0CCC
0CC0
18C0
3180
0700
ENDCHAR
STARTCHAR 3096
ENCODING 12438
SWIDTH 960 0
DWIDTH 16 0
BBX 16 16 0 -2
BITMAP
0000
0000
0000
0000
0000
0030
0C30
0C30
19FC
1830
1830
1830
1830
1A30
0C60
01C0
ENDCHAR
STARTCHAR 309B
ENCODING 12443
SWIDTH 960 0
DWIDTH 16 0
BBX 16 16 0 -2
BITMAP
D000
D000
0000
0000
0000
0000
0000
0000
0000
0000
0000
0000
0000
0000
0000
0000
ENDCHAR
STARTCHAR 309C
ENCODING 12444
SWIDTH 960 0
DWIDTH 16 0
BBX 16 16 0 -2
BITMAP
0000
0000
7000
D800
D800
7000
0000
0000
0000
0000
0000
0000
0000
0000
0000
0000
ENDCHAR
STARTCHAR 309D
ENCODING 12445
SWIDTH 960 0
DWIDTH 16 0
BBX 16 16 0 -2
BITMAP
0000
0000
0000
0000
0000
1C00
0700
01C0
0060
0030
0060
01C0
0000
0000
0000
0000
ENDCHAR
STARTCHAR 309E
ENCODING 12446
SWIDTH 960 0
DWIDTH 16 0
BBX 16 16 0 -2
BITMAP
0000
0000
0000
0060
00D0
1C60
0700
01C0
0060
0030
0060
01C0
0000
0000
0000
0000
ENDCHAR
STARTCHAR 309F
ENCODING 12447
SWIDTH 960 0
DWIDTH 16 0
BBX 16 16 0 -2
BITMAP
0180
0180
0300
03F8
0300
0600
0600
06E0
0F30
0C18
0C18
1818
1818
3730
31E0
0000
ENDCHAR
STARTCHAR 30A0
ENCODING 12448
SWIDTH 960 0
DWIDTH 16 0
BBX 16 16 0 -2
BITMAP
0000
0000
0000
0000
0000
0FE0
0000
0000
0000
0FE0
0000
0000
0000
0000
0000
0000
ENDCHAR
STARTCHAR 30A1
ENCODING 12449
SWIDTH 960 0
DWIDTH 16 0
BBX 16 16 0 -2
BITMAP
0000
0000
0000
0000
0000
0000
0000
0000
1FE0
0060
0340
0300
0300
0300
0600
0C00
ENDCHAR
STARTCHAR 30A2
ENCODING 12450
SWIDTH 960 0
DWIDTH 16 0
BBX 16 16 0 -2
BITMAP
0000
0000
0000
3FFC
000C
0198
01B0
0180
0180
0180
0300
0300
0600
0C00
0000
0000
ENDCHAR
STARTCHAR 30A3
ENCODING 12451
SWIDTH 960 0
DWIDTH 16 0
BBX 16 16 0 -2
BITMAP
0000
0000
0000
0000
0000
0000
0060
0060
00C0
0380
1E80
0180
0180
0180
0180
0180
ENDCHAR
STARTCHAR 30A4
ENCODING 12452
SWIDTH 960 0
DWIDTH 16 0
BBX 16 16 0 -2
BITMAP
0000
0000
0030
0030
0060
00C0
0180
0380
0E80
3980
0180
0180
0180
0180
0180
0000
ENDCHAR
STARTCHAR 30A5
ENCODING 12453
SWIDTH 960 0
DWIDTH 16 0
BBX 16 16 0 -2
BITMAP
0000
0000
0000
0000
0180
0180
0180
1FF8
1818
1818
0018
0030
0030
00E0
0380
0000
ENDCHAR
STARTCHAR 30A6
ENCODING 12454
SWIDTH 960 0
DWIDTH 16 0
BBX 16 16 0 -2
BITMAP
0000
0180
0180
0180
3FFC
300C
300C
300C
000C
0018
0018
0030
00E0
0380
0000
0000
ENDCHAR
STARTCHAR 30A7
ENCODING 12455
SWIDTH 960 0
DWIDTH 16 0
BBX 16 16 0 -2
BITMAP
0000
0000
0000
0000
0000
0000
0000
0000
0000
0FF0
0180
0180
0180
0180
1FF8
0000
ENDCHAR
STARTCHAR 30A8
ENCODING 12456
SWIDTH 960 0
DWIDTH 16 0
BBX 16 16 0 -2
BITMAP
0000
0000
0000
0000
1FF8
0180
0180
0180
0180
0180
0180
0180
7FFE
0000
0000
0000
ENDCHAR
STARTCHAR 30A9
ENCODING 12457
SWIDTH 960 0
DWIDTH 16 0
BBX 16 16 0 -2
BITMAP
0000
0000
0000
0000
0000
0000
0060
0060
0FF8
0060
00E0
01A0
0360
0E60
0060
00E0
ENDCHAR
STARTCHAR 30AA
ENCODING 12458
SWIDTH 960 0
DWIDTH 16 0
BBX 16 16 0 -2
BITMAP
0000
0060
0060
0060
7FFE
0060
00E0
01A0
0360
0660
1C60
7060
0060
01E0
0000
0000
ENDCHAR
STARTCHAR 30AB
ENCODING 12459
SWIDTH 960 0
DWIDTH 16 0
BBX 16 16 0 -2
BITMAP
0300
0300
0300
0300
7FFC
030C
030C
060C
060C
0C0C
0C0C
1818
3018
60F0
0000
0000
ENDCHAR
STARTCHAR 30AC
ENCODING 12460
SWIDTH 960 0
DWIDTH 16 0
BBX 16 16 0 -2
BITMAP
0306
030D
0306
0300
7FFC
030C
030C
060C
060C
0C0C
0C0C
1818
3018
60F0
0000
0000
ENDCHAR
STARTCHAR 30AD
ENCODING 12461
SWIDTH 960 0
DWIDTH 16 0
BBX 16 16 0 -2
BITMAP
0000
0300
0300
0300
01F8
3F80
0180
0180
01FE
7F80
00C0
00C0
00C0
00C0
00C0
0000
ENDCHAR
STARTCHAR 30AE
ENCODING 12462
SWIDTH 960 0
DWIDTH 16 0
BBX 16 16 0 -2
BITMAP
0000
030C
031A
030C
01F8
3F80
0180
0180
01FE
7F80
00C0
00C0
00C0
00C0
00C0
0000
ENDCHAR
STARTCHAR 30AF
ENCODING 12463
SWIDTH 960 0
DWIDTH 16 0
BBX 16 16 0 -2
BITMAP
0000
0300
0300
03F8
0618
0618
0C30
1830
0060
0060
00C0
0180
0700
1C00
0000
0000
ENDCHAR
STARTCHAR 30B0
ENCODING 12464
SWIDTH 960 0
DWIDTH 16 0
BBX 16 16 0 -2
BITMAP
0006
030D
0306
03F8
0618
0618
0C30
1830
0060
0060
00C0
0180
0700
1C00
0000
0000
ENDCHAR
STARTCHAR 30B1
ENCODING 12465
SWIDTH 960 0
DWIDTH 16 0
BBX 16 16 0 -2
BITMAP
0000
0600
0600
0600
0C00
0FFE
1830
3030
6030
0060
0060
00C0
0180
0700
0000
0000
ENDCHAR
STARTCHAR 30B2
ENCODING 12466
SWIDTH 960 0
DWIDTH 16 0
BBX 16 16 0 -2
BITMAP
0000
0606
060D
0606
0C00
0FFE
1830
3030
6030
0060
0060
00C0
0180
0700
0000
0000
ENDCHAR
STARTCHAR 30B3
ENCODING 12467
SWIDTH 960 0
DWIDTH 16 0
BBX 16 16 0 -2
BITMAP
0000
0000
0000
0000
3FF8
0018
0018
0018
0018
0018
0018
0018
3FF8
0018
0000
0000
ENDCHAR
STARTCHAR 30B4
ENCODING 12468
SWIDTH 960 0
DWIDTH 16 0
BBX 16 16 0 -2
BITMAP
0000
0006
000D
0006
3FF8
0018
0018
0018
0018
0018
0018
0018
3FF8
0018
0000
0000
ENDCHAR
STARTCHAR 30B5
ENCODING 12469
SWIDTH 960 0
DWIDTH 16 0
BBX 16 16 0 -2
BITMAP
0000
0030
0C30
0C30
0C30
7FFE
0C30
0C30
0C30
0C30
0030
0060
0060
00C0
0380
0000
ENDCHAR
STARTCHAR 30B6
ENCODING 12470
SWIDTH 960 0
DWIDTH 16 0
BBX 16 16 0 -2
BITMAP
0006
0035
0C36
0C30
0C30
7FFE
0C30
0C30
0C30
0C30
0030
0060
0060
00C0
0380
0000
ENDCHAR
STARTCHAR 30B7
ENCODING 12471
SWIDTH 960 0
DWIDTH 16 0
BBX 16 16 0 -2
BITMAP
0000
0000
1800
0E00
0000
0000
3000
1C0C
0018
0030
0060
00C0
0380
1E00
0000
0000
ENDCHAR
STARTCHAR 30B8
ENCODING 12472
SWIDTH 960 0
DWIDTH 16 0
BBX 16 16 0 -2
BITMAP
0000
0018
1C34
0618
0000
0000
3800
0C0C
0018
0030
0060
00C0
0380
1E00
0000
0000
ENDCHAR
STARTCHAR 30B9
ENCODING 12473
SWIDTH 960 0
DWIDTH 16 0
BBX 16 16 0 -2
BITMAP
0000
0000
0000
1FF0
0030
0030
0060
0060
00C0
01A0
0330
0618
0C0C
380C
0000
0000
ENDCHAR
STARTCHAR 30BA
ENCODING 12474
SWIDTH 960 0
DWIDTH 16 0
BBX 16 16 0 -2
BITMAP
0000
0006
000D
1FF6
0030
0030
0060
0060
00C0
01A0
0330
0618
0C0C
380C
0000
0000
ENDCHAR
STARTCHAR 30BB
ENCODING 12475
SWIDTH 960 0
DWIDTH 16 0
BBX 16 16 0 -2
BITMAP
0000
0C00
0C00
0C00
0CF8
0F9C
7C30
0C60
0CC0
0C00
0C00
0C00
07F0
0000
0000
0000
ENDCHAR
STARTCHAR 30BC
ENCODING 12476
SWIDTH 960 0
DWIDTH 16 0
BBX 16 16 0 -2
BITMAP
0000
0C06
0C0D
0C06
0CF8
0F9C
7C30
0C60
0CC0
0C00
0C00
0C00
07F0
0000
0000
0000
ENDCHAR
STARTCHAR 30BD
ENCODING 12477
SWIDTH 960 0
DWIDTH 16 0
BBX 16 16 0 -2
BITMAP
0000
0000
3018
3018
1818
1818
0C30
0030
0060
0060
00C0
0180
0300
0600
0000
0000
ENDCHAR
STARTCHAR 30BE
ENCODING 12478
SWIDTH 960 0
DWIDTH 16 0
BBX 16 16 0 -2
BITMAP
0006
000D
3006
3018
1818
1818
0C30
0030
0060
0060
00C0
0180
0300
0600
0000
0000
ENDCHAR
STARTCHAR 30BF
ENCODING 12479
SWIDTH 960 0
DWIDTH 16 0
BBX 16 16 0 -2
BITMAP
0000
0300
0300
03F8
0618
0618
0C30
1B30
01E0
0060
00D0
0180
0700
1C00
0000
0000
ENDCHAR
STARTCHAR 30C0
ENCODING 12480
SWIDTH 960 0
DWIDTH 16 0
BBX 16 16 0 -2
BITMAP
0006
030D
0306
03F8
0618
0618
0C30
1B30
01E0
0060
00D0
0180
0700
1C00
0000
0000
ENDCHAR
STARTCHAR 30C1
ENCODING 12481
SWIDTH 960 0
DWIDTH 16 0
BBX 16 16 0 -2
BITMAP
0000
0030
01E0
3F00
0180
0180
0180
FFFE
0180
0180
0180
0300
0300
0600
0C00
0000
ENDCHAR
STARTCHAR 30C2
ENCODING 12482
SWIDTH 960 0
DWIDTH 16 0
BBX 16 16 0 -2
BITMAP
0000
0030
01EC
3F1A
018C
0180
0180
FFFE
0180
0180
0180
0300
0300
0600
0C00
0000
ENDCHAR
STARTCHAR 30C3
ENCODING 12483
SWIDTH 960 0
DWIDTH 16 0
BBX 16 16 0 -2
BITMAP
0000
0000
0000
0000
0000
0000
0000
0000
0300
1998
0D98
0C30
0030
0060
00C0
0180
ENDCHAR
STARTCHAR 30C4
ENCODING 12484
SWIDTH 960 0
DWIDTH 16 0
BBX 16 16 0 -2
BITMAP
0000
0000
0600
0600
630C
330C
3018
0018
0030
0030
0060
00C0
0180
0300
0600
0000
ENDCHAR
STARTCHAR 30C5
ENCODING 12485
SWIDTH 960 0
DWIDTH 16 0
BBX 16 16 0 -2
BITMAP
0006
000D
0606
0600
630C
330C
3018
0018
0030
0030
0060
00C0
0180
0300
0600
0000
ENDCHAR
STARTCHAR 30C6
ENCODING 12486
SWIDTH 960 0
DWIDTH 16 0
BBX 16 16 0 -2
BITMAP
0000
0000
1FF8
0000
0000
0000
7FFE
00C0
00C0
00C0
0180
0180
0300
0E00
0000
0000
ENDCHAR
STARTCHAR 30C7
ENCODING 12487
SWIDTH 960 0
DWIDTH 16 0
BBX 16 16 0 -2
BITMAP
0006
000D
1FF6
0000
0000
0000
7FFE
00C0
00C0
00C0
0180
0180
0300
0E00
0000
0000
ENDCHAR
STARTCHAR 30C8
ENCODING 12488
SWIDTH 960 0
DWIDTH 16 0
BBX 16 16 0 -2
BITMAP
0000
0600
0600
0600
0600
0600
07C0
0670
0618
0600
0600
0600
0600
0600
0600
0000
ENDCHAR
STARTCHAR 30C9
ENCODING 12489
SWIDTH 960 0
DWIDTH 16 0
BBX 16 16 0 -2
BITMAP
0000
0600
0618
0634
0618
0600
07C0
0670
0618
0600
0600
0600
0600
0600
0600
0000
ENDCHAR
STARTCHAR 30CA
ENCODING 12490
SWIDTH 960 0
DWIDTH 16 0
BBX 16 16 0 -2
BITMAP
0000
0180
0180
0180
0180
7FFC
0180
0180
0180
0180
0300
0300
0600
0C00
1800
0000
ENDCHAR
STARTCHAR 30CB
ENCODING 12491
SWIDTH 960 0
DWIDTH 16 0
BBX 16 16 0 -2
BITMAP
0000
0000
0000
0000
1FF8
0000
0000
0000
0000
0000
0000
7FFE
0000
0000
0000
0000
ENDCHAR
STARTCHAR 30CC
ENCODING 12492
SWIDTH 960 0
DWIDTH 16 0
BBX 16 16 0 -2
BITMAP
0000
0000
0000
1FF0
0030
0030
0060
0660
0340
0180
0340
0660
0C30
3818
0000
0000
ENDCHAR
STARTCHAR 30CD
ENCODING 12493
SWIDTH 960 0
DWIDTH 16 0
BBX 16 16 0 -2
BITMAP
0000
0180
0180
0180
1FF0
0030
00E0
0180
07B8
1D8C
7186
0180
0180
0180
0180
0000
ENDCHAR
STARTCHAR 30CE
ENCODING 12494
SWIDTH 960 0
DWIDTH 16 0
BBX 16 16 0 -2
BITMAP
0000
0000
0030
0030
0030
0030
0060
0060
00C0
00C0
0180
0300
0E00
3800
0000
0000
ENDCHAR
STARTCHAR 30CF
ENCODING 12495
SWIDTH 960 0
DWIDTH 16 0
BBX 16 16 0 -2
BITMAP
0000
0000
0000
0000
0C00
0CC0
0C60
1830
1818
300C
300C
6006
C006
0000
0000
0000
ENDCHAR
STARTCHAR 30D0
ENCODING 12496
SWIDTH 960 0
DWIDTH 16 0
BBX 16 16 0 -2
BITMAP
0000
0000
000C
001A
0C0C
0CC0
0C60
1830
1818
300C
300C
6006
C006
0000
0000
0000
ENDCHAR
STARTCHAR 30D1
ENCODING 12497
SWIDTH 960 0
DWIDTH 16 0
BBX 16 16 0 -2
BITMAP
0000
0000
001C
0036
0C36
0CDC
0C60
1830
1818
300C
300C
6006
C006
0000
0000
0000
ENDCHAR
STARTCHAR 30D2
ENCODING 12498
SWIDTH 960 0
DWIDTH 16 0
BBX 16 16 0 -2
BITMAP
0000
0000
1800
1800
1818
1870
19C0
1F00
1800
1800
1800
1800
1800
0FF8
0000
0000
ENDCHAR
STARTCHAR 30D3
ENCODING 12499
SWIDTH 960 0
DWIDTH 16 0
BBX 16 16 0 -2
BITMAP
0000
0018
1834
1818
1800
1830
19E0
1F00
1800
1800
1800
1800
1800
0FF0
0000
0000
ENDCHAR
STARTCHAR 30D4
ENCODING 12500
SWIDTH 960 0
DWIDTH 16 0
BBX 16 16 0 -2
BITMAP
0000
0038
186C
186C
1838
1830
19E0
1F00
1800
1800
1800
1800
1800
0FF0
0000
0000
ENDCHAR
STARTCHAR 30D5
ENCODING 12501
SWIDTH 960 0
DWIDTH 16 0
BBX 16 16 0 -2
BITMAP
0000
0000
0000
3FFC
000C
000C
000C
0018
0018
0030
0060
00C0
0380
0E00
0000
0000
ENDCHAR
STARTCHAR 30D6
ENCODING 12502
SWIDTH 960 0
DWIDTH 16 0
BBX 16 16 0 -2
BITMAP
0006
000D
0006
3FFC
000C
000C
000C
0018
0018
0030
0060
00C0
0380
0E00
0000
0000
ENDCHAR
STARTCHAR 30D7
ENCODING 12503
SWIDTH 960 0
DWIDTH 16 0
BBX 16 16 0 -2
BITMAP
000E
001B
001B
3FFE
000C
000C
000C
0018
0018
0030
0060
00C0
0380
0E00
0000
0000
ENDCHAR
STARTCHAR 30D8
ENCODING 12504
SWIDTH 960 0
DWIDTH 16 0
BBX 16 16 0 -2
BITMAP
0000
0000
0000
0000
0000
0E00
1B00
3180
60C0
C060
0038
000E
0000
0000
0000
0000
ENDCHAR
STARTCHAR 30D9
ENCODING 12505
SWIDTH 960 0
DWIDTH 16 0
BBX 16 16 0 -2
BITMAP
0000
0000
0000
0000
0030
0E68
1B30
3180
60C0
C060
0038
000E
0000
0000
0000
0000
ENDCHAR
STARTCHAR 30DA
ENCODING 12506
SWIDTH 960 0
DWIDTH 16 0
BBX 16 16 0 -2
BITMAP
0000
0000
0000
0070
00D8
0ED8
1B70
3180
60C0
C060
0038
000E
0000
0000
0000
0000
ENDCHAR
STARTCHAR 30DB
ENCODING 12507
SWIDTH 960 0
DWIDTH 16 0
BBX 16 16 0 -2
BITMAP
0000
0180
0180
0180
3FFC
0180
0180
0180
1998
198C
3186
6186
0180
0780
0000
0000
ENDCHAR
STARTCHAR 30DC
ENCODING 12508
SWIDTH 960 0
DWIDTH 16 0
BBX 16 16 0 -2
BITMAP
0000
0186
018D
0186
3FFC
0180
0180
0180
1998
198C
3186
6186
0180
0780
0000
0000
ENDCHAR
STARTCHAR 30DD
ENCODING 12509
SWIDTH 960 0
DWIDTH 16 0
BBX 16 16 0 -2
BITMAP
000E
019B
019B
018E
3FF8
0180
0180
0180
1998
198C
3186
6186
0180
0780
0000
0000
ENDCHAR
STARTCHAR 30DE
ENCODING 12510
SWIDTH 960 0
DWIDTH 16 0
BBX 16 16 0 -2
BITMAP
0000
0000
0000
7FFC
000C
0018
0018
0030
1C60
0740
0180
00C0
0060
0000
0000
0000
ENDCHAR
STARTCHAR 30DF
ENCODING 12511
SWIDTH 960 0
DWIDTH 16 0
BBX 16 16 0 -2
BITMAP
0000
0000
0780
00E0
0030
0000
0700
01C0
0060
0000
0000
1E00
0380
00E0
0030
0000
ENDCHAR
STARTCHAR 30E0
ENCODING 12512
SWIDTH 960 0
DWIDTH 16 0
BBX 16 16 0 -2
BITMAP
0000
0000
0600
0600
0600
0600
0600
0600
0C60
0C30
0C18
1878
1BCC
7E0C
0000
0000
ENDCHAR
STARTCHAR 30E1
ENCODING 12513
SWIDTH 960 0
DWIDTH 16 0
BBX 16 16 0 -2
BITMAP
0000
0000
0018
0018
0018
0030
0730
01A0
00E0
00D0
0198
0300
0E00
3800
0000
0000
ENDCHAR
STARTCHAR 30E2
ENCODING 12514
SWIDTH 960 0
DWIDTH 16 0
BBX 16 16 0 -2
BITMAP
0000
0000
0000
3FF0
0600
0600
0600
7FFC
0600
0600
0600
0600
0600
03F0
0000
0000
ENDCHAR
STARTCHAR 30E3
ENCODING 12515
SWIDTH 960 0
DWIDTH 16 0
BBX 16 16 0 -2
BITMAP
0000
0000
0000
0000
0000
0C00
0C00
0678
07D8
3E30
0360
0300
0300
0180
0180
0180
ENDCHAR
STARTCHAR 30E4
ENCODING 12516
SWIDTH 960 0
DWIDTH 16 0
BBX 16 16 0 -2
BITMAP
0000
0000
1800
1800
0C3C
0DE6
0F0C
7A18
0630
0300
0300
0300
0180
0180
0180
0000
ENDCHAR
STARTCHAR 30E5
ENCODING 12517
SWIDTH 960 0
DWIDTH 16 0
BBX 16 16 0 -2
BITMAP
0000
0000
0000
0000
0000
0000
0000
0000
0FC0
00C0
00C0
00C0
0180
0180
3FF8
0000
ENDCHAR
STARTCHAR 30E6
ENCODING 12518
SWIDTH 960 0
DWIDTH 16 0
BBX 16 16 0 -2
BITMAP
0000
0000
0000
0000
1FF0
0030
0030
0030
0030
0060
0060
0060
7FFE
0000
0000
0000
ENDCHAR
STARTCHAR 30E7
ENCODING 12519
SWIDTH 960 0
DWIDTH 16 0
BBX 16 16 0 -2
BITMAP
0000
0000
0000
0000
0000
0000
0000
0FE0
0060
0060
0FE0
0060
0060
0060
0FE0
0060
ENDCHAR
STARTCHAR 30E8
ENCODING 12520
SWIDTH 960 0
DWIDTH 16 0
BBX 16 16 0 -2
BITMAP
0000
0000
3FF0
0030
0030
0030
0030
1FF0
0030
0030
0030
0030
3FF0
0030
0000
0000
ENDCHAR
STARTCHAR 30E9
ENCODING 12521
SWIDTH 960 0
DWIDTH 16 0
BBX 16 16 0 -2
BITMAP
0000
0000
0FF0
0000
0000
0000
3FFC
000C
0018
0018
0030
0060
01C0
0700
0000
0000
ENDCHAR
STARTCHAR 30EA
ENCODING 12522
SWIDTH 960 0
DWIDTH 16 0
BBX 16 16 0 -2
BITMAP
0000
0030
1830
1830
1830
1830
1830
1830
1830
0030
0030
0060
0060
00C0
0380
0000
ENDCHAR
STARTCHAR 30EB
ENCODING 12523
SWIDTH 960 0
DWIDTH 16 0
BBX 16 16 0 -2
BITMAP
0000
0000
00C0
00C0
0CC0
0CC0
0CC0
0CC0
0CC0
18C0
18C3
30C6
60DC
C0F0
0000
0000
ENDCHAR
STARTCHAR 30EC
ENCODING 12524
SWIDTH 960 0
DWIDTH 16 0
BBX 16 16 0 -2
BITMAP
0000
0000
0C00
0C00
0C00
0C00
0C00
0C00
0C00
0C18
0C30
0C60
0DC0
0F00
0000
0000
ENDCHAR
STARTCHAR 30ED
ENCODING 12525
SWIDTH 960 0
DWIDTH 16 0
BBX 16 16 0 -2
BITMAP
0000
0000
0000
0000
3FF8
3018
3018
3018
3018
3018
3018
3018
3FF8
3018
0000
0000
ENDCHAR
STARTCHAR 30EE
ENCODING 12526
SWIDTH 960 0
DWIDTH 16 0
BBX 16 16 0 -2
BITMAP
0000
0000
0000
0000
0000
0000
0000
1FF0
1830
1830
1830
0030
0060
0060
00C0
0380
ENDCHAR
STARTCHAR 30EF
ENCODING 12527
SWIDTH 960 0
DWIDTH 16 0
BBX 16 16 0 -2
BITMAP
0000
0000
0000
3FFC
300C
300C
300C
300C
000C
000C
0018
0018
0030
00E0
0380
0000
ENDCHAR
STARTCHAR 30F0
ENCODING 12528
SWIDTH 960 0
DWIDTH 16 0
BBX 16 16 0 -2
BITMAP
0000
0060
0060
0060
1FFC
0C60
0C60
0C60
0C60
7FFE
0060
0060
0060
0060
0060
0000
ENDCHAR
STARTCHAR 30F1
ENCODING 12529
SWIDTH 960 0
DWIDTH 16 0
BBX 16 16 0 -2
BITMAP
0000
0000
0000
0000
1FF8
0018
0030
01A0
0180
0180
0180
0180
7FFE
0000
0000
0000
ENDCHAR
STARTCHAR 30F2
ENCODING 12530
SWIDTH 960 0
DWIDTH 16 0
BBX 16 16 0 -2
BITMAP
0000
0000
0000
1FF8
0018
0018
3FF8
0018
0030
0030
0060
00C0
0380
0E00
0000
0000
ENDCHAR
STARTCHAR 30F3
ENCODING 12531
SWIDTH 960 0
DWIDTH 16 0
BBX 16 16 0 -2
BITMAP
0000
0000
0000
3800
0C00
060C
000C
0018
0018
0030
0060
00C0
0380
1E00
0000
0000
ENDCHAR
STARTCHAR 30F4
ENCODING 12532
SWIDTH 960 0
DWIDTH 16 0
BBX 16 16 0 -2
BITMAP
0006
018D
0186
0180
3FFC
300C
300C
300C
000C
0018
0018
0030
00E0
0380
0000
0000
ENDCHAR
STARTCHAR 30F5
ENCODING 12533
SWIDTH 960 0
DWIDTH 16 0
BBX 16 16 0 -2
BITMAP
0000
0000
0000
0000
0000
0180
0180
0180
1FF8
0198
0318
0318
0618
0C30
1830
00E0
ENDCHAR
STARTCHAR 30F6
ENCODING 12534
SWIDTH 960 0
DWIDTH 16 0
BBX 16 16 0 -2
BITMAP
0000
0000
0000
0000
0000
0600
0600
0600
0FFC
0C60
1860
0060
00C0
00C0
0180
0700
ENDCHAR
STARTCHAR 30F7
ENCODING 12535
SWIDTH 960 0
DWIDTH 16 0
BBX 16 16 0 -2
BITMAP
0006
000D
0006
3FFC
300C
300C
300C
300C
000C
000C
0018
0018
0030
00E0
0380
0000
ENDCHAR
STARTCHAR 30F8
ENCODING 12536
SWIDTH 960 0
DWIDTH 16 0
BBX 16 16 0 -2
BITMAP
0000
0066
006D
0066
1FFC
0C60
0C60
0C60
0C60
7FFE
0060
0060
0060
0060
0060
0000
ENDCHAR
STARTCHAR 30F9
ENCODING 12537
SWIDTH 960 0
DWIDTH 16 0
BBX 16 16 0 -2
BITMAP
0000
0006
000D
0006
1FF8
0018
0030
01A0
0180
0180
0180
0180
7FFE
0000
0000
0000
ENDCHAR
STARTCHAR 30FA
ENCODING 12538
SWIDTH 960 0
DWIDTH 16 0
BBX 16 16 0 -2
BITMAP
0006
000D
0006
1FF8
0018
0018
3FF8
0018
0030
0030
0060
00C0
0380
0E00
0000
0000
ENDCHAR
STARTCHAR 30FB
ENCODING 12539
SWIDTH 960 0
DWIDTH 16 0
BBX 16 16 0 -2
BITMAP
0000
0000
0000
0000
0000
0000
0000
0380
0380
0000
0000
0000
0000
0000
0000
0000
ENDCHAR
STARTCHAR 30FC
ENCODING 12540
SWIDTH 960 0
DWIDTH 16 0
BBX 16 16 0 -2
BITMAP
0000
0000
0000
0000
0000
0000
0000
6000
3FFE
0000
0000
0000
0000
0000
0000
0000
ENDCHAR
STARTCHAR 30FD
ENCODING 12541
SWIDTH 960 0
DWIDTH 16 0
BBX 16 16 0 -2
BITMAP
0000
0000
0000
0000
0000
0E00
0380
00C0
0060
0030
0030
0000
0000
0000
0000
0000
ENDCHAR
STARTCHAR 30FE
ENCODING 12542
SWIDTH 960 0
DWIDTH 16 0
BBX 16 16 0 -2
BITMAP
0000
0000
0000
0030
0068
0E30
0380
00C0
0060
0030
0030
0000
0000
0000
0000
0000
ENDCHAR
STARTCHAR 30FF
ENCODING 12543
SWIDTH 960 0
DWIDTH 16 0
BBX 16 16 0 -2
BITMAP
0000
0000
3FF8
0018
0018
0018
0018
0018
0018
0018
0018
0018
0018
0018
0018
0000
ENDCHAR
STARTCHAR 31F0
ENCODING 12784
SWIDTH 960 0
DWIDTH 16 0
BBX 16 16 0 -2
BITMAP
0000
0000
0000
0000
0000
0300
0300
03F0
0630
0C30
0030
0060
0060
00C0
0380
0E00
ENDCHAR
STARTCHAR 31F1
ENCODING 12785
SWIDTH 960 0
DWIDTH 16 0
BBX 16 16 0 -2
BITMAP
0000
0000
0000
0000
0000
0000
1C00
0600
0000
3818
0C18
0030
0060
00C0
0380
1E00
ENDCHAR
STARTCHAR 31F2
ENCODING 12786
SWIDTH 960 0
DWIDTH 16 0
BBX 16 16 0 -2
BITMAP
0000
0000
0000
0000
0000
0000
1FE0
0060
0060
00C0
00C0
01C0
0360
0630
0C18
3818
ENDCHAR
STARTCHAR 31F3
ENCODING 12787
SWIDTH 960 0
DWIDTH 16 0
BBX 16 16 0 -2
BITMAP
0000
0000
0000
0000
0000
0300
0300
0300
0300
0360
0330
0300
0300
0300
0300
0300
ENDCHAR
STARTCHAR 31F4
ENCODING 12788
SWIDTH 960 0
DWIDTH 16 0
BBX 16 16 0 -2
BITMAP
0000
0000
0000
0000
0000
0000
0FF0
0030
0030
0630
0360
01A0
00E0
01B0
0718
1C00
ENDCHAR
STARTCHAR 31F5
ENCODING 12789
SWIDTH 960 0
DWIDTH 16 0
BBX 16 16 0 -2
BITMAP
0000
0000
0000
0000
0000
0000
0000
0600
06C0
0660
0C30
0C18
1818
180C
300C
0000
ENDCHAR
STARTCHAR 31F6
ENCODING 12790
SWIDTH 960 0
DWIDTH 16 0
BBX 16 16 0 -2
BITMAP
0000
0000
0000
0000
0000
0000
0C00
0C00
0C30
0CE0
0F80
0C00
0C00
0C00
0C00
07F0
ENDCHAR
STARTCHAR 31F7
ENCODING 12791
SWIDTH 960 0
DWIDTH 16 0
BBX 16 16 0 -2
BITMAP
0000
0000
0000
0000
0000
0000
0000
1FF8
0018
0018
0018
0030
0030
0060
01C0
0700
ENDCHAR
STARTCHAR 31F8
ENCODING 12792
SWIDTH 960 0
DWIDTH 16 0
BBX 16 16 0 -2
BITMAP
0000
0000
0000
0000
0000
0000
0000
0000
0700
0D80
18C0
3060
0030
0018
0000
0000
ENDCHAR
STARTCHAR 31F9
ENCODING 12793
SWIDTH 960 0
DWIDTH 16 0
BBX 16 16 0 -2
BITMAP
0000
0000
0000
0000
0000
0180
0180
0180
1FF8
0180
0180
0DB0
0D98
198C
318C
0380
ENDCHAR
STARTCHAR 31FA
ENCODING 12794
SWIDTH 960 0
DWIDTH 16 0
BBX 16 16 0 -2
BITMAP
0000
0000
0000
0000
0000
0000
0000
0300
0300
0300
0300
06C0
0660
0630
0DE8
3F18
ENDCHAR
STARTCHAR 31FB
ENCODING 12795
SWIDTH 960 0
DWIDTH 16 0
BBX 16 16 0 -2
BITMAP
0000
0000
0000
0000
0000
0000
0FF0
0000
0000
1FF8
0018
0018
0030
0060
00C0
0380
ENDCHAR
STARTCHAR 31FC
ENCODING 12796
SWIDTH 960 0
DWIDTH 16 0
BBX 16 16 0 -2
BITMAP
0000
0000
0000
0000
0000
0060
0C60
0C60
0C60
0C60
0C60
0C60
00C0
00C0
0180
0300
ENDCHAR
STARTCHAR 31FD
ENCODING 12797
SWIDTH 960 0
DWIDTH 16 0
BBX 16 16 0 -2
BITMAP
0000
0000
0000
0000
0000
0000
00C0
06C0
06C0
06C0
06C0
0CCC
0CD8
18D0
30E0
0000
ENDCHAR
STARTCHAR 31FE
ENCODING 12798
SWIDTH 960 0
DWIDTH 16 0
BBX 16 16 0 -2
BITMAP
0000
0000
0000
0000
0000
0000
0C00
0C00
0C00
0C00
0C00
0C18
0C30
0C60
0DC0
0F00
ENDCHAR
STARTCHAR 31FF
ENCODING 12799
SWIDTH 960 0
DWIDTH 16 0
BBX 16 16 0 -2
BITMAP
0000
0000
0000
0000
0000
0000
0000
1FF8
1818
1818
1818
1818
1818
1818
1FF8
1818
ENDCHAR
STARTCHAR 3231
ENCODING 12849
SWIDTH 960 0
DWIDTH 16 0
BBX 16 16 0 -2
BITMAP
346C
6DA6
6DA6
DEFB
CD63
CD63
DC63
DFFD
DC63
D4F3
D4F3
CDAB
6D6E
6E66
346C
0000
ENDCHAR
STARTCHAR 3232
ENCODING 12850
SWIDTH 960 0
DWIDTH 16 0
BBX 16 16 0 -2
BITMAP
318C
6186
6FFA
C303
C7FB
C61B
CE1B
DBFB
D61B
C61B
C7FB
C61B
661A
667A
300C
0000
ENDCHAR
STARTCHAR 3239
ENCODING 12857
SWIDTH 960 0
DWIDTH 16 0
BBX 16 16 0 -2
BITMAP
36CC
66D6
66DA
CCDB
CCC3
DCFD
D5C3
CCC3
CCC3
CC63
CC63
CC63
6C6A
6C36
3434
0000
ENDCHAR
STARTCHAR 3251
ENCODING 12881
SWIDTH 960 0
DWIDTH 16 0
BBX 16 16 0 -2
BITMAP
07E0
1C38
300C
6736
6DB6
C1B3
C1B3
C333
C633
CC33
6C36
6FB6
300C
1C38
07E0
0000
ENDCHAR
STARTCHAR 3252
ENCODING 12882
SWIDTH 960 0
DWIDTH 16 0
BBX 16 16 0 -2
BITMAP
07E0
1C38
300C
6E76
6B5A
C31B
C31B
C633
CC63
D8C3
68C6
6F7A
300C
1C38
07E0
0000
ENDCHAR
STARTCHAR 3253
ENCODING 12883
SWIDTH 960 0
DWIDTH 16 0
BBX 16 16 0 -2
BITMAP
07E0
1C38
300C
6E76
6B5A
C31B
C31B
C673
CC1B
D8DB
68DA
6F76
300C
1C38
07E0
0000
ENDCHAR
STARTCHAR 3254
ENCODING 12884
SWIDTH 960 0
DWIDTH 16 0
BBX 16 16 0 -2
BITMAP
07E0
1C38
300C
6E1A
6B3A
C36B
C36B
C6DB
CCFD
D81B
681A
6F1A
300C
1C38
07E0
0000
ENDCHAR
STARTCHAR 3255
ENCODING 12885
SWIDTH 960 0
DWIDTH 16 0
BBX 16 16 0 -2
BITMAP
07E0
1C38
300C
6EFA
6B46
C343
C343
C673
CC1B
D81B
68DA
6F76
300C
1C38
07E0
0000
ENDCHAR
STARTCHAR 3256
ENCODING 12886
SWIDTH 960 0
DWIDTH 16 0
BBX 16 16 0 -2
BITMAP
07E0
1C38
300C
6E76
6B5A
C343
C343
C6F3
CCDB
D8DB
68DA
6F76
300C
1C38
07E0
0000
ENDCHAR
STARTCHAR 3257
ENCODING 12887
SWIDTH 960 0
DWIDTH 16 0
BBX 16 16 0 -2
BITMAP
07E0
1C38
300C
6EFA
6B1A
C31B
C31B
C61B
CC33
D833
6836
6F36
300C
1C38
07E0
0000
ENDCHAR
STARTCHAR 3258
ENCODING 12888
SWIDTH 960 0
DWIDTH 16 0
BBX 16 16 0 -2
BITMAP
07E0
1C38
300C
6E76
6B5A
C35B
C35B
C673
CCDB
D8DB
68DA
6F76
300C
1C38
07E0
0000
ENDCHAR
STARTCHAR 3259
ENCODING 12889
SWIDTH 960 0
DWIDTH 16 0
BBX 16 16 0 -2
BITMAP
07E0
1C38
300C
6E76
6B5A
C35B
C35B
C67B
CC33
D833
6836
6F36
300C
1C38
07E0
0000
ENDCHAR
STARTCHAR 325A
ENCODING 12890
SWIDTH 960 0
DWIDTH 16 0
BBX 16 16 0 -2
BITMAP
07E0
1C38
300C
6E76
6B5A
C35B
C35B
CEDB
C35B
DB5B
6B5A
6E76
300C
1C38
07E0
0000
ENDCHAR
STARTCHAR 325B
ENCODING 12891
SWIDTH 960 0
DWIDTH 16 0
BBX 16 16 0 -2
BITMAP
07E0
1C38
300C
6E36
6B76
C333
C333
CE33
C333
DB33
6B36
6E36
300C
1C38
07E0
0000
ENDCHAR
STARTCHAR 325C
ENCODING 12892
SWIDTH 960 0
DWIDTH 16 0
BBX 16 16 0 -2
BITMAP
07E0
1C38
300C
6E76
6B5A
C31B
C31B
CE33
C363
DB43
6B46
6EFA
300C
1C38
07E0
0000
ENDCHAR
STARTCHAR 325D
ENCODING 12893
SWIDTH 960 0
DWIDTH 16 0
BBX 16 16 0 -2
BITMAP
07E0
1C38
300C
6E76
6B5A
C31B
C31B
CE73
C31B
DB5B
6B5A
6E76
300C
1C38
07E0
0000
ENDCHAR
STARTCHAR 325E
ENCODING 12894
SWIDTH 960 0
DWIDTH 16 0
BBX 16 16 0 -2
BITMAP
07E0
1C38
300C
6E1A
6B3A
C36B
C36B
CEDB
C37D
DB1B
6B1A
6E1A
300C
1C38
07E0
0000
ENDCHAR
STARTCHAR 325F
ENCODING 12895
SWIDTH 960 0
DWIDTH 16 0
BBX 16 16 0 -2
BITMAP
07E0
1C38
300C
6EFA
6B46
C343
C373
CE1B
C31B
DB1B
6B5A
6E76
300C
1C38
07E0
0000
ENDCHAR
STARTCHAR 32A4
ENCODING 12964
SWIDTH 960 0
DWIDTH 16 0
BBX 16 16 0 -2
BITMAP
07E0
1C38
318C
6186
6186
C183
C1F3
C183
C183
C183
6186
6FFA
300C
1C38
07E0
0000
ENDCHAR
STARTCHAR 32A5
ENCODING 12965
SWIDTH 960 0
DWIDTH 16 0
BBX 16 16 0 -2
BITMAP
07E0
1C38
318C
6186
6FFA
D99B
D99B
D99B
DFFB
C183
6186
6186
318C
1C38
07E0
0000
ENDCHAR
STARTCHAR 32A6
ENCODING 12966
SWIDTH 960 0
DWIDTH 16 0
BBX 16 16 0 -2
BITMAP
07E0
1C38
300C
6FFA
6186
C183
C1E3
C1B3
C183
C183
6186
6186
300C
1C38
07E0
0000
ENDCHAR
STARTCHAR 32A7
ENCODING 12967
SWIDTH 960 0
DWIDTH 16 0
BBX 16 16 0 -2
BITMAP
07E0
1C38
318C
6186
6FFA
C303
C603
CDF3
D8C3
C0C3
60C6
67FA
300C
1C38
07E0
0000
ENDCHAR
STARTCHAR 32A8
ENCODING 12968
SWIDTH 960 0
DWIDTH 16 0
BBX 16 16 0 -2
BITMAP
07E0
1C38
330C
6306
6FFA
C603
C603
CFF3
DA33
C633
6636
67F6
300C
1C38
07E0
0000
ENDCHAR
STARTCHAR 32B1
ENCODING 12977
SWIDTH 960 0
DWIDTH 16 0
BBX 16 16 0 -2
BITMAP
07E0
1C38
300C
6E76
6B46
C343
C343
CEF3
C35B
DB5B
6B5A
6E76
300C
1C38
07E0
0000
ENDCHAR
STARTCHAR 32B2
ENCODING 12978
SWIDTH 960 0
DWIDTH 16 0
BBX 16 16 0 -2
BITMAP
07E0
1C38
300C
6EFA
6B1A
C31B
C31B
CE1B
C333
DB33
6B36
6E36
300C
1C38
07E0
0000
ENDCHAR
STARTCHAR 32B3
ENCODING 12979
SWIDTH 960 0
DWIDTH 16 0
BBX 16 16 0 -2
BITMAP
07E0
1C38
300C
6E76
6B5A
C35B
C35B
CE73
C35B
DB5B
6B5A
6E76
300C
1C38
07E0
0000
ENDCHAR
STARTCHAR 32B4
ENCODING 12980
SWIDTH 960 0
DWIDTH 16 0
BBX 16 16 0 -2
BITMAP
07E0
1C38
300C
6E76
6B5A
C35B
C35B
CE7B
C333
DB33
6B36
6E36
300C
1C38
07E0
0000
ENDCHAR
STARTCHAR 32B5
ENCODING 12981
SWIDTH 960 0
DWIDTH 16 0
BBX 16 16 0 -2
BITMAP
07E0
1C38
300C
6376
675A
CD5B
CD5B
DB5B
DFDB
C35B
635A
6376
300C
1C38
07E0
0000
ENDCHAR
STARTCHAR 32B6
ENCODING 12982
SWIDTH 960 0
DWIDTH 16 0
BBX 16 16 0 -2
BITMAP
07E0
1C38
300C
6336
6776
CD33
CD33
DB33
DFB3
C333
6336
6336
300C
1C38
07E0
0000
ENDCHAR
STARTCHAR 32B7
ENCODING 12983
SWIDTH 960 0
DWIDTH 16 0
BBX 16 16 0 -2
BITMAP
07E0
1C38
300C
6376
675A
CD1B
CD1B
DB33
DFA3
C363
6346
637A
300C
1C38
07E0
0000
ENDCHAR
STARTCHAR 32B8
ENCODING 12984
SWIDTH 960 0
DWIDTH 16 0
BBX 16 16 0 -2
BITMAP
07E0
1C38
300C
6376
675A
CD1B
CD1B
DB73
DF9B
C35B
635A
6376
300C
1C38
07E0
0000
ENDCHAR
STARTCHAR 32B9
ENCODING 12985
SWIDTH 960 0
DWIDTH 16 0
BBX 16 16 0 -2
BITMAP
07E0
1C38
300C
661A
6E3A
DA6B
DA6B
D6DB
DF7D
C61B
661A
661A
300C
1C38
07E0
0000
ENDCHAR
STARTCHAR 32BA
ENCODING 12986
SWIDTH 960 0
DWIDTH 16 0
BBX 16 16 0 -2
BITMAP
07E0
1C38
300C
637A
6746
CD43
CD73
DB1B
DF9B
C35B
635A
6376
300C
1C38
07E0
0000
ENDCHAR
STARTCHAR 32BB
ENCODING 12987
SWIDTH 960 0
DWIDTH 16 0
BBX 16 16 0 -2
BITMAP
07E0
1C38
300C
6376
675A
CD43
CD43
DB73
DFDB
C35B
635A
6376
300C
1C38
07E0
0000
ENDCHAR
STARTCHAR 32BC
ENCODING 12988
SWIDTH 960 0
DWIDTH 16 0
BBX 16 16 0 -2
BITMAP
07E0
1C38
300C
637A
671A
CD1B
CD1B
DB33
DFB3
C333
6336
6336
300C
1C38
07E0
0000
ENDCHAR
STARTCHAR 32BD
ENCODING 12989
SWIDTH 960 0
DWIDTH 16 0
BBX 16 16 0 -2
BITMAP
07E0
1C38
300C
6376
675A
CD5B
CD5B
DB73
DFDB
C35B
635A
6376
300C
1C38
07E0
0000
ENDCHAR
STARTCHAR 32BE
ENCODING 12990
SWIDTH 960 0
DWIDTH 16 0
BBX 16 16 0 -2
BITMAP
07E0
1C38
300C
6376
675A
CD5B
CD5B
DB73
DFB3
C333
6336
6336
300C
1C38
07E0
0000
ENDCHAR
STARTCHAR 32BF
ENCODING 12991
SWIDTH 960 0
DWIDTH 16 0
BBX 16 16 0 -2
BITMAP
07E0
1C38
300C
6F76
68DA
D8DB
DEDB
C35B
C35B
DB5B
6B5A
6E76
300C
1C38
07E0
0000
ENDCHAR
STARTCHAR 32D0
ENCODING 13008
SWIDTH 960 0
DWIDTH 16 0
BBX 16 16 0 -2
BITMAP
07E0
1C38
300C
6FFA
601A
C1B3
C1A3
C183
C183
C303
6306
6606
300C
1C38
07E0
0000
ENDCHAR
STARTCHAR 32D1
ENCODING 13009
SWIDTH 960 0
DWIDTH 16 0
BBX 16 16 0 -2
BITMAP
07E0
1C38
300C
6066
6066
C0C3
C383
CE83
C183
C183
6186
6186
300C
1C38
07E0
0000
ENDCHAR
STARTCHAR 32D2
ENCODING 13010
SWIDTH 960 0
DWIDTH 16 0
BBX 16 16 0 -2
BITMAP
07E0
1C38
300C
6186
6186
CFF3
CC33
CC33
C033
C063
60C6
6386
300C
1C38
07E0
0000
ENDCHAR
STARTCHAR 32D3
ENCODING 13011
SWIDTH 960 0
DWIDTH 16 0
BBX 16 16 0 -2
BITMAP
07E0
1C38
300C
6006
6006
C7E3
C183
C183
C183
C183
6FFA
6006
300C
1C38
07E0
0000
ENDCHAR
STARTCHAR 32D4
ENCODING 13012
SWIDTH 960 0
DWIDTH 16 0
BBX 16 16 0 -2
BITMAP
07E0
1C38
300C
6066
6066
CFFB
C0E3
C1A3
C363
C663
6C66
60E6
300C
1C38
07E0
0000
ENDCHAR
STARTCHAR 32D5
ENCODING 13013
SWIDTH 960 0
DWIDTH 16 0
BBX 16 16 0 -2
BITMAP
07E0
1C38
300C
6186
6186
CFF3
C1B3
C1B3
C333
C333
6636
6CE6
300C
1C38
07E0
0000
ENDCHAR
STARTCHAR 32D6
ENCODING 13014
SWIDTH 960 0
DWIDTH 16 0
BBX 16 16 0 -2
BITMAP
07E0
1C38
300C
6186
61E6
C783
C183
C1BB
CFC3
C0C3
60C6
60C6
300C
1C38
07E0
0000
ENDCHAR
STARTCHAR 32D7
ENCODING 13015
SWIDTH 960 0
DWIDTH 16 0
BBX 16 16 0 -2
BITMAP
07E0
1C38
330C
6306
63F6
C633
C633
CC33
C063
C063
60C6
6186
370C
1C38
07E0
0000
ENDCHAR
STARTCHAR 32D8
ENCODING 13016
SWIDTH 960 0
DWIDTH 16 0
BBX 16 16 0 -2
BITMAP
07E0
1C38
330C
6306
6306
C7FB
C663
CC63
C063
C063
60C6
6386
300C
1C38
07E0
0000
ENDCHAR
STARTCHAR 32D9
ENCODING 13017
SWIDTH 960 0
DWIDTH 16 0
BBX 16 16 0 -2
BITMAP
07E0
1C38
300C
6006
67F6
C033
C033
C033
C033
C033
67F6
6006
300C
1C38
07E0
0000
ENDCHAR
STARTCHAR 32DA
ENCODING 13018
SWIDTH 960 0
DWIDTH 16 0
BBX 16 16 0 -2
BITMAP
07E0
1C38
300C
6666
6666
DFFB
C663
C663
C063
C063
60C6
6186
300C
1C38
07E0
0000
ENDCHAR
STARTCHAR 32DB
ENCODING 13019
SWIDTH 960 0
DWIDTH 16 0
BBX 16 16 0 -2
BITMAP
07E0
1C38
300C
6606
6306
C003
CC1B
C633
C063
C0C3
6186
6706
300C
1C38
07E0
0000
ENDCHAR
STARTCHAR 32DC
ENCODING 13020
SWIDTH 960 0
DWIDTH 16 0
BBX 16 16 0 -2
BITMAP
07E0
1C38
300C
6006
67E6
C063
C063
C0C3
C183
C343
6666
6C36
300C
1C38
07E0
0000
ENDCHAR
STARTCHAR 32DD
ENCODING 13021
SWIDTH 960 0
DWIDTH 16 0
BBX 16 16 0 -2
BITMAP
07E0
1C38
300C
6606
6606
C6F3
DF33
C663
C603
C603
6606
63E6
300C
1C38
07E0
0000
ENDCHAR
STARTCHAR 32DE
ENCODING 13022
SWIDTH 960 0
DWIDTH 16 0
BBX 16 16 0 -2
BITMAP
07E0
1C38
300C
6006
6C06
C61B
C61B
C033
C033
C063
60C6
6386
300C
1C38
07E0
0000
ENDCHAR
STARTCHAR 32DF
ENCODING 13023
SWIDTH 960 0
DWIDTH 16 0
BBX 16 16 0 -2
BITMAP
07E0
1C38
318C
6186
61F6
C333
C733
CDA3
C0E3
C0C3
6186
6706
300C
1C38
07E0
0000
ENDCHAR
STARTCHAR 32E0
ENCODING 13024
SWIDTH 960 0
DWIDTH 16 0
BBX 16 16 0 -2
BITMAP
07E0
1C38
300C
60E6
6786
C0C3
C0C3
DFFB
C0C3
C0C3
6186
6706
300C
1C38
07E0
0000
ENDCHAR
STARTCHAR 32E1
ENCODING 13025
SWIDTH 960 0
DWIDTH 16 0
BBX 16 16 0 -2
BITMAP
07E0
1C38
300C
6306
6D86
C69B
C61B
C033
C033
C063
60C6
6386
300C
1C38
07E0
0000
ENDCHAR
STARTCHAR 32E2
ENCODING 13026
SWIDTH 960 0
DWIDTH 16 0
BBX 16 16 0 -2
BITMAP
07E0
1C38
300C
6FF6
6006
C003
DFFB
C0C3
C0C3
C0C3
6186
6706
300C
1C38
07E0
0000
ENDCHAR
STARTCHAR 32E3
ENCODING 13027
SWIDTH 960 0
DWIDTH 16 0
BBX 16 16 0 -2
BITMAP
07E0
1C38
300C
6306
6306
C303
C383
C363
C303
C303
6306
6306
300C
1C38
07E0
0000
ENDCHAR
STARTCHAR 32E5
ENCODING 13029
SWIDTH 960 0
DWIDTH 16 0
BBX 16 16 0 -2
BITMAP
07E0
1C38
300C
6006
6006
C7E3
C003
C003
C003
C003
6FFA
6006
300C
1C38
07E0
0000
ENDCHAR
STARTCHAR 32E9
ENCODING 13033
SWIDTH 960 0
DWIDTH 16 0
BBX 16 16 0 -2
BITMAP
07E0
1C38
300C
6006
6306
C363
C633
C633
CC1B
D81B
6006
6006
300C
1C38
07E0
0000
ENDCHAR
STARTCHAR 32EC
ENCODING 13036
SWIDTH 960 0
DWIDTH 16 0
BBX 16 16 0 -2
BITMAP
07E0
1C38
300C
6006
6006
C003
C703
CDC3
D87B
C003
6006
6006
300C
1C38
07E0
0000
ENDCHAR
STARTCHAR 32ED
ENCODING 13037
SWIDTH 960 0
DWIDTH 16 0
BBX 16 16 0 -2
BITMAP
07E0
1C38
300C
6186
6186
DFFB
C183
CDB3
CDB3
D99B
6186
6386
300C
1C38
07E0
0000
ENDCHAR
STARTCHAR 32FA
ENCODING 13050
SWIDTH 960 0
DWIDTH 16 0
BBX 16 16 0 -2
BITMAP
07E0
1C38
300C
6006
6FF6
CC33
CC33
CC33
CC33
CFF3
6C36
6006
300C
1C38
07E0
0000
ENDCHAR
STARTCHAR 3303
ENCODING 13059
SWIDTH 960 0
DWIDTH 16 0
BBX 16 16 0 -2
BITMAP
0000
FF00
0300
1A00
18FE
1800
3000
3000
0000
0600
3600
3600
36C0
6680
C700
0000
ENDCHAR
STARTCHAR 330D
ENCODING 13069
SWIDTH 960 0
DWIDTH 16 0
BBX 16 16 0 -2
BITMAP
3000
3000
FEFE
36C6
36C6
36C6
66C6
CEFE
0000
6600
6600
66FE
0600
0C00
3800
0000
ENDCHAR
STARTCHAR 3314
ENCODING 13076
SWIDTH 960 0
DWIDTH 16 0
BBX 16 16 0 -2
BITMAP
0000
1800
1800
1F00
F800
0C00
0F80
7C00
06FE
06C6
06C6
00C6
00C6
00FE
00C6
0000
ENDCHAR
STARTCHAR 3318
ENCODING 13080
SWIDTH 960 0
DWIDTH 16 0
BBX 16 16 0 -2
BITMAP
0680
335C
3E00
367E
6606
0606
0C0C
3838
0000
1800
1800
1A00
1B00
3780
7D80
0000
ENDCHAR
STARTCHAR 3322
ENCODING 13090
SWIDTH 960 0
DWIDTH 16 0
BBX 16 16 0 -2
BITMAP
3000
3060
3F30
F306
360C
3018
1F70
0000
0700
1E00
0600
7FC0
0600
0600
0C00
0000
ENDCHAR
STARTCHAR 3323
ENCODING 13091
SWIDTH 960 0
DWIDTH 16 0
BBX 16 16 0 -2
BITMAP
3000
30E0
3F33
F606
300C
3018
1F70
3000
3000
3000
3C00
3600
3000
3000
3000
0000
ENDCHAR
STARTCHAR 3326
ENCODING 13094
SWIDTH 960 0
DWIDTH 16 0
BBX 16 16 0 -2
BITMAP
0300
3680
3300
3000
3C00
3600
3000
3000
31B0
01B0
01B0
01B6
0334
0638
0000
0000
ENDCHAR
STARTCHAR 3327
ENCODING 13095
SWIDTH 960 0
DWIDTH 16 0
BBX 16 16 0 -2
BITMAP
0000
3000
3000
3000
3C00
3600
3000
3000
30C0
0060
0006
000C
0018
0030
00E0
0000
ENDCHAR
STARTCHAR 332B
ENCODING 13099
SWIDTH 960 0
DWIDTH 16 0
BBX 16 16 0 -2
BITMAP
01C0
0360
3560
36C0
667F
6300
C300
0000
600C
6D0C
F58E
6C35
686C
60CC
3D8C
0000
ENDCHAR
STARTCHAR 3336
ENCODING 13110
SWIDTH 960 0
DWIDTH 16 0
BBX 16 16 0 -2
BITMAP
0030
303E
6836
CC66
0706
000C
0038
6000
7C0C
6C34
EC34
35D4
1835
306E
E06C
0000
ENDCHAR
STARTCHAR 333B
ENCODING 13115
SWIDTH 960 0
DWIDTH 16 0
BBX 16 16 0 -2
BITMAP
0380
06C0
3AC0
6D80
C67E
0300
0000
0180
3340
1980
6000
3300
0600
0C00
3800
0000
ENDCHAR
STARTCHAR 3349
ENCODING 13129
SWIDTH 960 0
DWIDTH 16 0
BBX 16 16 0 -2
BITMAP
0000
3800
0E00
0300
3800
0E00
0366
7866
0E66
0366
0066
0006
0006
000C
0038
0000
ENDCHAR
STARTCHAR 334A
ENCODING 13130
SWIDTH 960 0
DWIDTH 16 0
BBX 16 16 0 -2
BITMAP
7866
0E66
3866
0C66
0006
780C
0E38
0C00
1A0C
6C34
6834
6BD4
CC35
CC6E
C06C
0000
ENDCHAR
STARTCHAR 334D
ENCODING 13133
SWIDTH 960 0
DWIDTH 16 0
BBX 16 16 0 -2
BITMAP
0000
0300
3300
1A00
0CFE
1A00
7300
0000
3030
30D0
38D0
34D0
30D6
31B4
3338
0000
ENDCHAR
STARTCHAR 3351
ENCODING 13137
SWIDTH 960 0
DWIDTH 16 0
BBX 16 16 0 -2
BITMAP
0000
6600
66C0
66AC
66CC
0618
0C30
3860
3000
30D0
3CD0
36D0
30D6
31B4
3338
0000
ENDCHAR
STARTCHAR 3357
ENCODING 13143
SWIDTH 960 0
DWIDTH 16 0
BBX 16 16 0 -2
BITMAP
0000
7F00
6360
6356
0366
060C
0C18
3030
3000
3000
3C00
3600
3000
3000
3000
0000
ENDCHAR
STARTCHAR 337B
ENCODING 13179
SWIDTH 960 0
DWIDTH 16 0
BBX 16 16 0 -2
BITMAP
001C
7F1A
1818
6AFF
6A98
6A9B
3A9B
19EB
FFAB
19AA
19AA
19AC
1B6D
1B5A
1A76
0000
ENDCHAR
STARTCHAR 337C
ENCODING 13180
SWIDTH 960 0
DWIDTH 16 0
BBX 16 16 0 -2
BITMAP
0030
1FAF
F6ED
D6AD
D6AD
D5FD
D5AD
F9B5
D3AD
D0ED
D7AD
D5AD
F5AD
0DAF
0FA0
0000
ENDCHAR
STARTCHAR 337D
ENCODING 13181
SWIDTH 960 0
DWIDTH 16 0
BBX 16 16 0 -2
BITMAP
1800
19FF
1818
1818
FF18
18D8
18D8
18DE
18D8
34D8
34D8
34D8
66D8
66D8
C7FF
0000
ENDCHAR
STARTCHAR 337E
ENCODING 13182
SWIDTH 960 0
DWIDTH 16 0
BBX 16 16 0 -2
BITMAP
00D8
0F68
F518
D51A
D5B6
D757
F57B
D503
D500
D77F
D573
F553
1B53
1B53
37BF
0000
ENDCHAR
STARTCHAR 338E
ENCODING 13198
SWIDTH 960 0
DWIDTH 16 0
BBX 16 16 0 -2
BITMAP
0000
0000
0000
0000
0000
0000
DA3D
ED67
DB43
DB43
DB43
DB67
DB3D
DB43
0066
003C
ENDCHAR
STARTCHAR 338F
ENCODING 13199
SWIDTH 960 0
DWIDTH 16 0
BBX 16 16 0 -2
BITMAP
6000
6000
6000
6000
6000
6000
633D
6667
6CC3
78C3
6CC3
6667
633D
6343
0066
003C
ENDCHAR
STARTCHAR 339C
ENCODING 13212
SWIDTH 960 0
DWIDTH 16 0
BBX 16 16 0 -2
BITMAP
0000
0000
0000
0000
0000
0000
DADA
ED6D
DB5B
DB5B
DB5B
DB5B
DB5B
DB5B
0000
0000
ENDCHAR
STARTCHAR 339D
ENCODING 13213
SWIDTH 960 0
DWIDTH 16 0
BBX 16 16 0 -2
BITMAP
0000
0000
0000
0000
0000
0000
3DB4
66DA
C1B6
C1B6
C1B6
C1B6
66B6
3DB6
0000
0000
ENDCHAR
STARTCHAR 339E
ENCODING 13214
SWIDTH 960 0
DWIDTH 16 0
BBX 16 16 0 -2
BITMAP
0000
C000
C000
C000
C000
C000
C6B4
CDDA
D9B6
F1B6
D9B6
CDB6
C6B6
C6B6
0000
0000
ENDCHAR
STARTCHAR 33A1
ENCODING 13217
SWIDTH 960 0
DWIDTH 16 0
BBX 16 16 0 -2
BITMAP
000E
001B
0006
000C
001F
0000
3778
39CC
318C
318C
318C
318C
318C
318C
0000
0000
ENDCHAR
STARTCHAR 33C4
ENCODING 13252
SWIDTH 960 0
DWIDTH 16 0
BBX 16 16 0 -2
BITMAP
0000
0000
0000
0000
0000
0000
3E3E
6363
C0C0
C0C0
C0C0
C0C0
6363
3E3E
0000
0000
ENDCHAR
STARTCHAR 33CB
ENCODING 13259
SWIDTH 960 0
DWIDTH 16 0
BBX 16 16 0 -2
BITMAP
0000
61F8
618C
6186
6186
6186
618C
7FF8
6180
6180
6180
6180
6180
6180
0000
0000
ENDCHAR
STARTCHAR 33CD
ENCODING 13261
SWIDTH 960 0
DWIDTH 16 0
BBX 16 16 0 -2
BITMAP
0000
CCCC
CCCC
D8D8
D8D8
D0D0
D0D0
F0F0
D0D0
D0D0
D8D8
D8D8
DB5B
CD4D
0000
0000
ENDCHAR
STARTCHAR 3402
ENCODING 13314
SWIDTH 960 0
DWIDTH 16 0
BBX 16 16 0 -2
BITMAP
0C00
0C7E
FFC0
0C00
0C06
07FE
0000
3060
33A7
366C
F9F0
3060
31A3
31A3
1FBF
0000
ENDCHAR
STARTCHAR 3406
ENCODING 13318
SWIDTH 960 0
DWIDTH 16 0
BBX 16 16 0 -2
BITMAP
0078
0FC0
0C00
0FF8
0C18
0FF8
0C18
0FF8
0C00
0FF8
0C18
1818
1818
3018
6070
0000
ENDCHAR
STARTCHAR 342C
ENCODING 13356
SWIDTH 960 0
DWIDTH 16 0
BBX 16 16 0 -2
BITMAP
0300
0300
FFFF
0660
0630
0DE8
7F0C
0000
1998
1998
1998
1998
199B
319B
E18F
0000
ENDCHAR
STARTCHAR 342E
ENCODING 13358
SWIDTH 960 0
DWIDTH 16 0
BBX 16 16 0 -2
BITMAP
0180
0180
FFFF
0C30
381C
E667
3FFC
0660
3FFC
0660
FFFF
06C6
FC74
0F9C
7C07
0000
ENDCHAR
STARTCHAR 3468
ENCODING 13416
SWIDTH 960 0
DWIDTH 16 0
BBX 16 16 0 -2
BITMAP
1800
1BFC
1B0C
330C
330C
73FC
D180
33FE
3660
3060
37FF
30D0
3198
330C
3607
0000
ENDCHAR
STARTCHAR 346A
ENCODING 13418
SWIDTH 960 0
DWIDTH 16 0
BBX 16 16 0 -2
BITMAP
1860
1860
1FFF
330C
3198
70F0
D39C
370F
33FC
330C
330C
33FC
330C
360C
340C
0000
ENDCHAR
STARTCHAR 3492
ENCODING 13458
SWIDTH 960 0
DWIDTH 16 0
BBX 16 16 0 -2
BITMAP
18D0
1AD6
1B54
37FF
330C
7198
D7FE
3060
33FC
3060
37FF
31A8
336C
3667
3060
0000
ENDCHAR
STARTCHAR 34B5
ENCODING 13493
SWIDTH 960 0
DWIDTH 16 0
BBX 16 16 0 -2
BITMAP
0300
0300
0600
3FF8
3018
3018
3FF8
3018
3018
3018
3FF8
0600
0C60
3838
E00E
0000
ENDCHAR
STARTCHAR 34BC
ENCODING 13500
SWIDTH 960 0
DWIDTH 16 0
BBX 16 16 0 -2
BITMAP
0C30
0C30
FFFF
0C30
0FF0
0180
7FFE
6186
6DB6
6DB6
6DB6
6AAA
71CE
6186
619E
0000
ENDCHAR
STARTCHAR 34C1
ENCODING 13505
SWIDTH 960 0
DWIDTH 16 0
BBX 16 16 0 -2
BITMAP
0000
0000
0000
0000
7FFE
6666
6666
0660
0C60
0C63
1863
703F
0000
0000
0000
0000
ENDCHAR
STARTCHAR 34C7
ENCODING 13511
SWIDTH 960 0
DWIDTH 16 0
BBX 16 16 0 -2
BITMAP
003C
63E0
3060
1860
0060
0FFF
0060
0060
18D0
18D0
30D0
3198
6198
630C
CE07
0000
ENDCHAR
STARTCHAR 34DB
ENCODING 13531
SWIDTH 960 0
DWIDTH 16 0
BBX 16 16 0 -2
BITMAP
0000
07FE
00C6
FCC6
30C6
30C6
30C6
3186
3186
3186
3D06
E306
060C
0C0C
1878
0000
ENDCHAR
STARTCHAR 351F
ENCODING 13599
SWIDTH 960 0
DWIDTH 16 0
BBX 16 16 0 -2
BITMAP
6860
6860
7EFC
D86C
DEAC
18EC
18CD
1F6D
F1A7
0300
7FFE
0306
0606
1C06
F03C
0000
ENDCHAR
STARTCHAR 355D
ENCODING 13661
SWIDTH 960 0
DWIDTH 16 0
BBX 16 16 0 -2
BITMAP
0180
0180
FFFF
0180
1FF8
1818
1818
1FF8
0000
3FFC
0C18
0630
03E0
1E78
F00F
0000
ENDCHAR
STARTCHAR 355E
ENCODING 13662
SWIDTH 960 0
DWIDTH 16 0
BBX 16 16 0 -2
BITMAP
0000
7FFE
61A6
61A6
7FA6
6666
6666
6FB4
6AB4
6A98
6A98
6AB4
DBB4
C666
06C3
0000
ENDCHAR
STARTCHAR 3563
ENCODING 13667
SWIDTH 960 0
DWIDTH 16 0
BBX 16 16 0 -2
BITMAP
03E0
0C60
0C60
0C30
1830
3018
600C
C007
3FF8
3018
3018
3018
3018
3018
3FF8
0000
ENDCHAR
STARTCHAR 356E
ENCODING 13678
SWIDTH 960 0
DWIDTH 16 0
BBX 16 16 0 -2
BITMAP
01B0
01B0
FB18
DA0C
DD1B
DB18
DB18
D9B0
D9B0
D8E0
D8C0
F9A0
0330
061C
0C07
0000
ENDCHAR
STARTCHAR 35A6
ENCODING 13734
SWIDTH 960 0
DWIDTH 16 0
BBX 16 16 0 -2
BITMAP
0060
0060
FFFF
D860
DBFE
DA66
DBFE
DA66
DA66
DBFE
D9A8
FB6C
0666
0C63
0060
0000
ENDCHAR
STARTCHAR 35A8
ENCODING 13736
SWIDTH 960 0
DWIDTH 16 0
BBX 16 16 0 -2
BITMAP
0180
01FC
F98C
DB18
DBF8
D818
DFFF
D860
DB66
D9B4
D8F0
F9A8
036C
0E67
01E0
0000
ENDCHAR
STARTCHAR 35C5
ENCODING 13765
SWIDTH 960 0
DWIDTH 16 0
BBX 16 16 0 -2
BITMAP
0300
033F
FB33
DB33
DFF3
DB3F
DB33
DB33
DBD3
DADF
DAD3
FAD3
06D3
07E3
00CF
0000
ENDCHAR
STARTCHAR 35DA
ENCODING 13786
SWIDTH 960 0
DWIDTH 16 0
BBX 16 16 0 -2
BITMAP
0000
0FFF
F9B0
D9B0
DBFE
DAB6
DAB6
DBFE
D860
DFFF
D9A8
FB6C
0666
0C63
0060
0000
ENDCHAR
STARTCHAR 35F4
ENCODING 13812
SWIDTH 960 0
DWIDTH 16 0
BBX 16 16 0 -2
BITMAP
0000
07DF
FAD3
DBDF
DAD3
DBDF
DA03
DAFB
DADB
DADB
DAFB
FADB
06DB
06FB
0607
0000
ENDCHAR
STARTCHAR 3605
ENCODING 13829
SWIDTH 960 0
DWIDTH 16 0
BBX 16 16 0 -2
BITMAP
06C0
06DF
F5A0
D9A0
D730
D6EF
D4C6
DCC6
D5FA
D4C6
D55A
F55A
0DD6
0CFA
0D8E
0000
ENDCHAR
STARTCHAR 364A
ENCODING 13898
SWIDTH 960 0
DWIDTH 16 0
BBX 16 16 0 -2
BITMAP
3000
33FE
3300
33FC
FD00
33FC
3300
3300
37FF
3366
3D66
E334
0318
03EC
0F07
0000
ENDCHAR
STARTCHAR 3691
ENCODING 13969
SWIDTH 960 0
DWIDTH 16 0
BBX 16 16 0 -2
BITMAP
0000
3FFC
000C
FFFF
000C
000C
3FFC
0180
0180
FFFF
0180
0340
0660
1C38
F00F
0000
ENDCHAR
STARTCHAR 3696
ENCODING 13974
SWIDTH 960 0
DWIDTH 16 0
BBX 16 16 0 -2
BITMAP
0180
0300
1FF8
1818
1818
1FF8
1818
1818
1FF8
0180
FFFF
0340
0660
1C38
F00F
0000
ENDCHAR
STARTCHAR 3699
ENCODING 13977
SWIDTH 960 0
DWIDTH 16 0
BBX 16 16 0 -2
BITMAP
1800
1800
FF7E
1B66
3366
3366
6366
CF7E
0180
FFFF
0340
0660
0C30
381C
E007
0000
ENDCHAR
STARTCHAR 36CF
ENCODING 14031
SWIDTH 960 0
DWIDTH 16 0
BBX 16 16 0 -2
BITMAP
1834
1836
1836
FEFF
3630
36B6
36D6
66D4
6C30
6C78
F8D8
1DB4
3336
6033
C0F0
0000
ENDCHAR
STARTCHAR 3761
ENCODING 14177
SWIDTH 960 0
DWIDTH 16 0
BBX 16 16 0 -2
BITMAP
0180
0180
7FFE
6006
0000
7F80
337E
3F06
3366
3F66
3334
3318
3F34
F367
0300
0000
ENDCHAR
STARTCHAR 3762
ENCODING 14178
SWIDTH 960 0
DWIDTH 16 0
BBX 16 16 0 -2
BITMAP
0180
0180
7FFE
6006
6FFA
0180
1FF8
1998
1FF8
0180
3FFC
31AC
31F4
37B4
301C
0000
ENDCHAR
STARTCHAR 376B
ENCODING 14187
SWIDTH 960 0
DWIDTH 16 0
BBX 16 16 0 -2
BITMAP
0180
7FFE
6006
00C0
7CFE
6DD8
6C70
69DC
6B7B
6DB0
6DFC
6D30
69FC
6030
63FE
0000
ENDCHAR
STARTCHAR 376C
ENCODING 14188
SWIDTH 960 0
DWIDTH 16 0
BBX 16 16 0 -2
BITMAP
1830
1830
FF30
C3FE
DB30
7E30
1830
7E30
1BFF
FE30
1868
7E68
66CC
6686
7F03
0000
ENDCHAR
STARTCHAR 3775
ENCODING 14197
SWIDTH 960 0
DWIDTH 16 0
BBX 16 16 0 -2
BITMAP
0000
1FF8
1818
1FF8
1818
1818
1FF8
0000
7FFE
0030
FFFF
0630
0330
0330
00F0
0000
ENDCHAR
STARTCHAR 378D
ENCODING 14221
SWIDTH 960 0
DWIDTH 16 0
BBX 16 16 0 -2
BITMAP
0000
7FFC
600C
600C
7FFC
6300
6300
6FF0
6330
6330
6B30
6E30
C736
CDB6
381E
0000
ENDCHAR
STARTCHAR 37C1
ENCODING 14273
SWIDTH 960 0
DWIDTH 16 0
BBX 16 16 0 -2
BITMAP
3000
33FF
3300
3300
D57E
D530
D530
D530
D5FF
D530
D530
FE30
0630
0C30
0030
0000
ENDCHAR
STARTCHAR 37E2
ENCODING 14306
SWIDTH 960 0
DWIDTH 16 0
BBX 16 16 0 -2
BITMAP
0180
318C
318C
3FFC
0180
7FFE
0660
1C38
FFFF
000C
1FCC
18CC
18CC
1FCC
003C
0000
ENDCHAR
STARTCHAR 37E8
ENCODING 14312
SWIDTH 960 0
DWIDTH 16 0
BBX 16 16 0 -2
BITMAP
3030
3333
3333
33FF
D400
D5FF
D430
D460
D5FF
D55B
D55B
FD5B
035B
035B
035B
0000
ENDCHAR
STARTCHAR 37F4
ENCODING 14324
SWIDTH 960 0
DWIDTH 16 0
BBX 16 16 0 -2
BITMAP
3060
30C0
33FE
3366
D566
D5FE
D566
D566
D5FE
D4D4
D4D5
FDBF
01B0
0333
061F
0000
ENDCHAR
STARTCHAR 37FD
ENCODING 14333
SWIDTH 960 0
DWIDTH 16 0
BBX 16 16 0 -2
BITMAP
3000
37FF
30D8
33FE
D55A
D55A
D5FE
D400
D5FE
D400
D7FF
FC30
01B4
0737
0070
0000
ENDCHAR
STARTCHAR 3800
ENCODING 14336
SWIDTH 960 0
DWIDTH 16 0
BBX 16 16 0 -2
BITMAP
0600
1FF8
1818
1FF8
1818
1FF8
1800
1FFF
1800
1FFE
6DB6
C6DE
0180
6186
7FFE
0000
ENDCHAR
STARTCHAR 382F
ENCODING 14383
SWIDTH 960 0
DWIDTH 16 0
BBX 16 16 0 -2
BITMAP
0000
3FF8
3018
3018
3018
3018
3FF8
3000
3000
3FFC
300C
300C
300C
300C
3FFC
0000
ENDCHAR
STARTCHAR 3836
ENCODING 14390
SWIDTH 960 0
DWIDTH 16 0
BBX 16 16 0 -2
BITMAP
3030
3030
3060
FDFC
D58C
D58C
D58C
D58C
D58C
D58C
DD8C
318C
330D
330D
3607
0000
ENDCHAR
STARTCHAR 3840
ENCODING 14400
SWIDTH 960 0
DWIDTH 16 0
BBX 16 16 0 -2
BITMAP
0180
0DB0
199C
7187
0180
3FFE
3186
36A6
36A6
35B6
35B6
399A
3186
3186
301E
0000
ENDCHAR
STARTCHAR 385C
ENCODING 14428
SWIDTH 960 0
DWIDTH 16 0
BBX 16 16 0 -2
BITMAP
3300
33DE
3766
FEAE
D554
D598
D5FC
D607
D400
D7FE
DC60
336C
3666
3463
30E0
0000
ENDCHAR
STARTCHAR 3861
ENCODING 14433
SWIDTH 960 0
DWIDTH 16 0
BBX 16 16 0 -2
BITMAP
3000
37FF
3400
FDE6
D406
D5EF
D566
D56A
D5EA
D41A
DD6A
3566
35A6
39F6
378E
0000
ENDCHAR
STARTCHAR 38FA
ENCODING 14586
SWIDTH 960 0
DWIDTH 16 0
BBX 16 16 0 -2
BITMAP
0000
0000
0300
0300
0300
0318
330C
3346
3363
6333
6318
C300
0300
0F00
0000
0000
ENDCHAR
STARTCHAR 3917
ENCODING 14615
SWIDTH 960 0
DWIDTH 16 0
BBX 16 16 0 -2
BITMAP
0180
0180
7FFE
0180
3FFC
0340
FFFF
0C30
399C
E187
198C
19A6
31B3
6198
0780
0000
ENDCHAR
STARTCHAR 391A
ENCODING 14618
SWIDTH 960 0
DWIDTH 16 0
BBX 16 16 0 -2
BITMAP
3180
31BE
3300
3300
D600
DA80
D5BF
D30C
D30C
370C
330C
330C
330C
330C
333C
0000
ENDCHAR
STARTCHAR 396F
ENCODING 14703
SWIDTH 960 0
DWIDTH 16 0
BBX 16 16 0 -2
BITMAP
001C
1FF0
1998
330C
6FF4
00C0
7FFE
000C
FFFF
000C
3FFC
0180
34CC
6C1A
C7FB
0000
ENDCHAR
STARTCHAR 3A6E
ENCODING 14958
SWIDTH 960 0
DWIDTH 16 0
BBX 16 16 0 -2
BITMAP
31A0
3776
3666
3776
FAD6
36D6
37FF
330C
3AFA
F463
33FC
3060
37FE
3060
71E0
0000
ENDCHAR
STARTCHAR 3A73
ENCODING 14963
SWIDTH 960 0
DWIDTH 16 0
BBX 16 16 0 -2
BITMAP
36D6
36B4
37DF
36B4
FBDE
36B4
37DE
36B4
3BDF
F000
37FE
330C
31F8
31D8
770F
0000
ENDCHAR
STARTCHAR 3AD6
ENCODING 15062
SWIDTH 960 0
DWIDTH 16 0
BBX 16 16 0 -2
BITMAP
0180
0180
01FC
0180
0180
0180
FFFF
0000
1FF8
1818
1818
1FF8
1818
1818
1FF8
0000
ENDCHAR
STARTCHAR 3AD7
ENCODING 15063
SWIDTH 960 0
DWIDTH 16 0
BBX 16 16 0 -2
BITMAP
0000
3FFC
300C
3FFC
300C
3FFC
0000
3FFC
0070
01C0
FFFF
0180
0180
0180
0780
0000
ENDCHAR
STARTCHAR 3AEA
ENCODING 15082
SWIDTH 960 0
DWIDTH 16 0
BBX 16 16 0 -2
BITMAP
0180
0180
7FFE
0180
3FFC
0340
FFFF
0660
0C30
3DFC
ED8F
0DFC
0D8C
0D8C
0DFC
0000
ENDCHAR
STARTCHAR 3B0E
ENCODING 15118
SWIDTH 960 0
DWIDTH 16 0
BBX 16 16 0 -2
BITMAP
0000
3FFC
300C
3FFC
300C
3FFC
1830
3366
1A34
0C18
1B36
7DFB
300C
6666
C333
0000
ENDCHAR
STARTCHAR 3B1A
ENCODING 15130
SWIDTH 960 0
DWIDTH 16 0
BBX 16 16 0 -2
BITMAP
0318
0318
FFE8
DB1F
DADA
DFB6
D86A
FBDA
DADA
DBCC
DACC
DBCC
FADA
06DA
06D3
0000
ENDCHAR
STARTCHAR 3B1C
ENCODING 15132
SWIDTH 960 0
DWIDTH 16 0
BBX 16 16 0 -2
BITMAP
0000
FF7F
1818
3636
FD7D
1B1B
7E7E
1818
FF7F
0000
1FFC
180C
1FFC
180C
1FFC
0000
ENDCHAR
STARTCHAR 3B22
ENCODING 15138
SWIDTH 960 0
DWIDTH 16 0
BBX 16 16 0 -2
BITMAP
0198
00D0
FBFE
D860
DBFC
D860
DFFF
F80C
DBA6
DB60
DFFF
DB36
FBB4
0D5B
0377
0000
ENDCHAR
STARTCHAR 3B6D
ENCODING 15213
SWIDTH 960 0
DWIDTH 16 0
BBX 16 16 0 -2
BITMAP
3003
37E3
366B
FE6B
366B
37EB
7B1B
751B
75EB
D36B
D36B
3363
3663
3663
35CF
0000
ENDCHAR
STARTCHAR 3B77
ENCODING 15223
SWIDTH 960 0
DWIDTH 16 0
BBX 16 16 0 -2
BITMAP
1800
19FE
19B6
FEB6
19FE
19B6
3DB6
3AFE
3830
6BFF
6863
D863
18C3
1983
1B1E
0000
ENDCHAR
STARTCHAR 3B87
ENCODING 15239
SWIDTH 960 0
DWIDTH 16 0
BBX 16 16 0 -2
BITMAP
303C
33E0
3060
FC60
37FF
30D8
718C
7B06
7663
D060
D36A
336B
366D
366C
30E0
0000
ENDCHAR
STARTCHAR 3B88
ENCODING 15240
SWIDTH 960 0
DWIDTH 16 0
BBX 16 16 0 -2
BITMAP
3060
3060
37FE
FCD0
3198
330C
76FA
7800
7400
D7FE
D060
3368
366C
3C67
31E0
0000
ENDCHAR
STARTCHAR 3B8D
ENCODING 15245
SWIDTH 960 0
DWIDTH 16 0
BBX 16 16 0 -2
BITMAP
0630
FFFF
0000
3F6C
3B6C
376C
3B6C
370C
331C
0180
FFFF
06A0
1DB8
F18F
0180
0000
ENDCHAR
STARTCHAR 3BA4
ENCODING 15268
SWIDTH 960 0
DWIDTH 16 0
BBX 16 16 0 -2
BITMAP
0180
0180
7FFE
6C36
399C
0760
1C38
F7F7
0C30
0FF0
0180
FFFF
06A0
1DB8
F18F
0000
ENDCHAR
STARTCHAR 3BB6
ENCODING 15286
SWIDTH 960 0
DWIDTH 16 0
BBX 16 16 0 -2
BITMAP
3660
336F
335B
FFFB
319B
319F
7AAB
76AB
76AB
D6AF
D7EB
319B
319B
331B
3637
0000
ENDCHAR
STARTCHAR 3BC3
ENCODING 15299
SWIDTH 960 0
DWIDTH 16 0
BBX 16 16 0 -2
BITMAP
3060
3060
37FF
F9A8
336C
3667
70D0
7B9C
7667
D36C
D1A8
30F0
33AC
3667
30E0
0000
ENDCHAR
STARTCHAR 3BCD
ENCODING 15309
SWIDTH 960 0
DWIDTH 16 0
BBX 16 16 0 -2
BITMAP
31B0
36BF
36B3
FEEB
36B6
379C
71F6
7986
77BF
D686
D6B6
369A
369A
3586
358E
0000
ENDCHAR
STARTCHAR 3BF0
ENCODING 15344
SWIDTH 960 0
DWIDTH 16 0
BBX 16 16 0 -2
BITMAP
33FE
3356
33FE
FC60
37FF
3060
79FE
7586
76FE
D686
D6FE
3686
36FE
3600
37FF
0000
ENDCHAR
STARTCHAR 3C0F
ENCODING 15375
SWIDTH 960 0
DWIDTH 16 0
BBX 16 16 0 -2
BITMAP
3318
33EF
36D4
FC66
37FE
3000
79F8
7598
75F8
D000
D7FE
3606
36FA
369A
36FE
0000
ENDCHAR
STARTCHAR 3C26
ENCODING 15398
SWIDTH 960 0
DWIDTH 16 0
BBX 16 16 0 -2
BITMAP
0C30
0C30
0C30
7FBF
0C63
0CDB
0C1A
FF98
1818
1818
1A18
1B34
3334
3EA6
F0C3
0000
ENDCHAR
ENDFONT
